<?xml version="1.0" encoding="UTF-8"?>
<svg width="476.72" height="414.31" version="1.1" viewBox="0 0 476.72 414.30667" xmlns="http://www.w3.org/2000/svg"><g transform="matrix(1.3333 0 0 -1.3333 0 414.31)"><g transform="scale(.1)"><path d="m661.09 2327.2c29.719 215.59 89.816 403.01 157.09 529.53 106.73 193.97 212.55 250.58 334.9 250.58 43.96 0 90.05-7.31 139.11-18.17 183.65-45.6 409.5-142.14 675.67-193.23 266.64-58.32 489.45-93.11 670.18-209 118.16-74.78 217.99-184.83 288.22-342.65-184.41 103.8-396.39 196.6-628.65 262.87-176.36 55.07-360.68 82.09-544.34 82.09-394.09 0-785.62-124.2-1092.2-362.02" fill="#f5cf46"/><path d="m3216 2157c-236.79 175.44-552.4 345.73-918.4 450.16-706.46 220.62-1538.7-9.22-1958.8-619.99-420.43-607.02 99.273-1225 1190.6-1219.1 530.37-6.203 1045.7 118.09 1413.5 275.16 371.5 160.07 595.38 352.86 628.06 551.37 33.08 200.46-121.49 384-354.9 562.43" fill="#f17635"/><path d="m1911.8 0c-397.26 0-892.85 120.56-1265.7 365.29-422.43 264.31-691.75 683.72-639.74 1042.6 16.285 189.22 116.95 339.54 263.71 463.92-249.17-498.4 122.22-976.99 908.75-1082.5 101.08-76.5 215.84-133.72 343.59-164.63 88.59-24.859 177.34-36.289 264.84-36.289 303.04 0 590.74 137.18 801.48 328.66 59.28 17.399 116.54 35.879 171.58 55.25 14.07-88.902 25.83-172.26 32.61-249.89-5.78-2.671-11.46-5.39-17.03-8.171-58.85-30.399-104.93-66.668-121.12-117.9-16.08-50.75 0.73-111.13 46.01-172 17.25-22.98 38.69-46.019 63.65-67.351-72.21-200.27-270.47-321.24-717.13-352.08-43.58-3.3203-88.85-4.9805-135.51-4.9805" fill="#ef438d"/><path d="m1787.3 588.46c-87.5 0-176.25 11.43-264.84 36.289-127.75 30.91-242.51 88.129-343.59 164.63 104.52-14.02 216.38-21.438 335.08-21.438 5.17 0 10.22 0.02 15.42 0.051 12.69-0.152 25.44-0.23 38.11-0.23 363.28 0 717.94 60.297 1021.3 149.36-210.74-191.48-498.44-328.66-801.48-328.66" fill="#ed3e76"/><path d="m1567.5 767.76c-12.67 0-25.42 0.078-38.11 0.23-5.2-0.031-10.25-0.051-15.42-0.051-118.7 0-230.56 7.418-335.08 21.438-786.53 105.46-1157.9 584.05-908.75 1082.5 143.08 121.27 329.98 217.87 525.26 301.85 400.11 163.73 834.57 275.59 1115.8 282.13 5.4 0.13 10.67 0.19 15.99 0.19 556.8 0 673.76-684.08 808.14-1330.8 8.77-52.61 17.29-103.59 25.09-152.85-55.04-19.371-112.3-37.851-171.58-55.25-303.36-89.062-658.02-149.36-1021.3-149.36" fill="#ed2b6f"/><path d="m3007.8 257.49c-31.23 0-64.25 5.551-98.29 17.5-55.61 17.953-104.86 47.793-145 82.071 36.71 101.8 40.85 224.07 28.49 365.42 55.59 25.59 120.74 45.43 186.96 49.532 8.26 0.777 16.43 1.16 24.49 1.16 131.77 0 234.54-102.4 238.72-266.92 4.01-141.52-98.12-248.76-235.37-248.76" fill="#f5cf46"/><path d="m2764.5 357.06c-24.96 21.332-46.4 44.371-63.65 67.351-45.28 60.871-62.09 121.25-46.01 172 16.19 51.231 62.27 87.5 121.12 117.9 5.57 2.781 11.25 5.5 17.03 8.171 12.36-141.35 8.22-263.62-28.49-365.42" fill="#f2ae3c"/><path d="m3193.6 2477.3c-8.13 0-16.26 0.49-24.31 1.54-63.33 6.15-101.96 65.1-85.19 147.08 11.9 58.83 56.75 97.92 107.96 97.92 19.85 0 40.66-5.88 60.87-18.75 35.79-21.44 61.06-56.04 74.05-87.95 13.06-32.38 13.81-62.09 1.45-84.41-12.48-22.55-36.24-35.5-64.93-44.61-21.46-6.49-45.64-10.82-69.9-10.82" fill="#f5cf46"/></g></g></svg>
