<?xml version="1.0" encoding="utf-8"?>
<svg viewBox="0 0 512 512" xmlns="http://www.w3.org/2000/svg">
  <path d="M 289.525 445.1 L 267.325 467.3 C 257.925 476.7 242.725 476.7 233.425 467.3 L 39.025 273 C 29.625 263.6 29.625 248.4 39.025 239.1 L 233.425 44.7 C 242.825 35.3 258.025 35.3 267.325 44.7 L 289.525 66.9 C 299.025 76.4 298.825 91.9 289.125 101.2 L 168.625 216 L 456.025 216 C 469.325 216 480.025 226.7 480.025 240 L 480.025 272 C 480.025 285.3 469.325 296 456.025 296 L 168.625 296 L 289.125 410.8 C 298.925 420.1 299.125 435.6 289.525 445.1 Z"/>
</svg>
