<?xml version="1.0" encoding="utf-8"?>
<svg viewBox="0 0 512 512" xmlns="http://www.w3.org/2000/svg">
  <path d="M 222.475 66.9 L 244.675 44.7 C 254.075 35.3 269.275 35.3 278.575 44.7 L 472.975 239 C 482.375 248.4 482.375 263.6 472.975 272.9 L 278.575 467.3 C 269.175 476.7 253.975 476.7 244.675 467.3 L 222.475 445.1 C 212.975 435.6 213.175 420.1 222.875 410.8 L 343.375 296 L 55.975 296 C 42.675 296 31.975 285.3 31.975 272 L 31.975 240 C 31.975 226.7 42.675 216 55.975 216 L 343.375 216 L 222.875 101.2 C 213.075 91.9 212.875 76.4 222.475 66.9 Z"/>
</svg>
