<?xml version="1.0" encoding="utf-8"?>
<svg viewBox="0 0 32 32" width="32px" height="32px" xmlns="http://www.w3.org/2000/svg">
  <path d="M 9.904 16.019 L 15.023 11.011 L 17.851 11.011 L 13.836 15.026 L 22.969 15.026 L 22.969 17.026 L 13.818 17.026 L 17.851 21.059 L 15.023 21.059 Z M 32.016 16.003 C 32.016 24.843 24.85 32.009 16.01 32.009 C 7.17 32.009 0.004 24.843 0.004 16.003 C 0.004 7.163 7.17 -0.003 16.01 -0.003 C 24.85 -0.003 32.016 7.163 32.016 16.003 Z M 16 1 C 7.716 1 1 7.716 1 16 C 1 24.284 7.716 31 16 31 C 24.284 31 31 24.284 31 16 C 31 7.716 24.284 1 16 1 Z"/>
</svg>