<?xml version="1.0" encoding="utf-8"?>
<svg viewBox="0 0 26 26" width="26" height="26" xmlns="http://www.w3.org/2000/svg">
  <path d="M 12.068 15.95 L 2.88 25.152 C 2.321 25.71 1.42 25.71 0.847 25.152 C 0.289 24.579 0.289 23.678 0.847 23.119 L 10.108 13.872 L 10.108 13.872 L 10.979 13.001 L 0.847 2.88 C 0.289 2.322 0.289 1.419 0.847 0.847 C 1.405 0.289 2.322 0.289 2.88 0.847 L 13 10.978 L 23.119 0.847 C 23.677 0.289 24.594 0.289 25.152 0.847 C 25.71 1.419 25.71 2.322 25.152 2.88 L 15.02 13.001 L 15.891 13.872 L 15.891 13.872 L 25.152 23.119 C 25.71 23.678 25.71 24.579 25.152 25.152 C 24.579 25.71 23.678 25.71 23.119 25.152 L 13.931 15.95 L 13 15.02 Z M 9.964 14.016 L 9.964 14.016 L 9.822 14.159 Z M 16.177 14.159 L 16.035 14.016 L 16.035 14.016 Z"/>
</svg>
