<?xml version="1.0" encoding="utf-8"?>
<svg viewBox="0 0 82 82" width="82" height="82" xmlns="http://www.w3.org/2000/svg">
  <path d="M 68.989 0 L 13.021 0 C 5.864 0 0 5.824 0 12.931 L 0 68.552 C 0 75.659 5.864 81.483 13.021 81.483 L 68.989 81.483 C 76.146 81.483 82 75.659 82 68.552 L 82 12.931 C 82 5.824 76.146 0 68.989 0 Z M 67.21 30.584 L 56.694 30.584 C 55.541 30.584 54.2 31.965 54.2 34.052 L 54.2 39.201 L 67.21 39.201 L 67.21 52.132 L 54.2 52.132 L 54.2 81.443 L 42.054 81.443 L 42.054 52.132 L 32.512 52.132 L 32.512 39.201 L 42.054 39.201 L 42.054 34.162 C 42.054 25.475 48.624 17.642 56.694 17.642 L 67.21 17.642 L 67.21 30.584 Z"/>
</svg>
