<?xml version="1.0" encoding="utf-8"?>
<svg viewBox="0 0 82 82" width="82" height="82" xmlns="http://www.w3.org/2000/svg">
  <path d="M 59.598 10.148 C 57.581 10.148 55.922 11.798 55.922 13.816 L 55.922 22.572 C 55.922 24.59 57.581 26.23 59.598 26.23 L 68.847 26.23 C 70.863 26.23 72.522 24.59 72.522 22.572 L 72.522 13.816 C 72.522 11.798 70.863 10.148 68.847 10.148 L 59.598 10.148 Z M 72.562 35.494 L 65.37 35.494 C 66.045 37.7 66.413 40.046 66.413 42.471 C 66.413 55.989 55.038 66.952 41 66.952 C 26.962 66.952 15.587 55.989 15.587 42.471 C 15.587 40.046 15.955 37.7 16.64 35.494 L 9.13 35.494 L 9.13 69.834 C 9.13 71.613 10.59 73.064 12.378 73.064 L 69.314 73.064 C 71.102 73.064 72.562 71.613 72.562 69.834 L 72.562 35.494 Z M 41 25.773 C 31.93 25.773 24.578 32.85 24.578 41.586 C 24.578 50.323 31.93 57.41 41 57.41 C 50.07 57.41 57.422 50.323 57.422 41.586 C 57.422 32.85 50.07 25.773 41 25.773 Z M 68.996 81.523 L 13.004 81.523 C 5.851 81.523 0 75.708 0 68.592 L 0 12.931 C 0 5.824 5.851 0 13.004 0 L 68.996 0 C 76.149 0 82 5.824 82 12.931 L 82 68.592 C 82 75.708 76.149 81.523 68.996 81.523 Z"/>
</svg>
