<?xml version="1.0" encoding="utf-8"?>
<svg viewBox="0 0 365 172" width="365" height="172px" preserveAspectRatio="xMidYMin" xmlns="http://www.w3.org/2000/svg">
  <g>
    <path d="M 20 151.07 C 19.41 147.58 18.7 146.95 13.96 146.95 L 8.78 146.95 C 7.65 146.95 7.45 147.26 7.45 148.48 L 7.45 156.99 L 13.02 156.99 C 16.31 156.99 17.09 156.32 17.45 153.26 L 18.35 153.26 L 18.35 162.4 L 17.45 162.4 C 17.13 159.18 16.39 158.59 13.02 158.59 L 7.45 158.59 L 7.45 167.02 C 7.45 170 8 170.51 11.02 170.67 L 11.02 171.42 L 0 171.42 L 0 170.67 C 2.98 170.47 3.45 170 3.45 166.59 L 3.45 149.81 C 3.45 146.95 3.06 146.44 0.04 146.2 L 0.04 145.46 L 20.78 145.46 L 20.98 151.07 L 20 151.07 Z M 37.68 150.56 L 33.17 161.34 L 42.23 161.34 L 37.68 150.56 Z M 42.42 171.41 L 42.42 170.67 C 43.84 170.67 44.11 170.59 44.58 170.32 C 44.89 170.16 45.13 169.73 45.13 169.38 C 45.13 168.79 44.85 167.73 44.38 166.63 L 42.78 162.95 L 32.5 162.95 L 30.7 167.42 C 30.5 167.93 30.35 168.59 30.35 169.06 C 30.35 170.28 31.21 170.67 33.09 170.67 L 33.09 171.41 L 25.29 171.41 L 25.29 170.67 C 27.56 170.43 27.92 169.61 30.23 164.12 L 38.31 144.99 L 39.09 144.99 L 48.74 167.06 C 49.83 169.61 50.38 170.43 52.42 170.67 L 52.42 171.41 L 42.42 171.41 Z M 79.83 171.42 L 79.83 170.67 C 82.93 170.47 83.36 169.85 83.36 166.59 L 83.36 148.99 L 73.36 171.42 L 72.81 171.42 L 62.93 149.89 L 62.93 165.49 C 62.93 169.81 63.56 170.51 66.58 170.67 L 66.58 171.42 L 57.4 171.42 L 57.4 170.67 C 60.66 170.44 61.2 169.89 61.2 165.49 L 61.2 149.89 C 61.2 146.91 60.69 146.4 57.48 146.2 L 57.48 145.46 L 65.24 145.46 L 74.3 165.14 L 82.97 145.46 L 90.77 145.46 L 90.77 146.2 C 87.94 146.24 87.36 146.91 87.36 149.85 L 87.36 167.02 C 87.36 169.81 87.94 170.47 90.81 170.67 L 90.81 171.42 L 79.83 171.42 Z M 99.55 171.42 L 99.55 170.67 C 102.84 170.55 103.35 170.08 103.35 167.02 L 103.35 149.81 C 103.35 146.71 102.88 146.4 99.55 146.2 L 99.55 145.46 L 111.19 145.46 L 111.19 146.2 C 107.9 146.36 107.35 146.83 107.35 149.81 L 107.35 167.02 C 107.35 169.96 107.98 170.55 111.19 170.67 L 111.19 171.42 L 99.55 171.42 Z M 140.52 171.42 L 119.43 171.42 L 119.43 170.67 C 122.33 170.51 122.84 169.89 122.84 166.91 L 122.84 150.01 C 122.84 146.99 122.49 146.44 119.43 146.2 L 119.43 145.46 L 130.52 145.46 L 130.52 146.2 C 127.31 146.4 126.84 146.91 126.84 149.93 L 126.84 168.12 C 126.84 169.61 127.5 169.89 130.37 169.89 L 133.11 169.89 C 136.29 169.89 138.41 169.18 139.74 167.49 C 140.25 166.83 140.76 165.97 141.39 164.59 L 142.4 164.59 L 140.52 171.42 Z M 171.46 146.2 C 169.15 146.4 168.24 147.22 166.05 150.59 L 160.24 159.53 L 160.24 167.06 C 160.24 170.12 160.99 170.51 164.28 170.67 L 164.28 171.42 L 152.29 171.42 L 152.29 170.67 C 155.77 170.44 156.25 170.08 156.25 166.59 L 156.25 159.89 L 151.11 152.36 C 147.5 147.07 146.64 146.28 144.76 146.2 L 144.76 145.46 L 155.7 145.46 L 155.7 146.2 L 154.76 146.24 C 153.5 146.28 152.91 146.63 152.91 147.26 C 152.91 147.77 153.19 148.48 153.62 149.11 L 159.34 157.77 L 165.03 149.07 C 165.42 148.48 165.58 147.85 165.58 147.42 C 165.54 146.56 164.95 146.24 162.91 146.2 L 162.91 145.46 L 171.46 145.46 L 171.46 146.2 Z M 221.57 152.12 C 220.7 147.81 219.68 147.11 215.53 147.11 L 213.21 147.11 L 213.21 167.06 C 213.21 170.04 213.76 170.51 216.98 170.67 L 216.98 171.42 L 205.53 171.42 L 205.53 170.67 C 208.78 170.47 209.21 170.04 209.21 166.59 L 209.21 147.11 L 206.86 147.11 C 202.71 147.11 201.65 147.81 200.86 152.12 L 199.92 152.12 L 200.2 145.46 L 222.23 145.46 L 222.51 152.12 L 221.57 152.12 Z M 237.48 157.97 C 241.25 157.89 242.62 157.61 244.42 156.63 C 245.84 155.85 246.66 154.12 246.66 152.16 C 246.66 148.63 244.35 146.91 239.48 146.91 C 238.15 146.91 237.48 147.18 237.48 148.56 L 237.48 157.97 Z M 249.01 171.42 L 239.68 159.34 L 237.48 159.42 L 237.48 167.02 C 237.48 170 237.95 170.47 240.97 170.67 L 240.97 171.42 L 230.15 171.42 L 230.15 170.67 C 233.09 170.44 233.49 170 233.49 166.55 L 233.49 149.81 C 233.49 146.91 233.17 146.44 230.15 146.2 L 230.15 145.46 L 240.82 145.46 C 244.54 145.46 247.33 146.4 249.01 147.77 C 250.31 148.83 250.93 150.75 250.93 152.48 C 250.93 155.89 248.74 158.16 243.84 158.91 L 251.68 168.83 C 252.82 170.28 253.64 170.51 255.36 170.67 L 255.36 171.42 L 249.01 171.42 Z M 283.52 171.42 L 262.38 171.42 L 262.38 170.67 C 265.4 170.47 265.79 169.96 265.79 166.95 L 265.79 149.85 C 265.79 146.95 265.32 146.36 262.38 146.2 L 262.38 145.46 L 283.16 145.46 L 283.32 151.07 L 282.34 151.07 C 281.75 147.54 280.85 146.95 276.3 146.95 L 271.16 146.95 C 270.07 146.95 269.79 147.11 269.79 148.36 L 269.79 156.99 L 275.71 156.99 C 279.08 156.99 279.67 156.32 280.14 153.22 L 281.05 153.22 L 281.05 162.4 L 280.14 162.4 C 279.67 159.1 279.08 158.59 275.71 158.59 L 269.79 158.59 L 269.79 168.12 C 269.79 169.77 270.85 169.96 273.75 169.96 L 275.16 169.96 C 280.77 169.96 282.46 168.95 284.22 164.79 L 285.32 164.79 L 283.52 171.42 Z M 313.74 171.42 L 292.61 171.42 L 292.61 170.67 C 295.63 170.47 296.02 169.96 296.02 166.95 L 296.02 149.85 C 296.02 146.95 295.55 146.36 292.61 146.2 L 292.61 145.46 L 313.39 145.46 L 313.55 151.07 L 312.57 151.07 C 311.98 147.54 311.08 146.95 306.53 146.95 L 301.39 146.95 C 300.3 146.95 300.02 147.11 300.02 148.36 L 300.02 156.99 L 305.94 156.99 C 309.31 156.99 309.9 156.32 310.37 153.22 L 311.27 153.22 L 311.27 162.4 L 310.37 162.4 C 309.9 159.1 309.31 158.59 305.94 158.59 L 300.02 158.59 L 300.02 168.12 C 300.02 169.77 301.08 169.96 303.98 169.96 L 305.39 169.96 C 311 169.96 312.69 168.95 314.45 164.79 L 315.55 164.79 L 313.74 171.42 Z M 284.86 110.98 C 284.02 110.98 283.34 111.66 283.34 112.51 C 283.34 113.35 284.02 114.03 284.86 114.03 C 285.7 114.03 286.39 113.35 286.39 112.51 C 286.39 111.66 285.7 110.98 284.86 110.98 Z M 363.48 137.35 C 363.45 137.51 363.39 137.65 363.32 137.77 C 361.71 136.31 357.39 132.67 351.13 129.35 C 350.78 129.16 350.35 129.3 350.17 129.64 C 349.98 129.99 350.11 130.43 350.46 130.61 C 356.79 133.96 361.18 137.75 362.55 139 L 362.54 139.03 C 362.53 139.57 362.51 140.12 362.28 140.49 C 362.17 140.66 362.07 140.68 362.03 140.69 C 361.85 140.71 361.49 140.6 361.02 140.19 C 349.28 129.83 342.6 128.02 334.87 125.93 C 333.52 125.56 332.13 125.18 330.67 124.75 C 329.26 124.28 327.51 123.8 325.78 123.37 C 323.2 120.8 320.09 117.97 316.36 115.83 C 312.42 113.57 308.19 112.34 303.44 112.06 C 303.05 112.03 302.71 112.34 302.68 112.73 C 302.66 113.12 302.96 113.46 303.35 113.49 C 311.68 113.97 317.3 117.34 323.05 122.72 C 321.04 122.27 319.34 121.92 318.63 121.78 C 317.47 120.38 311.88 114.75 300.43 115.73 C 296.42 113.52 291.08 113.16 289.45 113.1 C 289.06 113.09 288.72 113.4 288.71 113.79 C 288.7 114.19 289.01 114.52 289.4 114.53 C 295.76 114.75 299.35 116.7 300.43 117.38 C 300.61 117.53 300.84 117.6 301.08 117.59 C 307.06 117.14 311.15 118.69 313.54 120.07 C 315.16 121.01 316.24 122 316.82 122.61 C 313.32 124.31 305.56 123.59 302.05 121.55 C 301.71 121.35 301.27 121.47 301.07 121.81 C 300.87 122.15 300.99 122.59 301.33 122.78 C 303.71 124.16 307.66 124.99 311.29 124.99 C 313.92 124.99 316.39 124.56 317.99 123.59 C 318.75 123.74 325.92 125.15 329.97 126.53 C 330.64 126.75 331.01 127.1 331 127.51 C 330.99 127.88 330.7 128.33 329.92 128.52 C 327.31 129.15 320.24 130.45 311.05 128.8 C 304.1 127.55 299.6 125.06 297.85 123.32 C 296.83 122.3 296.32 121.36 296.37 120.61 C 296.42 119.98 296.87 119.52 297.24 119.24 C 297.66 118.93 297.74 118.33 297.43 117.91 C 297.12 117.49 296.52 117.4 296.1 117.71 C 295.13 118.44 294.55 119.42 294.47 120.47 C 294.38 121.81 295.06 123.22 296.5 124.67 C 298.54 126.7 303.34 129.34 310.72 130.67 C 314.13 131.29 317.27 131.51 320.01 131.51 C 322.31 131.51 324.33 131.35 326.01 131.14 C 322.73 135.2 317.03 137.91 311.41 137.91 C 302.69 137.91 295.86 130.97 289.84 124.85 C 288.29 123.27 286.78 121.75 285.32 120.42 C 285.85 120.39 286.38 120.31 286.92 120.17 C 288.77 119.67 290.45 118.47 291.11 117.19 C 291.31 116.8 291.15 116.32 290.76 116.12 C 290.38 115.92 289.9 116.07 289.7 116.46 C 289.31 117.22 288.09 118.21 286.5 118.63 C 285.55 118.89 283.83 118.93 281.84 117.68 C 279.8 116.39 277.28 115.6 275.04 114.92 C 274.35 114.71 273.68 114.51 273.07 114.3 C 275 113.51 277.6 113.24 278.71 113.2 C 279.31 113.42 280.01 114.09 280.34 114.69 C 280.47 114.92 280.72 115.06 280.97 115.06 C 281.09 115.06 281.21 115.03 281.32 114.96 C 281.66 114.77 281.78 114.34 281.59 113.99 C 281.27 113.42 280.61 112.63 279.79 112.14 C 280.79 109.57 282.04 107.28 285.24 106.67 C 287.55 106.22 289.48 107.16 291.35 108.07 C 292.57 108.67 293.73 109.23 294.98 109.43 C 296.01 109.59 297.31 109.65 298.82 109.71 C 302.5 109.87 307.53 110.08 312.35 112.07 C 317.13 114.04 319.89 116.04 322.32 117.8 C 325.12 119.83 327.54 121.59 332.05 122.8 C 333.73 123.25 335.56 123.63 337.5 124.04 C 345.09 125.64 354.54 127.64 362.86 135.29 C 363.45 135.84 363.65 136.49 363.48 137.35 Z M 364.15 133.89 C 355.45 125.88 345.72 123.83 337.9 122.18 C 335.98 121.77 334.17 121.39 332.54 120.95 C 328.37 119.84 326.09 118.18 323.44 116.26 C 320.92 114.43 318.06 112.36 313.07 110.3 C 307.95 108.19 302.72 107.97 298.9 107.81 C 297.45 107.74 296.2 107.69 295.28 107.54 C 294.31 107.39 293.28 106.89 292.19 106.36 C 290.14 105.36 287.82 104.23 284.88 104.8 C 280.81 105.58 279.18 108.49 278.07 111.33 C 276.5 111.44 272.46 111.91 270.34 113.71 C 270.1 113.92 269.98 114.22 270.01 114.53 C 270.04 114.84 270.21 115.11 270.48 115.27 C 271.47 115.83 272.87 116.25 274.49 116.74 C 276.61 117.39 279 118.11 280.81 119.28 C 283.18 120.8 285.75 123.42 288.48 126.19 C 291.46 129.22 294.85 132.66 298.59 135.28 C 302.33 137.89 305.94 139.36 309.58 139.72 C 308.24 140.68 306.64 141.98 305.31 143.52 C 304.35 143.44 302.47 143.56 300.96 145.37 C 300.62 145.77 300.67 146.37 301.08 146.71 C 301.26 146.86 301.47 146.93 301.69 146.93 C 301.96 146.93 302.23 146.82 302.42 146.59 C 302.9 146.02 303.43 145.72 303.91 145.56 C 303.53 146.22 303.29 146.74 303.28 146.78 C 303.06 147.26 303.27 147.82 303.75 148.04 C 303.88 148.1 304.01 148.12 304.14 148.12 C 304.5 148.12 304.85 147.92 305.01 147.57 C 305.02 147.55 305.65 146.17 306.45 145.14 C 308.73 142.28 312.32 140.18 313.11 139.74 C 315.67 139.52 318.21 138.8 320.52 137.7 L 321.19 139.15 C 319.19 140.01 315.68 141.76 312.08 144.04 C 309.12 144.17 307.68 146.3 307.33 147.45 C 307.18 147.95 307.46 148.49 307.96 148.64 C 308.05 148.67 308.15 148.68 308.24 148.68 C 308.65 148.68 309.02 148.42 309.15 148.01 C 309.2 147.86 309.59 146.79 310.79 146.25 C 310.42 147.4 310.31 148.36 310.31 148.42 C 310.25 148.94 310.63 149.41 311.15 149.47 C 311.18 149.47 311.22 149.47 311.25 149.47 C 311.73 149.47 312.15 149.11 312.2 148.63 C 312.2 148.61 312.38 147.03 313.08 145.66 C 317.03 143.16 321.12 141.18 322.8 140.55 C 323.05 140.46 323.25 140.27 323.35 140.02 C 323.45 139.78 323.44 139.5 323.33 139.26 L 322.21 136.81 C 324.86 135.25 327.12 133.16 328.63 130.74 C 329.33 130.61 329.92 130.48 330.37 130.37 C 331.88 130 332.9 128.73 332.9 127.36 C 333.39 127.5 333.88 127.63 334.37 127.76 C 342.18 129.88 348.35 131.56 359.76 141.62 C 360.64 142.39 361.41 142.59 361.98 142.59 C 362.1 142.59 362.22 142.58 362.32 142.57 C 362.98 142.47 363.54 142.08 363.91 141.48 C 364.33 140.79 364.41 140.03 364.44 139.39 C 364.83 139.01 365.21 138.44 365.35 137.72 C 365.65 136.21 365.23 134.89 364.15 133.89 Z M 162.9 27.99 C 163.72 27.55 164.03 26.53 163.59 25.7 C 163.14 24.88 162.12 24.57 161.3 25.01 C 160.47 25.45 160.16 26.48 160.61 27.3 C 161.05 28.12 162.07 28.43 162.9 27.99 Z M 150.23 61.82 C 150 61.5 149.56 61.43 149.24 61.66 C 145.84 64.11 141.09 65.01 136.41 64.17 C 139.47 62.65 142.96 60.56 146.55 57.71 C 153.04 52.56 156.33 47.48 157.25 44.45 C 157.89 42.31 157.82 40.6 157.04 39.37 C 156.43 38.41 155.38 37.77 154.08 37.58 C 153.56 37.5 153.08 37.86 153 38.38 C 152.92 38.9 153.28 39.38 153.8 39.46 C 154.33 39.54 155.04 39.77 155.43 40.39 C 155.9 41.12 155.89 42.34 155.42 43.9 C 154.63 46.53 151.52 51.34 145.36 56.22 C 137.24 62.66 129.64 65.1 126.75 65.85 C 125.84 66.09 125.28 65.77 125.06 65.39 C 124.81 64.94 125.04 64.31 125.6 63.71 C 129.04 60.11 134.67 55.49 134.73 55.44 C 134.73 55.44 134.74 55.43 134.75 55.42 C 141.25 55.28 148.97 49.36 151.58 45.13 C 151.79 44.79 151.68 44.35 151.35 44.15 C 151.01 43.94 150.57 44.04 150.36 44.38 C 148.06 48.11 141.16 53.48 135.35 53.96 C 135.71 52.91 136.44 51.1 137.7 49.04 C 139.46 46.16 142.66 42.25 147.97 39.58 C 148.47 39.34 148.73 39.07 149.14 38.49 C 151.48 35.24 154.49 32.84 158.87 30.82 C 159.23 30.66 159.39 30.23 159.22 29.87 C 159.06 29.52 158.63 29.36 158.27 29.52 C 153.75 31.61 150.59 34.07 148.14 37.44 C 141.83 40.12 137.96 44.94 136.03 48.11 C 134.3 50.95 133.53 53.33 133.28 54.16 C 132.74 54.61 131.33 55.79 129.67 57.25 C 131.29 52.69 133.11 48.94 135.18 45.85 C 137.92 41.76 141.21 38.64 145.25 36.33 C 145.59 36.13 145.71 35.7 145.51 35.35 C 145.32 35.01 144.88 34.89 144.54 35.09 C 140.31 37.52 136.86 40.78 133.99 45.06 C 131.49 48.78 129.37 53.42 127.49 59.21 C 126.3 60.31 121.73 64.83 120.61 65.89 C 114.17 71.98 108.6 77.24 102.56 93.49 C 102.26 94.31 101.77 94.71 101.35 94.49 C 100.71 94.16 100.26 93.13 100.26 93.13 C 101.08 90.85 104.34 82.36 110.33 74.99 C 110.57 74.68 110.53 74.23 110.22 73.99 C 109.91 73.74 109.47 73.78 109.22 74.09 C 103.28 81.4 99.97 89.76 99 92.43 C 98.01 91.79 97.71 90.48 98.01 89.6 C 102.13 77.74 110.33 70.83 116.91 65.28 C 118.59 63.86 120.18 62.52 121.58 61.2 C 125.34 57.68 126.78 54.7 128.44 51.26 C 129.9 48.25 131.54 44.85 135.19 40.41 C 138.86 35.93 143.68 33.08 147.19 31 C 148.63 30.14 149.87 29.41 150.78 28.71 C 151.89 27.87 152.72 26.73 153.6 25.51 C 154.95 23.63 156.36 21.69 158.88 20.9 C 162.4 19.8 164.86 21.42 167.21 23.45 C 166.63 24.36 166.36 25.53 166.39 26.29 C 166.41 26.67 166.73 26.97 167.11 26.97 C 167.12 26.97 167.13 26.97 167.14 26.96 C 167.54 26.94 167.84 26.61 167.82 26.22 C 167.79 25.51 168.19 24.38 168.72 23.84 C 169.31 23.55 172.42 22.13 175.06 21.94 C 174.53 22.52 173.91 23.14 173.27 23.79 C 171.45 25.61 169.4 27.7 168.09 30.02 C 167.41 31.22 166.81 32.22 165.13 32.71 C 163.5 33.2 161.87 32.72 160.98 32.2 C 160.6 31.98 160.11 32.11 159.89 32.49 C 159.67 32.87 159.8 33.36 160.18 33.58 C 161.2 34.17 162.48 34.48 163.73 34.48 C 164.35 34.48 164.97 34.4 165.55 34.24 C 165.82 34.17 166.08 34.08 166.33 33.97 C 165.52 36.17 164.8 38.64 164.05 41.19 C 161.37 50.35 158.33 60.73 149.77 65.32 C 144.18 68.32 137.04 68.63 131.65 66.26 C 132.47 65.95 133.36 65.58 134.31 65.16 C 136.14 65.66 138 65.91 139.82 65.91 C 143.62 65.91 147.27 64.85 150.07 62.82 C 150.39 62.58 150.46 62.14 150.23 61.82 Z M 175.34 9.02 C 175.73 7.52 176.15 5.89 176.35 4.1 C 176.45 4.33 176.55 4.58 176.65 4.83 C 177.3 6.59 177.65 8.53 177.65 10.3 C 177.64 12.97 176.87 15.2 175.35 16.93 C 173.93 14.47 174.56 12.03 175.34 9.02 Z M 138.89 72.88 C 138.93 73.4 139.45 73.84 139.98 73.77 C 141.71 73.53 147.33 73.01 152.79 73.4 C 154.16 74.35 155.01 75.89 155.01 75.9 C 155.19 76.22 155.51 76.4 155.85 76.4 C 156.01 76.4 156.16 76.36 156.3 76.29 C 156.77 76.04 156.94 75.46 156.69 75 C 156.66 74.93 156.07 73.86 155.03 72.81 C 156.74 72.57 157.85 73.61 157.9 73.66 C 158.09 73.84 158.33 73.93 158.57 73.93 C 158.82 73.93 159.06 73.84 159.25 73.65 C 159.62 73.28 159.62 72.67 159.24 72.3 C 159.17 72.23 158.5 71.58 157.36 71.18 C 156.35 70.82 154.77 70.59 152.92 71.49 C 148.11 71.16 143.18 71.5 140.73 71.76 L 140.61 69.7 C 143.56 69.57 146.52 68.9 149.23 67.7 C 150.16 67.71 154.45 67.86 158.19 69.47 C 159.53 70.06 160.88 71.09 160.9 71.1 C 161.07 71.23 161.27 71.29 161.47 71.29 C 161.76 71.29 162.04 71.16 162.23 70.92 C 162.55 70.5 162.47 69.9 162.05 69.58 C 162.01 69.55 161.25 68.97 160.25 68.4 C 160.9 68.03 161.86 67.79 163.1 68.31 C 163.59 68.51 164.15 68.28 164.35 67.8 C 164.55 67.31 164.33 66.76 163.84 66.55 C 161.37 65.51 159.37 66.5 158.32 67.46 C 156.21 66.65 154.03 66.23 152.31 66.02 C 155.7 63.76 158.49 60.43 160.78 55.89 C 163.05 51.38 164.55 46.25 165.88 41.73 C 167.09 37.59 168.24 33.68 169.76 30.94 C 170.92 28.84 172.89 26.87 174.62 25.13 C 175.94 23.81 177.08 22.66 177.74 21.61 C 177.91 21.35 177.94 21.02 177.82 20.73 C 177.7 20.44 177.44 20.23 177.14 20.17 C 176.73 20.08 176.3 20.04 175.86 20.03 L 176.09 18.9 C 178.35 16.75 179.55 13.79 179.56 10.3 C 179.56 7.75 178.95 5.56 178.43 4.17 C 177.78 2.42 176.94 0.99 176.12 0.25 C 175.83 -0.01 175.41 -0.07 175.07 0.1 C 174.72 0.27 174.5 0.63 174.53 1.02 C 174.72 3.82 174.1 6.22 173.5 8.54 C 172.6 11.99 171.76 15.26 174.2 18.65 L 173.88 20.17 C 171.61 20.53 169.37 21.45 168.34 21.91 C 165.78 19.73 162.67 17.72 158.32 19.08 C 155.18 20.06 153.52 22.36 152.05 24.39 C 151.26 25.49 150.51 26.53 149.63 27.2 C 148.8 27.83 147.61 28.54 146.22 29.36 C 142.58 31.51 137.6 34.46 133.72 39.2 C 129.93 43.82 128.23 47.33 126.73 50.43 C 125.14 53.7 123.78 56.53 120.28 59.81 C 118.91 61.1 117.34 62.42 115.68 63.82 C 108.92 69.52 100.5 76.62 96.21 88.97 C 95.69 90.48 95.97 91.95 97.02 93.24 C 97.54 93.87 98.21 94.22 98.78 94.37 C 99.15 94.99 100.21 96.49 101.64 96.49 C 102.8 96.49 103.81 95.6 104.35 94.15 C 110.23 78.32 115.39 73.45 121.92 67.27 C 122.36 66.86 122.8 66.44 123.25 66.01 C 123.74 67.21 124.98 67.84 126.16 67.84 C 127.11 67.84 128.39 67.38 129.16 67.14 C 131.93 68.73 135.26 69.59 138.7 69.71 C 138.76 70.77 138.87 72.53 138.89 72.88 Z M 178.43 95.99 C 176.15 96.95 174.4 98.84 173.62 101.18 C 173.49 101.56 173.7 101.96 174.07 102.08 C 174.15 102.11 174.22 102.12 174.3 102.12 C 174.6 102.12 174.87 101.93 174.97 101.63 C 175.63 99.68 177.09 98.1 178.98 97.31 C 179.34 97.16 179.51 96.74 179.36 96.38 C 179.21 96.01 178.79 95.84 178.43 95.99 Z M 208.89 88.37 C 208.99 88.41 209.1 88.42 209.2 88.42 C 209.6 88.42 209.97 88.18 210.1 87.78 C 211.67 83.18 210.51 78.2 207.08 74.76 C 204.69 72.38 201.52 71.06 198.15 71.06 C 194.78 71.06 191.61 72.38 189.22 74.76 C 188.89 75.09 188.55 75.47 188.19 75.9 C 187.84 75.16 187.37 74.51 186.74 73.99 C 184.89 72.46 181 71.5 172.93 75.6 C 168.05 78.08 162.95 81.85 160.54 84.76 C 158.27 87.5 157.21 90.96 157.54 94.49 C 157.87 98.03 159.56 101.23 162.29 103.49 C 163.42 104.42 164.68 105.16 166.03 105.68 C 166.14 105.72 166.26 105.74 166.37 105.74 C 166.75 105.74 167.11 105.51 167.26 105.13 C 167.45 104.64 167.2 104.09 166.71 103.9 C 165.55 103.45 164.47 102.82 163.51 102.03 C 161.17 100.08 159.72 97.35 159.44 94.31 C 159.15 91.28 160.06 88.32 162.01 85.98 C 163.92 83.67 168.58 79.95 173.8 77.3 C 179.29 74.5 183.56 73.83 185.52 75.46 C 187.81 77.35 187.59 82.94 184.98 90.12 C 184 90.25 183.06 90.39 182.16 90.56 C 183.78 87.07 184.55 82.92 184.67 81.22 C 184.7 80.83 184.41 80.49 184.01 80.46 C 183.62 80.43 183.28 80.72 183.25 81.12 C 183.12 82.82 182.23 87.5 180.38 90.93 C 178.95 91.26 177.71 91.64 176.77 92.04 C 173.01 93.61 170.25 96.84 169.27 100.77 C 167.56 100.34 166.32 99.4 165.94 99.09 C 162.72 96.42 162.27 91.63 164.94 88.41 C 165.19 88.11 165.15 87.66 164.85 87.41 C 164.54 87.15 164.09 87.2 163.84 87.5 C 160.67 91.33 161.21 97.02 165.03 100.19 C 165.53 100.6 167.32 101.97 169.77 102.33 C 170.35 102.41 170.93 102.08 171.06 101.5 C 171.83 98.04 174.22 95.17 177.5 93.79 C 181.37 92.18 191.03 90.79 197.38 92.29 C 197.89 92.41 198.4 92.1 198.53 91.59 C 198.65 91.07 198.33 90.56 197.82 90.44 C 194.63 89.68 190.74 89.6 187.07 89.91 C 188.15 86.76 189.44 81.91 188.85 78.14 C 189.46 77.32 190.04 76.64 190.57 76.11 C 192.59 74.09 195.29 72.97 198.15 72.97 C 201.01 72.97 203.71 74.09 205.73 76.11 C 208.65 79.03 209.63 83.26 208.3 87.16 C 208.13 87.66 208.39 88.2 208.89 88.37 Z M 223.55 38.71 C 223.35 38.16 223.15 37.62 222.97 37.1 C 222.83 36.73 222.43 36.53 222.05 36.67 C 221.68 36.8 221.49 37.21 221.62 37.58 C 221.8 38.1 222 38.64 222.21 39.21 C 222.84 40.91 223.55 42.85 224.13 44.98 C 224.22 45.3 224.51 45.51 224.82 45.51 C 224.88 45.51 224.95 45.5 225.01 45.48 C 225.39 45.38 225.62 44.98 225.51 44.6 C 224.91 42.41 224.19 40.45 223.55 38.71 Z M 211.82 62.97 C 211.72 62.36 211.62 61.78 211.52 61.23 C 211.45 60.84 211.08 60.58 210.69 60.66 C 210.3 60.73 210.05 61.1 210.12 61.49 C 210.22 62.03 210.31 62.61 210.41 63.2 C 210.74 65.14 211.11 67.33 211.73 69.67 C 211.81 70 212.1 70.21 212.42 70.21 C 212.48 70.21 212.54 70.2 212.6 70.18 C 212.98 70.08 213.21 69.69 213.11 69.31 C 212.51 67.03 212.14 64.87 211.82 62.97 Z M 235.76 53.85 C 234.74 54.88 233.52 55.94 232.24 56.92 C 231.93 57.16 231.87 57.61 232.11 57.92 C 232.25 58.11 232.46 58.2 232.67 58.2 C 232.83 58.2 232.98 58.15 233.11 58.05 C 234.44 57.04 235.7 55.93 236.77 54.86 C 237.05 54.58 237.05 54.13 236.77 53.85 C 236.5 53.57 236.04 53.57 235.76 53.85 Z M 168.8 117.39 C 168.89 117.43 168.98 117.45 169.07 117.45 C 169.35 117.45 169.62 117.28 169.73 117 C 170.4 115.38 170.96 113.71 171.37 112.16 C 171.46 111.78 171.24 111.39 170.85 111.29 C 170.47 111.19 170.08 111.42 169.98 111.8 C 169.6 113.26 169.04 114.92 168.41 116.46 C 168.26 116.82 168.43 117.24 168.8 117.39 Z M 204.23 11.58 C 203.86 11.43 203.44 11.6 203.29 11.96 C 202.71 13.35 202.16 14.93 201.71 16.54 C 201.61 16.92 201.83 17.31 202.21 17.42 C 202.28 17.44 202.34 17.44 202.4 17.44 C 202.72 17.44 203 17.24 203.09 16.92 C 203.52 15.37 204.04 13.85 204.61 12.52 C 204.76 12.15 204.59 11.73 204.23 11.58 Z M 206.93 96 C 206.57 95.84 206.15 96 205.99 96.37 C 205.36 97.8 204.54 99.66 203.49 101.76 C 203.23 100.77 202.91 99.95 202.89 99.89 C 202.75 99.52 202.33 99.34 201.97 99.48 C 201.6 99.62 201.41 100.04 201.56 100.41 C 201.78 100.99 202.35 102.68 202.42 103.81 C 201.6 105.32 200.67 106.91 199.61 108.53 C 199.45 106.24 198.57 104.05 198.52 103.92 C 198.37 103.55 197.95 103.38 197.59 103.53 C 197.22 103.67 197.05 104.09 197.2 104.46 C 197.2 104.47 197.64 105.56 197.94 106.93 C 198.3 108.63 198.29 110.01 197.91 110.94 C 196.91 112.3 195.81 113.64 194.6 114.95 C 194.33 115.24 194.35 115.69 194.64 115.96 C 194.77 116.09 194.95 116.15 195.12 116.15 C 195.31 116.15 195.51 116.07 195.65 115.92 C 196.88 114.59 198 113.22 199.03 111.84 C 201.15 110.51 203.36 110.58 203.38 110.59 C 203.78 110.6 204.11 110.3 204.13 109.91 C 204.15 109.51 203.84 109.18 203.45 109.16 C 203.38 109.16 202.18 109.11 200.63 109.57 C 201.77 107.86 202.77 106.17 203.64 104.56 C 205 104.09 206.76 103.74 206.78 103.73 C 207.17 103.66 207.42 103.28 207.34 102.89 C 207.26 102.51 206.89 102.25 206.5 102.33 C 206.45 102.34 205.58 102.52 204.57 102.79 C 205.73 100.51 206.62 98.48 207.3 96.94 C 207.45 96.58 207.29 96.16 206.93 96 Z M 205.06 120.91 C 205.18 121.18 205.44 121.34 205.71 121.34 C 205.81 121.34 205.91 121.32 206 121.28 C 207.78 120.49 209.48 119.6 211.06 118.68 C 212.71 119.14 214.19 119.87 214.21 119.88 C 214.31 119.93 214.42 119.96 214.53 119.96 C 214.79 119.96 215.04 119.81 215.17 119.56 C 215.34 119.21 215.2 118.78 214.85 118.61 C 214.8 118.58 213.9 118.13 212.69 117.7 C 215.18 116.16 217.25 114.67 218.65 113.66 C 218.95 113.44 219.22 113.25 219.45 113.08 C 219.77 112.85 219.85 112.4 219.62 112.08 C 219.39 111.76 218.94 111.68 218.62 111.91 C 218.38 112.08 218.11 112.28 217.81 112.5 C 216.47 113.47 214.51 114.88 212.17 116.34 C 212.5 114.91 212.52 113.8 212.52 113.73 C 212.53 113.34 212.22 113.01 211.82 113 C 211.43 112.99 211.1 113.31 211.09 113.71 C 211.09 113.72 211.05 115.53 210.38 117.43 C 208.83 118.33 207.16 119.21 205.43 119.97 C 205.06 120.13 204.9 120.55 205.06 120.91 Z M 226.51 95.25 C 226.69 95.25 226.87 95.18 227.01 95.04 C 228.34 93.72 229.58 92.37 230.71 91.07 C 232.43 90.73 234.39 91.13 234.41 91.14 C 234.46 91.15 234.51 91.15 234.56 91.15 C 234.89 91.15 235.19 90.92 235.26 90.58 C 235.34 90.2 235.09 89.82 234.7 89.74 C 234.63 89.72 233.45 89.48 232.03 89.51 C 235.04 85.85 236.96 82.91 236.98 82.87 C 237.2 82.54 237.1 82.09 236.77 81.88 C 236.44 81.66 236 81.76 235.78 82.09 C 235.76 82.13 234 84.83 231.21 88.25 C 231.17 86.77 230.88 85.64 230.86 85.57 C 230.76 85.19 230.37 84.96 229.99 85.06 C 229.61 85.16 229.38 85.55 229.48 85.94 C 229.49 85.96 230.02 88.03 229.66 90.09 C 228.55 91.38 227.32 92.72 226 94.02 C 225.72 94.3 225.72 94.75 226 95.03 C 226.14 95.18 226.32 95.25 226.51 95.25 Z M 175.99 133.07 C 177.13 133.62 178.28 134.14 179.41 134.61 C 180.59 135.8 181.03 138.06 181.03 138.08 C 181.1 138.42 181.4 138.66 181.73 138.66 C 181.78 138.66 181.82 138.66 181.86 138.65 C 182.25 138.58 182.51 138.21 182.44 137.82 C 182.42 137.75 182.22 136.68 181.69 135.53 C 184.32 136.55 186.73 137.35 188.45 137.92 C 188.73 138.02 189 138.11 189.24 138.19 C 189.32 138.21 189.39 138.23 189.47 138.23 C 189.77 138.23 190.05 138.04 190.15 137.74 C 190.27 137.36 190.07 136.96 189.7 136.83 C 189.45 136.75 189.19 136.66 188.9 136.57 C 187.33 136.04 185.18 135.33 182.82 134.43 C 184.35 134.04 185.52 133.42 185.6 133.38 C 185.94 133.19 186.07 132.76 185.89 132.41 C 185.7 132.06 185.27 131.93 184.92 132.12 C 184.9 132.13 182.3 133.5 179.99 133.3 C 178.87 132.83 177.73 132.33 176.62 131.79 C 176.26 131.62 175.83 131.77 175.66 132.12 C 175.49 132.48 175.64 132.9 175.99 133.07 Z M 151.67 78.29 C 152.1 78 152.22 77.41 151.93 76.97 C 151.64 76.54 151.05 76.42 150.61 76.71 C 147.72 78.64 140.94 83.17 141.52 89.94 C 141.56 90.43 141.98 90.81 142.47 90.81 C 142.49 90.81 142.52 90.81 142.55 90.8 C 143.07 90.76 143.46 90.3 143.42 89.77 C 143.31 88.5 143.54 87.3 143.99 86.19 C 145.39 89.05 146.85 94.05 145.2 98.71 C 145.03 99.21 145.29 99.75 145.78 99.93 C 145.89 99.96 145.99 99.98 146.1 99.98 C 146.49 99.98 146.86 99.74 147 99.35 C 149.09 93.41 146.87 87.2 145.07 84.2 C 146.98 81.43 150.02 79.4 151.67 78.29 Z M 150.91 82.75 C 151.07 83.08 151.41 83.28 151.76 83.28 C 151.9 83.28 152.05 83.25 152.18 83.18 C 161.33 78.71 167.28 74.15 172.08 67.96 C 172.4 67.54 172.33 66.95 171.91 66.62 C 171.49 66.3 170.9 66.38 170.57 66.79 C 165.9 72.82 160.33 77.07 151.34 81.47 C 150.87 81.7 150.68 82.27 150.91 82.75 Z M 201.18 61.48 C 201.35 61.61 201.55 61.67 201.75 61.67 C 202.04 61.67 202.32 61.54 202.51 61.29 C 202.83 60.87 202.74 60.27 202.32 59.96 C 199.11 57.55 195.24 54.93 189.94 54.24 C 189.41 54.17 188.94 54.54 188.87 55.06 C 188.8 55.59 189.17 56.06 189.69 56.13 C 194.53 56.76 198.02 59.12 201.18 61.48 Z M 215.23 126.61 C 214.8 126.31 214.21 126.41 213.9 126.84 C 210.54 131.62 203.17 132.54 197.4 131.8 C 196.87 131.74 196.4 132.11 196.33 132.63 C 196.26 133.15 196.63 133.63 197.16 133.69 C 198.46 133.86 199.75 133.94 201.01 133.94 C 203.33 133.94 205.55 133.66 207.55 133.1 C 207.69 133.07 207.82 133.03 207.95 132.99 C 206.69 135.41 204.32 136.56 200.64 136.56 C 200.11 136.56 199.68 136.98 199.68 137.51 C 199.68 138.04 200.11 138.46 200.64 138.46 C 205.82 138.46 209.09 136.31 210.36 132.07 C 212.51 131.06 214.25 129.66 215.46 127.94 C 215.76 127.51 215.66 126.91 215.23 126.61 Z M 175.17 63.5 C 170.98 62.4 166.65 61.26 161.92 61 C 161.4 60.97 160.95 61.38 160.92 61.9 C 160.89 62.43 161.3 62.88 161.82 62.9 C 166.35 63.15 170.59 64.26 174.69 65.34 C 175.41 65.53 176.13 65.72 176.86 65.91 C 175.94 67.39 174.98 68.72 174.97 68.74 C 174.66 69.17 174.76 69.76 175.19 70.07 C 175.35 70.19 175.55 70.25 175.74 70.25 C 176.04 70.25 176.33 70.11 176.52 69.85 C 176.57 69.78 177.76 68.13 178.8 66.39 C 181.97 67.15 185.23 67.74 188.6 67.74 C 192.7 67.74 194.71 66.96 197.75 65.79 C 197.92 65.73 198.08 65.66 198.26 65.59 C 198.95 66.15 199.59 66.7 200.19 67.21 C 200.37 67.36 200.59 67.44 200.81 67.44 C 201.08 67.44 201.34 67.33 201.53 67.11 C 201.87 66.71 201.83 66.11 201.43 65.76 C 197.44 62.35 190.77 56.64 180.43 59.81 C 179.93 59.96 179.64 60.5 179.8 61 C 179.95 61.5 180.49 61.79 180.99 61.63 C 183.94 60.73 186.56 60.62 188.87 60.99 C 188.08 61.68 187.38 62.09 187.36 62.11 C 186.91 62.37 186.75 62.96 187.02 63.41 C 187.2 63.71 187.51 63.88 187.84 63.88 C 188 63.88 188.17 63.84 188.32 63.75 C 188.39 63.71 189.81 62.87 191.08 61.52 C 193.12 62.16 194.9 63.16 196.46 64.25 C 193.86 65.24 192.08 65.83 188.6 65.83 C 184.02 65.83 179.72 64.7 175.17 63.5 Z M 186.65 46.76 C 189.39 47.33 191.31 48.7 192.51 49.87 C 191.72 49.77 190.92 49.72 190.1 49.72 C 189.22 49.72 188.35 49.79 187.49 49.94 C 185.73 49.32 175.35 46.01 166.2 49.99 C 165.72 50.2 165.5 50.76 165.71 51.24 C 165.92 51.72 166.48 51.95 166.96 51.74 C 173.15 49.05 180.16 50.03 184.06 50.95 C 182.62 51.55 181.23 52.37 179.89 53.4 C 174.17 52.54 167.22 53.97 163.55 56.81 C 163.14 57.13 163.06 57.73 163.38 58.15 C 163.57 58.39 163.85 58.52 164.14 58.52 C 164.34 58.52 164.55 58.45 164.72 58.32 C 167.62 56.07 173.09 54.79 177.92 55.1 C 176.45 56.53 175.05 58.23 173.74 60.19 C 173.45 60.63 173.57 61.22 174.01 61.51 C 174.17 61.62 174.35 61.67 174.53 61.67 C 174.84 61.67 175.14 61.52 175.33 61.25 C 179.52 54.95 184.63 51.62 190.1 51.62 C 194.17 51.62 197.94 53.07 202.72 56.47 C 203.15 56.78 203.74 56.68 204.05 56.25 C 204.35 55.82 204.25 55.22 203.83 54.92 C 200.81 52.77 198.14 51.35 195.55 50.54 C 194.81 49.41 192.2 45.97 187.04 44.89 C 186.53 44.78 186.03 45.11 185.92 45.63 C 185.81 46.14 186.14 46.65 186.65 46.76 Z M 202.62 126.56 C 202.36 126.1 201.78 125.94 201.32 126.2 C 201.3 126.22 198.72 127.66 194.56 128.15 C 194.04 128.21 193.67 128.68 193.73 129.21 C 193.78 129.69 194.2 130.05 194.67 130.05 C 194.71 130.05 194.75 130.05 194.79 130.04 C 199.32 129.51 202.14 127.93 202.26 127.86 C 202.72 127.6 202.88 127.02 202.62 126.56 Z M 153.41 127.49 C 147.04 125.11 145.11 121.87 146.04 115.14 C 147.24 106.43 145.31 103.42 141.09 96.82 L 140.66 96.14 C 138.47 92.71 137.99 89.11 139.22 85.44 C 140.17 82.62 142.15 79.83 144.66 77.77 C 145.07 77.44 145.13 76.84 144.8 76.43 C 144.46 76.03 143.86 75.97 143.46 76.3 C 141.52 77.89 139.86 79.88 138.68 82 C 138.01 80.87 137.29 79.11 137.99 77.4 C 138.18 76.91 137.95 76.35 137.46 76.15 C 136.98 75.96 136.42 76.19 136.22 76.68 C 134.94 79.82 136.85 82.84 137.73 83.99 C 137.62 84.27 137.51 84.55 137.41 84.83 C 136.06 88.86 136.53 92.97 138.79 96.73 C 137.68 99.45 137.27 102.25 137.57 105.08 C 137.87 108.02 138.92 110.83 140.68 113.45 C 140.87 113.72 141.17 113.87 141.47 113.87 C 141.66 113.87 141.84 113.82 142 113.71 C 142.44 113.42 142.56 112.82 142.26 112.39 C 139.4 108.13 138.65 103.35 140.08 98.77 C 143.72 104.5 145.2 107.26 144.15 114.88 C 143.63 118.67 143.97 121.48 145.24 123.71 C 146.59 126.1 148.97 127.86 152.74 129.27 C 152.85 129.31 152.97 129.33 153.08 129.33 C 153.46 129.33 153.83 129.1 153.97 128.71 C 154.15 128.22 153.9 127.67 153.41 127.49 Z M 240.88 52.02 C 240.68 52.76 240.02 53.42 239.17 53.75 C 238.91 53.84 238.71 54.05 238.61 54.3 C 238.52 54.56 238.54 54.84 238.67 55.08 C 239.05 55.8 239.07 56.5 238.73 57 C 238.32 57.59 237.47 57.84 236.4 57.7 C 236.14 57.66 235.88 57.73 235.68 57.89 C 235.48 58.04 235.35 58.28 235.32 58.53 C 235.27 58.97 235.12 59.56 234.69 59.89 C 234.37 60.14 233.92 60.22 233.34 60.14 C 232.64 60.04 231.97 59.85 231.33 59.68 C 230.89 59.55 230.46 59.44 230.04 59.35 C 230.24 58.66 230.31 57.87 230.39 56.94 C 230.41 56.7 230.43 56.44 230.46 56.17 C 230.5 55.68 230.65 55.03 231.07 54.7 C 231.35 54.49 231.74 54.42 232.24 54.5 C 232.5 54.54 232.77 54.47 232.97 54.31 C 233.18 54.15 233.32 53.91 233.34 53.65 C 233.49 52.14 234.14 51.39 234.71 51.2 C 235.18 51.03 235.69 51.2 236.14 51.67 C 236.34 51.88 236.63 51.99 236.92 51.96 C 237.22 51.93 237.48 51.77 237.63 51.52 C 238.1 50.77 238.89 50.24 239.58 50.21 C 240 50.18 240.34 50.35 240.62 50.7 C 240.93 51.09 241.01 51.54 240.88 52.02 Z M 222.82 46.72 C 222.55 46.58 222.26 46.44 221.96 46.28 C 221.07 45.84 220.52 45.22 220.48 44.65 C 220.44 44.1 220.89 43.66 221.27 43.39 C 221.55 43.2 221.7 42.88 221.68 42.54 C 221.65 42.21 221.46 41.91 221.16 41.76 C 219.14 40.72 218.26 39.34 218.29 38.43 C 218.31 37.89 218.66 37.46 219.35 37.16 C 219.61 37.05 219.8 36.84 219.88 36.58 C 219.97 36.31 219.93 36.03 219.79 35.79 C 219.21 34.83 218.82 33.37 219.19 32.42 C 219.37 31.96 219.72 31.66 220.28 31.5 C 220.48 31.44 220.67 31.41 220.85 31.41 C 221.19 31.41 221.5 31.51 221.8 31.71 C 222.73 32.33 223.36 33.83 223.48 34.93 C 223.5 35.18 223.63 35.41 223.83 35.57 C 224.03 35.73 224.28 35.8 224.53 35.77 C 225.14 35.7 225.96 35.76 226.44 36.49 C 227.06 37.41 226.91 38.98 226.07 40.49 C 225.91 40.77 225.91 41.12 226.06 41.4 C 226.21 41.69 226.5 41.88 226.83 41.9 C 227.63 41.96 228.2 42.25 228.46 42.72 C 228.72 43.21 228.63 43.91 228.22 44.65 C 227.77 45.43 227.25 46.13 226.74 46.8 C 226.34 47.33 225.95 47.85 225.64 48.37 C 224.91 47.75 223.96 47.28 222.82 46.72 Z M 228.09 67.84 L 228.68 67.86 C 228.95 67.87 229.2 67.77 229.39 67.58 L 230.04 66.93 C 230.32 66.65 230.72 66.51 231.16 66.54 C 231.64 66.57 232.12 66.79 232.49 67.16 C 232.86 67.53 233.08 68.01 233.11 68.49 C 233.14 68.93 233 69.33 232.72 69.62 L 232.16 70.17 C 232.07 70.26 232 70.37 231.96 70.48 L 230.93 69.45 C 230.65 69.18 230.2 69.18 229.92 69.45 C 229.64 69.73 229.64 70.19 229.92 70.46 L 231.37 71.92 C 231.03 72.16 230.57 72.4 230.06 72.42 C 229.42 72.46 228.77 72.15 228.14 71.51 C 227.5 70.88 227.2 70.24 227.23 69.61 C 227.27 68.83 227.78 68.17 228.09 67.84 Z M 223.48 93.61 C 223.46 92.7 223.44 91.76 223.52 90.78 C 223.6 89.86 223.9 89.16 224.4 88.76 C 224.83 88.41 225.42 88.27 226.16 88.36 C 226.46 88.4 226.75 88.29 226.96 88.08 C 227.17 87.86 227.26 87.56 227.21 87.26 C 226.8 84.72 227.16 82.79 228.18 82.1 C 228.71 81.75 229.42 81.77 230.07 82.17 C 230.34 82.34 230.68 82.36 230.97 82.22 C 231.26 82.09 231.46 81.81 231.51 81.5 C 231.8 79.5 232.62 78.62 233.29 78.46 C 233.8 78.34 234.32 78.6 234.72 79.17 C 234.9 79.42 235.18 79.57 235.48 79.58 C 235.78 79.58 236.07 79.45 236.26 79.21 C 237.2 78 238.27 77.21 239.1 77.1 C 239.49 77.06 239.82 77.15 240.15 77.41 C 240.54 77.71 240.75 78.11 240.81 78.63 C 240.92 79.71 240.33 81.18 239.27 82.45 C 239.07 82.68 239 82.99 239.07 83.28 C 239.14 83.57 239.34 83.82 239.61 83.94 C 240.32 84.25 240.67 84.68 240.65 85.22 C 240.62 86.07 239.64 87.27 237.84 87.9 C 237.52 88.01 237.29 88.27 237.22 88.59 C 237.15 88.91 237.25 89.25 237.49 89.48 C 238.1 90.07 238.29 90.77 238.03 91.45 C 237.68 92.37 236.37 93.4 233.78 93.51 C 233.49 93.52 233.22 93.66 233.05 93.9 C 232.87 94.14 232.82 94.44 232.9 94.72 C 233.16 95.61 233.11 96.3 232.75 96.77 C 232.28 97.4 231.26 97.74 229.88 97.74 L 224.27 97.74 L 223.17 97.74 C 223.53 96.4 223.51 95.04 223.48 93.61 Z M 206.96 106.54 C 206.66 106.67 206.45 106.94 206.4 107.26 C 206.34 107.58 206.46 107.91 206.7 108.12 C 207.13 108.51 207.81 109.3 207.54 110.33 C 207.2 111.67 205.39 112.83 202.69 113.45 C 202.44 113.51 202.22 113.67 202.09 113.9 C 201.95 114.12 201.92 114.39 201.99 114.65 C 202.19 115.33 202.33 116.31 201.84 117.05 C 201.36 117.8 200.4 118.07 199.69 118.16 C 198.77 118.28 197.68 118.24 196.53 118.19 C 194.94 118.12 193.18 118.05 191.54 118.43 C 191.85 115.48 191.82 114.15 191.59 111.12 C 191.51 109.99 191.64 109.12 191.99 108.55 C 192.21 108.18 192.66 107.68 193.89 107.59 C 194.18 107.56 194.45 107.41 194.61 107.17 C 194.77 106.93 194.82 106.63 194.73 106.36 C 193.94 103.76 194.02 101.75 194.96 100.83 C 195.34 100.46 195.88 100.26 196.49 100.26 C 196.85 100.26 197.22 100.33 197.61 100.46 C 197.9 100.55 198.22 100.51 198.47 100.33 C 198.72 100.14 198.87 99.86 198.87 99.55 C 198.85 97.18 199.71 95.96 200.52 95.6 C 201.19 95.31 201.99 95.53 202.71 96.2 C 202.92 96.4 203.21 96.49 203.49 96.45 C 203.78 96.41 204.03 96.24 204.18 96 C 204.58 95.33 206.69 92.06 208.9 93.08 C 209.38 93.3 209.69 93.69 209.86 94.25 C 210.24 95.57 209.73 97.62 208.61 99.35 C 208.46 99.59 208.41 99.87 208.49 100.14 C 208.57 100.4 208.76 100.62 209.01 100.74 C 209.69 101.05 210.49 101.64 210.48 102.69 C 210.46 103.86 209.37 105.51 206.96 106.54 Z M 210.73 109.79 C 211.38 109.58 212.15 109.84 212.8 110.48 C 213.02 110.7 213.33 110.8 213.63 110.75 C 213.93 110.7 214.19 110.5 214.33 110.23 C 215.2 108.44 216.28 107.84 216.99 107.88 C 217.58 107.9 218.06 108.34 218.35 109.1 C 218.45 109.37 218.67 109.57 218.94 109.67 C 219.21 109.76 219.51 109.72 219.75 109.56 C 220.3 109.21 223.1 107.53 224.36 109.09 C 224.63 109.43 224.73 109.78 224.66 110.19 C 224.49 111.12 223.45 112.25 221.94 113.14 C 221.7 113.29 221.53 113.53 221.49 113.81 C 221.44 114.08 221.52 114.37 221.7 114.58 C 222.31 115.29 222.49 116.05 222.18 116.61 C 221.81 117.29 220.61 117.91 218.34 117.6 C 217.98 117.55 217.63 117.71 217.42 118.01 C 217.22 118.3 217.2 118.69 217.37 119.01 C 217.86 119.89 217.86 120.74 217.38 121.35 C 216.59 122.35 214.67 122.55 212.25 121.88 C 211.98 121.81 211.69 121.86 211.46 122.02 C 211.22 122.17 211.07 122.43 211.05 122.7 C 210.96 123.59 210.6 124.25 210.02 124.62 C 209.43 125 208.6 125.06 207.76 124.77 C 207.01 124.51 206.19 124.06 205.32 123.59 C 204.16 122.96 202.9 122.26 201.54 121.9 C 202.72 120.06 203.36 118.62 204.27 116.39 C 204.63 115.5 205.04 114.91 205.51 114.61 C 205.8 114.43 206.3 114.22 207.23 114.61 C 207.5 114.72 207.81 114.7 208.06 114.55 C 208.31 114.41 208.49 114.16 208.53 113.88 C 208.9 111.61 209.7 110.12 210.73 109.79 Z M 199.3 121.84 C 197.95 122.37 191.26 124.83 186.23 123.08 C 188.05 122.34 189.64 121.51 190.89 120.64 C 192.49 119.93 194.5 120.01 196.45 120.09 C 197.68 120.14 198.85 120.19 199.94 120.05 C 200.13 120.02 200.32 119.99 200.5 119.95 C 200.16 120.54 199.77 121.15 199.3 121.84 Z M 180.76 116.5 C 180.22 115.91 180.13 115.05 180.12 114.61 L 180.6 114.09 C 180.77 113.92 180.86 113.69 180.86 113.45 L 180.86 112.63 C 180.86 111.76 181.71 111.05 182.75 111.05 C 183.8 111.05 184.65 111.76 184.65 112.63 L 184.65 113.45 C 184.65 113.56 184.67 113.67 184.71 113.77 L 183.55 113.77 C 183.16 113.77 182.84 114.09 182.84 114.49 C 182.84 114.88 183.16 115.2 183.55 115.2 L 185.33 115.2 C 185.25 115.62 185.1 116.11 184.75 116.49 C 184.32 116.97 183.65 117.21 182.75 117.21 C 181.86 117.21 181.19 116.97 180.76 116.5 Z M 178.42 129.13 C 179.28 128.87 179.95 128.82 180.44 128.99 C 180.74 129.09 181.17 129.32 181.44 130.22 C 181.52 130.5 181.73 130.72 182 130.83 C 182.27 130.94 182.57 130.92 182.82 130.77 C 184.69 129.7 186.25 129.41 187.1 129.96 C 187.62 130.3 187.88 131 187.79 131.85 C 187.76 132.15 187.88 132.45 188.11 132.66 C 188.34 132.86 188.65 132.94 188.95 132.87 C 190.76 132.46 191.82 132.88 192.22 133.42 C 192.64 134 192.34 134.71 192.12 135.09 C 191.98 135.33 191.95 135.63 192.05 135.9 C 192.15 136.17 192.37 136.38 192.64 136.47 C 193.22 136.66 196.09 137.71 195.7 139.52 C 195.62 139.9 195.4 140.17 195.02 140.38 C 194.1 140.89 192.39 140.85 190.87 140.28 C 190.61 140.19 190.32 140.21 190.08 140.34 C 189.84 140.47 189.66 140.71 189.61 140.98 C 189.49 141.52 189.19 142.21 188.44 142.37 C 187.56 142.55 186.13 141.99 184.92 140.31 C 184.74 140.06 184.45 139.92 184.15 139.92 C 184.13 139.92 184.11 139.92 184.09 139.92 C 183.77 139.94 183.47 140.12 183.31 140.41 C 183.11 140.78 182.65 141.4 181.85 141.36 C 180.77 141.33 179.57 140.13 178.66 138.18 C 178.54 137.94 178.34 137.76 178.09 137.68 C 177.84 137.59 177.56 137.62 177.33 137.75 C 176.85 138.01 176.15 138.28 175.53 138.05 C 174.91 137.82 174.55 137.15 174.36 136.63 C 174.11 135.93 173.95 135.06 173.78 134.14 C 173.56 132.93 173.32 131.6 172.8 130.4 C 174.82 130.17 176.26 129.78 178.42 129.13 Z M 166.37 114.92 C 166.5 114.59 166.8 114.33 167.27 114.15 C 167.52 114.06 167.71 113.86 167.81 113.62 C 167.91 113.38 167.9 113.1 167.79 112.86 C 167.16 111.48 167.34 110.51 167.73 110.06 C 167.95 109.79 168.27 109.65 168.66 109.65 C 168.83 109.65 169.01 109.68 169.2 109.73 C 169.48 109.81 169.79 109.76 170.02 109.59 C 170.26 109.41 170.4 109.14 170.41 108.85 C 170.44 107.96 170.84 107.11 171.42 106.73 C 171.78 106.49 172.15 106.46 172.57 106.63 C 173.03 106.81 173.33 107.15 173.46 107.64 C 173.66 108.37 173.43 109.27 172.86 109.99 C 172.69 110.2 172.62 110.48 172.67 110.75 C 172.72 111.02 172.88 111.25 173.11 111.4 C 173.81 111.82 174.18 112.41 174.13 113.02 C 174.08 113.73 173.48 114.38 172.48 114.8 C 172.24 114.9 172.05 115.09 171.96 115.33 C 171.86 115.56 171.87 115.83 171.97 116.06 C 172.15 116.47 172.32 117.05 172.12 117.55 C 171.97 117.93 171.62 118.23 171.08 118.45 C 170.33 118.76 169.65 118.98 168.99 119.19 C 168.58 119.33 168.17 119.46 167.78 119.6 C 167.59 118.67 167.19 117.8 166.58 116.5 C 166.38 116.05 166.17 115.42 166.37 114.92 Z M 211.66 71.95 C 210.87 71.61 210.06 71.26 209.27 70.79 C 208.53 70.35 208.1 69.77 208.09 69.2 C 208.07 68.66 208.43 68.1 209.11 67.65 C 209.38 67.47 209.54 67.16 209.53 66.83 C 209.52 66.51 209.35 66.21 209.07 66.04 C 207.57 65.13 206.64 63.82 206.72 62.69 C 206.79 61.81 207.48 61.33 208.05 61.09 C 208.28 60.99 208.47 60.8 208.56 60.57 C 208.66 60.33 208.65 60.07 208.55 59.83 C 208.1 58.81 207.9 57.16 208.41 56.14 C 208.66 55.64 209.07 55.32 209.65 55.19 C 209.83 55.14 210 55.12 210.16 55.12 C 210.51 55.12 210.81 55.23 211.09 55.45 C 211.89 56.1 212.29 57.6 212.26 58.74 C 212.26 59.02 212.37 59.28 212.57 59.46 C 212.77 59.65 213.04 59.74 213.32 59.71 C 214.08 59.63 214.62 59.82 214.91 60.3 C 215.4 61.09 215.32 62.75 214.05 64.69 C 213.87 64.97 213.85 65.33 213.99 65.63 C 214.14 65.93 214.43 66.13 214.76 66.16 C 215.24 66.21 215.86 66.37 216.11 66.88 C 216.36 67.41 216.18 68.23 215.63 69.08 C 215.44 69.37 215.25 69.64 215.08 69.89 C 214.36 70.97 213.76 71.87 213.43 72.78 C 212.89 72.48 212.28 72.22 211.66 71.95 Z M 207.48 27.71 C 206.94 27.12 206.85 26.25 206.85 25.81 L 207.34 25.26 C 207.49 25.09 207.58 24.86 207.58 24.63 L 207.58 23.84 C 207.58 22.97 208.43 22.26 209.48 22.26 C 210.52 22.26 211.37 22.97 211.37 23.84 L 211.37 24.63 C 211.37 24.75 211.4 24.87 211.44 24.99 L 210.25 24.99 C 209.86 24.99 209.54 25.31 209.54 25.7 C 209.54 26.09 209.86 26.41 210.25 26.41 L 212.05 26.41 C 211.98 26.83 211.82 27.32 211.48 27.7 C 211.05 28.18 210.38 28.42 209.48 28.42 C 208.58 28.42 207.91 28.18 207.48 27.71 Z M 200.88 18.82 C 200.47 18.29 200.05 17.74 199.69 17.13 C 199.4 16.62 199.3 16.17 199.41 15.78 C 199.56 15.25 200.05 14.9 200.44 14.69 C 200.66 14.56 200.83 14.35 200.9 14.11 C 200.97 13.86 200.94 13.6 200.81 13.38 C 200.27 12.43 200.18 11.55 200.57 10.96 C 200.86 10.51 201.4 10.27 202.06 10.27 C 202.16 10.27 202.27 10.28 202.37 10.29 C 202.65 10.32 202.92 10.23 203.12 10.04 C 203.32 9.86 203.43 9.6 203.43 9.32 C 203.41 8.41 203.78 7.55 204.38 7.09 C 204.78 6.78 205.23 6.7 205.7 6.83 C 206.14 6.95 206.41 7.21 206.55 7.61 C 206.78 8.27 206.59 9.19 206.07 9.91 C 205.9 10.14 205.84 10.45 205.93 10.73 C 206.01 11.01 206.22 11.24 206.49 11.35 C 207.09 11.59 207.44 12 207.46 12.5 C 207.49 13.09 207.05 13.98 205.7 14.69 C 205.47 14.81 205.3 15.02 205.23 15.28 C 205.16 15.53 205.19 15.8 205.33 16.03 C 205.59 16.46 205.68 16.85 205.58 17.19 C 205.44 17.7 204.89 18.08 204.45 18.31 C 204.21 18.43 203.98 18.55 203.77 18.66 C 202.93 19.08 202.22 19.44 201.66 19.89 C 201.42 19.53 201.15 19.18 200.88 18.82 Z M 242.71 52.53 C 243.01 51.46 242.8 50.4 242.12 49.53 C 241.46 48.68 240.53 48.25 239.48 48.3 C 238.47 48.35 237.45 48.86 236.67 49.68 C 235.86 49.21 234.94 49.1 234.08 49.4 C 232.85 49.83 231.96 50.98 231.59 52.57 C 230.95 52.62 230.38 52.83 229.9 53.2 C 229.37 53.61 228.71 54.43 228.56 55.99 C 228.53 56.27 228.51 56.53 228.49 56.78 C 228.36 58.28 228.28 59 227.86 59.51 C 227.68 59.63 227.49 59.75 227.29 59.88 C 226.66 60.27 225.93 60.73 225.16 61.29 C 226.8 57.26 227.35 53.66 226.87 50.25 C 227.03 49.6 227.6 48.83 228.26 47.95 C 228.78 47.26 229.37 46.48 229.87 45.59 C 230.62 44.27 230.71 42.9 230.14 41.82 C 229.75 41.1 229.1 40.57 228.27 40.27 C 228.94 38.47 228.87 36.69 228.03 35.43 C 227.4 34.49 226.4 33.94 225.22 33.85 C 224.88 32.47 224.09 30.95 222.85 30.12 C 221.92 29.5 220.85 29.34 219.74 29.67 C 218.61 30 217.81 30.71 217.41 31.73 C 216.88 33.09 217.19 34.68 217.72 35.91 C 216.89 36.53 216.42 37.39 216.38 38.37 C 216.33 39.94 217.38 41.56 219.17 42.79 C 218.74 43.4 218.53 44.07 218.58 44.78 C 218.67 46.05 219.59 47.22 221.1 47.98 C 221.41 48.14 221.7 48.29 221.98 48.42 C 223.72 49.29 224.55 49.73 224.98 50.51 C 225.53 54.47 224.53 58.77 221.84 63.9 C 220.73 57.93 218.6 52.47 215.4 47.39 C 213.87 44.96 212.21 42.8 210.53 40.87 C 211.63 36.9 211.17 33.38 210.6 30.22 C 211.54 30.04 212.31 29.63 212.89 28.98 C 214.21 27.51 214 25.42 213.99 25.33 C 213.97 25.13 213.89 24.95 213.76 24.8 L 213.28 24.26 L 213.28 23.84 C 213.28 22.22 212.07 20.86 210.43 20.47 L 210.43 19.89 C 210.43 19.37 210 18.94 209.48 18.94 C 208.95 18.94 208.52 19.37 208.52 19.89 L 208.52 20.47 C 206.89 20.86 205.68 22.22 205.68 23.84 L 205.68 24.26 L 205.2 24.8 C 205.06 24.95 204.98 25.13 204.96 25.33 C 204.95 25.42 204.74 27.51 206.06 28.98 C 206.71 29.7 207.59 30.14 208.67 30.27 C 209.18 33.07 209.62 35.95 208.98 39.16 C 207.92 38.02 206.85 36.97 205.81 35.98 C 205.77 32.55 204.76 30.17 203.36 28.14 C 203.34 28.1 203.32 28.06 203.29 28.03 C 203.28 28.01 203.26 27.99 203.25 27.97 C 203.17 27.86 203.09 27.74 203.01 27.63 C 201.67 25.64 201.98 23.92 202.24 22.52 C 202.28 22.32 202.31 22.13 202.34 21.95 C 202.65 21.38 203.3 21.04 204.63 20.36 C 204.85 20.25 205.08 20.13 205.33 20 C 206.73 19.27 207.24 18.35 207.42 17.7 C 207.58 17.12 207.56 16.51 207.36 15.9 C 208.7 14.97 209.43 13.7 209.37 12.4 C 209.32 11.49 208.88 10.68 208.14 10.11 C 208.6 9.08 208.69 7.95 208.35 6.99 C 208.01 6 207.25 5.29 206.23 5 C 205.17 4.7 204.1 4.9 203.22 5.58 C 202.38 6.23 201.8 7.25 201.6 8.39 C 200.49 8.51 199.55 9.04 198.98 9.91 C 198.32 10.92 198.25 12.2 198.77 13.52 C 198.17 14 197.77 14.6 197.58 15.26 C 197.4 15.88 197.34 16.88 198.04 18.08 C 198.46 18.8 198.94 19.43 199.37 19.98 C 199.85 20.61 200.31 21.22 200.45 21.69 C 200.43 21.84 200.4 22 200.37 22.17 C 200.26 22.72 200.14 23.4 200.12 24.18 C 198.67 22.51 197.2 20.72 195.96 18.25 C 195.72 17.78 195.15 17.59 194.68 17.82 C 194.21 18.06 194.02 18.63 194.25 19.1 C 195.78 22.13 197.63 24.24 199.27 26.1 C 201.45 28.58 203.24 30.62 203.76 34.08 C 203.19 33.56 202.63 33.06 202.1 32.58 C 199.99 30.68 198.16 29.05 197.05 27.61 C 196.73 27.2 196.13 27.12 195.71 27.44 C 195.3 27.77 195.22 28.36 195.54 28.78 C 196.76 30.35 198.64 32.04 200.82 33.99 C 204.95 37.7 210.18 42.39 214.25 49.13 C 211.24 48.46 208.24 47.29 205.5 45.76 C 205.54 44.4 205.29 41.23 202.65 38.68 C 202.27 38.32 201.66 38.33 201.3 38.71 C 200.93 39.09 200.95 39.69 201.32 40.05 C 202.88 41.55 203.39 43.33 203.55 44.58 C 200.91 42.86 198.61 40.81 196.93 38.57 C 196.61 38.15 196.02 38.07 195.6 38.39 C 195.18 38.7 195.09 39.3 195.41 39.72 C 199.7 45.42 207.72 50.03 215.48 51.31 C 218.62 57.23 220.83 64.62 220.83 74.08 C 220.83 77.54 220.19 81.46 219.08 85.44 C 217.3 81.35 216.06 77.93 215.06 74.37 C 215.03 73.43 215.54 72.63 216.66 70.96 C 216.84 70.7 217.02 70.42 217.22 70.13 C 218.16 68.7 218.38 67.22 217.82 66.06 C 217.51 65.4 216.99 64.91 216.29 64.6 C 217.26 62.62 217.37 60.66 216.53 59.3 C 216.01 58.46 215.16 57.94 214.12 57.82 C 213.97 56.47 213.44 54.9 212.29 53.97 C 211.43 53.28 210.37 53.06 209.21 53.33 C 208.08 53.6 207.21 54.28 206.71 55.29 C 206.03 56.64 206.1 58.38 206.51 59.77 C 205.5 60.43 204.9 61.42 204.82 62.56 C 204.71 64.1 205.55 65.7 207.05 66.94 C 206.46 67.63 206.16 68.42 206.18 69.25 C 206.22 70.49 206.99 71.65 208.3 72.43 C 209.19 72.96 210.1 73.35 210.9 73.7 C 211.91 74.13 212.79 74.51 213.26 74.99 C 214.44 79.17 215.94 83.16 218.22 88.21 C 217.77 89.56 217.27 90.9 216.72 92.21 C 215.21 89.12 214.44 86.64 214.43 86.61 C 214.28 86.11 213.75 85.83 213.24 85.98 C 212.74 86.13 212.46 86.67 212.61 87.17 C 212.66 87.31 213.68 90.61 215.73 94.46 C 214.64 96.82 213.4 99.08 212.06 101.13 C 211.77 100.51 211.32 99.97 210.71 99.53 C 211.77 97.53 212.15 95.33 211.69 93.72 C 211.37 92.63 210.69 91.81 209.7 91.35 C 207.16 90.18 204.74 91.89 203.12 94.14 C 202.03 93.5 200.83 93.39 199.75 93.86 C 198.25 94.52 197.26 96.17 197.02 98.39 C 195.71 98.25 194.49 98.62 193.63 99.46 C 192.66 100.41 191.76 102.27 192.63 105.88 C 191.63 106.16 190.87 106.72 190.36 107.56 C 189.8 108.49 189.58 109.7 189.69 111.26 C 189.93 114.49 189.95 115.7 189.53 119.26 C 187.72 120.47 185.04 121.66 181.77 122.57 C 182.42 121.64 183.08 120.45 183.5 119.07 C 184.61 118.94 185.51 118.5 186.17 117.77 C 187.49 116.3 187.28 114.21 187.27 114.12 C 187.25 113.91 187.16 113.72 187.02 113.57 L 186.55 113.07 L 186.55 112.63 C 186.55 111.01 185.34 109.64 183.71 109.26 L 183.71 108.68 C 183.71 108.15 183.28 107.73 182.75 107.73 C 182.23 107.73 181.8 108.15 181.8 108.68 L 181.8 109.26 C 180.16 109.64 178.95 111.01 178.95 112.63 L 178.95 113.07 L 178.49 113.57 C 178.35 113.72 178.26 113.91 178.24 114.12 C 178.23 114.21 178.02 116.3 179.34 117.77 C 179.9 118.39 180.63 118.8 181.52 118.99 C 180.7 121.25 179.12 122.84 178.61 123.31 C 175.92 123.84 172.96 124.16 169.84 124.16 C 168.39 124.16 166.96 124.1 165.57 123.98 C 166.28 123.39 167.05 122.62 167.71 121.69 C 168.28 121.43 168.89 121.23 169.58 121.01 C 170.24 120.79 170.98 120.55 171.81 120.22 C 173.09 119.68 173.65 118.86 173.89 118.26 C 174.15 117.62 174.19 116.9 174.01 116.15 C 175.22 115.43 175.94 114.37 176.03 113.16 C 176.11 112.13 175.69 111.13 174.88 110.36 C 175.41 109.34 175.58 108.17 175.3 107.14 C 175.02 106.07 174.3 105.26 173.27 104.85 C 172.28 104.46 171.25 104.56 170.37 105.14 C 169.52 105.7 168.91 106.65 168.64 107.75 C 167.71 107.76 166.87 108.13 166.28 108.82 C 165.43 109.81 165.25 111.26 165.74 112.82 C 165.21 113.18 164.82 113.65 164.6 114.21 C 164.35 114.84 164.19 115.88 164.86 117.3 C 165.67 119.04 165.97 119.76 166 120.8 C 164.85 122.32 163.36 123.31 162.77 123.66 C 157.67 122.91 153.09 121.33 149.3 118.99 C 148.86 118.71 148.27 118.85 147.99 119.3 C 147.72 119.75 147.85 120.33 148.3 120.61 C 149.77 121.52 151.35 122.32 153.03 123.01 C 156.98 129.5 163.24 134.35 168.68 135.12 C 168.73 135.13 168.77 135.13 168.82 135.13 C 169.28 135.13 169.69 134.79 169.76 134.31 C 169.83 133.79 169.47 133.31 168.95 133.23 C 164.7 132.63 159.67 129 156.05 124.09 C 158.08 124.73 160.23 125.21 162.48 125.54 C 165.65 129.02 169.43 130.15 170.67 130.44 C 171.37 131.54 171.64 133.03 171.91 134.48 C 172.09 135.48 172.26 136.43 172.57 137.28 C 173.04 138.56 173.83 139.45 174.86 139.83 C 175.43 140.04 176.28 140.18 177.35 139.82 C 178.97 142.72 180.79 143.23 181.79 143.27 C 182.67 143.3 183.5 142.98 184.16 142.38 C 185.35 143.62 186.75 144.31 188.07 144.31 C 188.33 144.31 188.59 144.28 188.84 144.23 C 189.87 144.01 190.68 143.35 191.14 142.36 C 192.92 142.81 194.73 142.71 195.94 142.05 C 196.8 141.58 197.36 140.84 197.56 139.93 C 197.99 137.96 196.72 136.14 194.2 135.03 C 194.48 134.05 194.33 133.07 193.75 132.29 C 192.95 131.19 191.46 130.67 189.66 130.83 C 189.5 129.78 188.96 128.9 188.14 128.36 C 187.19 127.74 185.52 127.34 182.81 128.63 C 182.29 127.77 181.6 127.37 181.05 127.18 C 180.17 126.88 179.13 126.93 177.87 127.31 C 175.33 128.07 173.92 128.44 171.29 128.63 C 170.76 128.52 168.22 127.9 165.66 125.9 C 167.02 126.01 168.42 126.07 169.84 126.07 C 174.11 126.07 178.46 125.48 182.41 124.37 C 182.84 124.25 183.27 124.12 183.68 123.99 C 185.49 125.07 187.7 125.61 190.29 125.61 C 191.54 125.61 192.88 125.48 194.3 125.23 C 197.13 124.72 199.39 123.86 200.09 123.58 C 201.52 123.68 202.99 124.48 204.41 125.26 C 205.35 125.77 206.24 126.26 207.14 126.57 C 207.7 126.76 208.26 126.86 208.81 126.86 C 209.62 126.86 210.4 126.64 211.05 126.23 C 211.85 125.72 212.43 124.93 212.73 123.96 C 215.5 124.51 217.71 124.01 218.88 122.53 C 219.54 121.7 219.77 120.66 219.58 119.58 C 221.6 119.55 223.15 118.82 223.86 117.53 C 224.41 116.52 224.36 115.33 223.76 114.23 C 225.31 113.12 226.3 111.8 226.53 110.52 C 226.7 109.58 226.46 108.67 225.84 107.89 C 224.52 106.25 222.19 106.1 219.62 107.44 C 219 106.55 218.1 106.02 217.08 105.97 C 215.65 105.9 214.24 106.79 213.19 108.38 C 212.22 107.81 211.14 107.65 210.15 107.97 C 209.85 108.07 209.54 108.21 209.22 108.43 C 209.12 108.19 209 107.95 208.85 107.72 C 210.23 106.91 211.28 105.86 211.86 104.71 C 212.29 104.15 212.71 103.56 213.13 102.96 C 214.65 102.76 215.97 102.45 217.19 102.03 C 218.19 102.77 220.75 104.35 224.36 104.35 C 224.89 104.35 225.44 104.32 226.01 104.24 C 226.53 104.17 226.9 103.69 226.83 103.17 C 226.76 102.65 226.28 102.28 225.76 102.35 C 222.93 102.73 220.68 101.87 219.35 101.14 C 220.26 100.7 221.14 100.2 222.05 99.65 L 229.88 99.65 C 231.9 99.65 233.42 99.05 234.27 97.92 C 234.67 97.39 235.06 96.54 234.95 95.31 C 237.38 94.97 239.16 93.82 239.81 92.13 C 240.19 91.15 240.11 90.11 239.63 89.19 C 241.38 88.26 242.5 86.81 242.56 85.29 C 242.59 84.31 242.18 83.44 241.39 82.8 C 242.36 81.33 242.84 79.76 242.7 78.43 C 242.59 77.4 242.12 76.53 241.32 75.91 C 240.6 75.34 239.75 75.1 238.87 75.21 C 237.49 75.38 236.29 76.34 235.47 77.21 C 234.7 76.62 233.77 76.39 232.85 76.61 C 231.47 76.93 230.4 78.19 229.87 80.05 C 228.91 79.82 227.93 79.98 227.12 80.52 C 226.22 81.13 224.85 82.68 225.19 86.46 C 224.43 86.55 223.76 86.83 223.2 87.28 C 222.29 88.02 221.75 89.17 221.62 90.62 C 221.53 91.7 221.55 92.7 221.57 93.65 C 221.61 95.3 221.63 96.73 221.04 98.03 C 218.9 99.35 217 100.27 214.52 100.8 C 216.79 97.05 218.73 92.75 220.15 88.42 C 220.15 88.42 220.15 88.42 220.15 88.41 C 220.16 88.4 220.16 88.39 220.16 88.37 C 220.31 87.93 220.45 87.49 220.58 87.05 C 222.34 81.79 225.52 76.34 227.61 73.55 C 228.35 74.07 229.13 74.33 229.95 74.33 C 230.02 74.33 230.09 74.33 230.16 74.33 C 232.13 74.22 233.46 72.59 233.51 72.52 C 233.64 72.37 233.71 72.18 233.72 71.98 L 233.76 71.26 L 234.06 70.96 C 234.74 70.29 235.08 69.37 235.02 68.38 C 234.98 67.74 234.77 67.12 234.43 66.57 L 234.84 66.16 C 235.21 65.79 235.21 65.18 234.84 64.81 C 234.47 64.44 233.86 64.44 233.49 64.81 L 233.08 65.22 C 232.53 64.88 231.91 64.67 231.27 64.64 C 230.28 64.58 229.36 64.91 228.69 65.59 L 228.33 65.94 L 227.75 65.93 C 227.53 65.92 227.3 65.99 227.13 66.14 C 227.06 66.19 225.43 67.53 225.33 69.49 C 225.27 70.45 225.58 71.36 226.23 72.22 C 225.16 73.61 223.81 75.71 222.48 78.13 C 222.65 76.74 222.73 75.38 222.73 74.08 C 222.73 71.63 222.59 69.27 222.31 66.97 C 223.92 64.26 226.44 62.66 228.3 61.49 C 228.49 61.37 228.67 61.26 228.84 61.15 C 229.33 61.1 230.05 61.3 230.82 61.51 C 231.49 61.7 232.25 61.91 233.07 62.02 C 233.31 62.06 233.53 62.07 233.74 62.07 C 234.75 62.07 235.44 61.72 235.86 61.4 C 236.41 60.97 236.8 60.37 237.03 59.64 C 238.44 59.63 239.6 59.08 240.29 58.09 C 240.88 57.24 241.03 56.16 240.72 55.09 C 241.7 54.48 242.43 53.55 242.71 52.53 Z M 231.52 101.67 C 231.02 101.8 230.72 102.33 230.86 102.83 C 230.88 102.91 231.02 103.45 231.09 104.29 C 229.31 104.83 227.9 105.89 227.83 105.94 C 227.42 106.25 227.33 106.85 227.65 107.27 C 227.84 107.52 228.12 107.65 228.41 107.65 C 228.61 107.65 228.81 107.58 228.98 107.46 C 228.99 107.45 229.91 106.77 231.11 106.3 C 230.93 108.59 230.05 111.64 227.09 114.25 C 226.71 114.58 226.47 114.99 226.57 115.6 C 226.72 116.49 226.92 119.98 222.21 121.55 C 221.71 121.72 221.44 122.26 221.6 122.76 C 221.74 123.16 222.11 123.41 222.51 123.41 C 222.61 123.41 222.71 123.39 222.81 123.36 C 226.4 122.16 227.73 119.96 228.22 118.32 C 228.56 117.19 228.54 116.17 228.48 115.56 C 234.71 109.95 232.78 102.64 232.69 102.33 C 232.55 101.82 232.03 101.53 231.52 101.67 Z M 161.21 120.19 C 161.37 120.54 161.72 120.75 162.08 120.75 C 162.21 120.75 162.34 120.73 162.47 120.67 C 162.95 120.46 163.17 119.89 162.95 119.41 C 160.65 114.22 157.02 111.11 153.18 107.81 C 152.51 107.23 151.81 106.63 151.12 106.02 C 151.27 104.57 151.5 103.2 151.74 101.84 C 154.5 104.06 157.61 107.55 159.02 109.28 C 159.21 109.51 159.48 109.63 159.76 109.63 C 159.97 109.63 160.18 109.56 160.36 109.42 C 160.77 109.09 160.83 108.49 160.5 108.08 C 158.9 106.12 155.2 101.99 152.11 99.72 C 152.76 95.71 153.1 91.43 150.92 85.83 C 150.73 85.34 150.17 85.1 149.68 85.29 C 149.19 85.48 148.95 86.03 149.14 86.52 C 151.47 92.48 150.72 96.72 149.92 101.2 C 149.14 105.61 148.34 110.17 150.22 116.58 C 150.35 117 150.73 117.27 151.14 117.27 C 151.23 117.27 151.32 117.25 151.41 117.23 C 151.91 117.08 152.2 116.55 152.05 116.05 C 151.21 113.18 150.95 110.7 150.98 108.43 C 151.3 108.71 151.62 108.98 151.94 109.25 C 153.45 110.55 154.93 111.82 156.29 113.2 C 155.97 114.15 155.35 116.46 155.85 119.11 C 155.93 119.57 156.33 119.89 156.78 119.89 C 156.84 119.89 156.9 119.88 156.96 119.87 C 157.47 119.78 157.81 119.28 157.72 118.76 C 157.44 117.24 157.6 115.83 157.81 114.85 C 159.13 116.4 160.3 118.12 161.21 120.19 Z"/>
  </g>
</svg>