<svg xmlns="http://www.w3.org/2000/svg" viewBox="0 0 73 42" width="73" height="42">
	<g>
		<path d="M44.86,18.35c-0.3,0 -0.53,0.24 -0.53,0.53c0,0.3 0.24,0.53 0.53,0.53c0.3,0 0.54,-0.24 0.54,-0.53c0,-0.3 -0.24,-0.53 -0.54,-0.53z" />
		<path d="M72.07 27.5C71.07 26.73 68.43 24.82 67.75 24.89C69.17 25.82 70.99 27.25 71.79 27.91C71.92 28.02 72.14 28.26 72.06 28.54C71.98 28.78 71.72 28.73 71.56 28.59C67.44 24.96 65.1 24.32 62.39 23.59C62.1 23.51 61.21 23.25 60.42 23.03C59.65 22.81 58.94 22.42 58.35 21.88C57.64 21.23 56.83 20.57 55.9 20.05C54.15 19.06 52.22 18.57 51.11 18.99C54 19.3 55.79 20.31 57.56 21.84C57.79 22.04 57.68 22.32 57.21 22.24C56.75 22.16 56.51 21.91 56.34 21.76C55.6 21.06 53.9 19.87 50.96 19.97C50.55 19.99 50.37 19.97 49.85 19.76C48.58 19.26 46.81 18.97 46.21 19.34C47.59 19.48 48.76 19.77 50.05 20.41C50.26 20.52 50.45 20.67 50.82 20.65C52.77 20.56 54.11 21.07 54.91 21.54C55.21 21.71 55.45 21.88 55.65 22.04C55.86 22.21 55.78 22.55 55.52 22.62C54.18 22.95 52.05 22.7 50.54 22.14C50.92 22.78 52.67 23.26 54.12 23.26C54.89 23.26 55.61 23.16 56.15 22.93C56.39 22.83 56.66 22.81 56.92 22.86C57.83 23.05 59.82 23.49 60.71 23.81C60.93 23.89 61.03 24 61.03 24.15C61.03 24.27 60.93 24.43 60.66 24.5C59.74 24.72 57.26 25.17 54.04 24.59C51.6 24.16 50.02 23.29 49.41 22.67C49.05 22.32 48.49 21.47 49.27 20.79C48.41 20.63 47.81 22.02 48.94 23.15C49.65 23.86 51.34 24.79 53.92 25.25C55.12 25.47 56.22 25.54 57.18 25.54C57.6 25.54 57.99 25.53 58.36 25.51C58.69 25.48 58.86 25.89 58.61 26.11C57.44 27.14 55.79 27.79 54.17 27.79C51.11 27.79 48.72 25.36 46.6 23.21C46.43 23.04 45.94 22.48 45.65 22.22C45.46 22.03 45.5 21.69 45.76 21.53C46.41 21.12 46.69 20.94 46.8 20.4C46.31 20.78 45.85 20.97 45.38 21.02C45.07 21.06 44.45 21.09 43.8 20.7C43.2 20.33 42.58 20.1 41.46 19.74C41.23 19.67 41.24 19.34 41.48 19.29C41.77 19.22 42.05 19.18 42.29 19.16C42.58 19.13 42.88 19.2 43.13 19.36C43.3 19.47 43.48 19.6 43.63 19.74C43.7 19.44 43.55 19.16 43.35 18.97C43.19 18.81 43.15 18.56 43.25 18.36C43.58 17.63 44.04 17.02 44.99 16.84C45.8 16.68 46.48 17.01 47.13 17.33C48.07 17.78 48.61 17.86 49.75 17.9C51.04 17.95 52.81 18.03 54.49 18.73C56.17 19.42 57.14 20.12 57.99 20.74C58.97 21.45 59.82 22.07 61.4 22.49C61.99 22.65 62.63 22.78 63.31 22.93C65.97 23.49 69.29 24.19 72.2 26.87C72.35 27.01 72.44 27.17 72.44 27.35C72.44 27.55 72.26 27.64 72.07 27.5ZM72.65 26.38C69.6 23.57 66.19 22.85 63.45 22.27C62.78 22.13 62.14 22 61.57 21.85C60.11 21.46 59.31 20.87 58.38 20.2C57.5 19.56 56.5 18.83 54.75 18.11C52.95 17.37 51.12 17.3 49.78 17.24C48.62 17.18 48.23 17.12 47.43 16.73C46.71 16.38 45.9 15.98 44.87 16.18C43.59 16.43 43 17.27 42.61 18.15C42.52 18.34 42.35 18.48 42.14 18.5C41.47 18.58 40.39 18.78 39.77 19.31C39.6 19.45 39.58 19.72 39.83 19.86C40.18 20.05 40.66 20.2 41.22 20.37C41.96 20.6 42.81 20.85 43.44 21.26C44.27 21.79 45.17 22.71 46.13 23.68C47.17 24.74 48.36 25.95 49.67 26.87C50.73 27.61 51.77 28.09 52.8 28.31C53.07 28.37 53.15 28.7 52.94 28.87C52.7 29.07 52.45 29.3 52.21 29.55C52.11 29.66 51.96 29.74 51.8 29.75C51.15 29.82 50.43 30.12 50.54 30.87C50.75 30.71 50.93 30.59 51.14 30.53C51.3 30.48 51.46 30.62 51.44 30.79C51.42 30.98 51.47 31.2 51.62 31.37C51.98 30.72 52.71 29.99 52.87 29.84C53.38 29.33 53.96 28.93 54.35 28.68C54.58 28.53 54.84 28.43 55.12 28.39C55.8 28.29 56.47 28.1 57.1 27.82C57.25 27.76 57.41 27.83 57.47 27.96C57.53 28.1 57.48 28.27 57.33 28.34C56.67 28.64 55.7 29.14 54.68 29.76C54.52 29.86 54.34 29.93 54.16 29.96C53.3 30.1 52.61 30.84 52.92 31.54C53.11 31.25 53.28 31.06 53.45 30.93C53.62 30.82 53.84 30.94 53.83 31.14C53.82 31.42 53.93 31.65 54.11 31.84C54.34 30.84 54.82 30.46 54.98 30.36C56.29 29.56 57.6 28.92 58.16 28.72C58.33 28.65 58.43 28.45 58.33 28.23L58.09 27.71C58.01 27.53 58.07 27.32 58.23 27.22C58.84 26.82 59.38 26.35 59.82 25.82C60.16 25.4 60.39 25.26 60.81 25.15C61.18 25.05 61.45 24.81 61.6 24.51C61.76 24.22 61.96 24.16 62.21 24.23C64.95 24.98 67.11 25.56 71.12 29.09C71.42 29.36 71.69 29.43 71.89 29.43C72.2 29.43 72.44 29.25 72.57 29.04C72.67 28.87 72.71 28.7 72.74 28.53C72.75 28.39 72.81 28.26 72.89 28.15C72.97 28.04 73.04 27.89 73.08 27.72C73.18 27.19 73.03 26.73 72.65 26.38Z" />
		<path d="M3.07 1.37L3.07 5.53L6.54 5.53L6.54 6.23L3.07 6.23L3.07 9.28C3.07 9.51 3.1 9.69 3.17 9.82C3.23 9.96 3.31 10.06 3.42 10.13C3.53 10.21 3.65 10.25 3.8 10.28C3.94 10.3 4.09 10.31 4.25 10.31L4.73 10.31L4.73 10.92L0.26 10.92L0.26 10.31L0.44 10.31C0.6 10.31 0.75 10.3 0.89 10.28C1.04 10.26 1.16 10.22 1.27 10.15C1.38 10.09 1.46 9.99 1.53 9.86C1.59 9.73 1.62 9.56 1.62 9.35L1.62 2.24C1.62 2.03 1.59 1.86 1.53 1.73C1.46 1.6 1.38 1.5 1.27 1.43C1.16 1.36 1.04 1.31 0.89 1.29C0.75 1.27 0.6 1.26 0.44 1.26L0.26 1.26L0.26 0.66L7.5 0.66L7.57 3.17L6.83 3.17L6.76 2.55C6.74 2.39 6.7 2.24 6.64 2.09C6.59 1.95 6.51 1.83 6.4 1.72C6.3 1.62 6.16 1.53 6.01 1.47C5.85 1.41 5.65 1.37 5.43 1.37L3.07 1.37ZM10.3 8.83C10.3 9.28 10.39 9.62 10.58 9.84C10.77 10.06 11.07 10.17 11.46 10.17C11.75 10.17 12.02 10.13 12.25 10.03C12.49 9.94 12.69 9.81 12.86 9.63C13.02 9.46 13.15 9.25 13.24 9C13.33 8.75 13.37 8.48 13.37 8.17L13.37 7.01L12.45 7.05C12.05 7.07 11.71 7.12 11.43 7.2C11.16 7.28 10.94 7.4 10.77 7.55C10.6 7.69 10.48 7.87 10.41 8.09C10.34 8.31 10.3 8.55 10.3 8.83ZM12.04 3.79C11.76 3.79 11.54 3.83 11.37 3.9C11.2 3.98 11.07 4.09 10.97 4.23C10.87 4.37 10.81 4.54 10.78 4.73C10.74 4.92 10.73 5.13 10.73 5.35C10.33 5.35 10.03 5.29 9.82 5.15C9.61 5.01 9.51 4.78 9.51 4.45C9.51 4.2 9.57 3.99 9.71 3.82C9.85 3.64 10.03 3.5 10.27 3.39C10.5 3.28 10.78 3.2 11.09 3.15C11.4 3.1 11.74 3.07 12.1 3.07C12.53 3.07 12.92 3.12 13.25 3.2C13.57 3.29 13.85 3.43 14.07 3.63C14.29 3.82 14.45 4.08 14.56 4.4C14.67 4.71 14.73 5.1 14.73 5.56L14.73 9.28C14.73 9.48 14.74 9.65 14.78 9.78C14.81 9.91 14.86 10.02 14.93 10.1C15 10.18 15.09 10.23 15.21 10.27C15.32 10.3 15.46 10.31 15.62 10.31L15.66 10.31L15.66 10.92L13.72 10.92L13.49 9.68L13.37 9.68C13.22 9.88 13.08 10.07 12.94 10.24C12.8 10.41 12.64 10.55 12.47 10.67C12.31 10.79 12.11 10.89 11.9 10.96C11.69 11.02 11.43 11.06 11.13 11.06C10.82 11.06 10.52 11.01 10.25 10.92C9.97 10.83 9.74 10.69 9.54 10.5C9.34 10.31 9.18 10.07 9.07 9.78C8.96 9.5 8.9 9.16 8.9 8.76C8.9 8 9.17 7.44 9.72 7.07C10.26 6.7 11.08 6.49 12.18 6.46L13.37 6.42L13.37 5.56C13.37 5.3 13.36 5.06 13.33 4.85C13.3 4.63 13.24 4.44 13.15 4.28C13.05 4.13 12.92 4.01 12.74 3.92C12.57 3.83 12.33 3.79 12.04 3.79ZM20.54 10.31L20.54 10.92L16.68 10.92L16.68 10.31L16.87 10.31C17.03 10.31 17.18 10.3 17.32 10.28C17.45 10.25 17.57 10.21 17.67 10.13C17.77 10.06 17.84 9.96 17.89 9.82C17.95 9.69 17.98 9.51 17.98 9.28L17.98 4.8C17.98 4.59 17.95 4.42 17.89 4.29C17.84 4.16 17.76 4.06 17.66 3.99C17.56 3.92 17.44 3.88 17.31 3.85C17.17 3.83 17.02 3.82 16.87 3.82L16.82 3.82L16.82 3.21L19.08 3.21L19.27 4.38L19.34 4.38C19.48 4.11 19.63 3.89 19.79 3.72C19.95 3.55 20.12 3.42 20.3 3.32C20.48 3.23 20.67 3.16 20.87 3.13C21.07 3.09 21.28 3.07 21.5 3.07C21.74 3.07 21.96 3.1 22.17 3.14C22.38 3.19 22.58 3.26 22.76 3.37C22.94 3.47 23.1 3.61 23.24 3.77C23.38 3.94 23.5 4.14 23.59 4.38L23.71 4.38C23.85 4.11 24.01 3.89 24.18 3.72C24.35 3.55 24.52 3.42 24.71 3.32C24.9 3.23 25.1 3.16 25.31 3.13C25.52 3.09 25.73 3.07 25.96 3.07C26.32 3.07 26.65 3.13 26.94 3.24C27.23 3.35 27.48 3.52 27.68 3.74C27.88 3.97 28.03 4.26 28.14 4.62C28.25 4.97 28.3 5.4 28.3 5.89L28.3 9.28C28.3 9.51 28.33 9.69 28.39 9.82C28.44 9.96 28.52 10.06 28.62 10.13C28.72 10.21 28.83 10.25 28.97 10.28C29.11 10.3 29.25 10.31 29.41 10.31L29.45 10.31L29.45 10.92L26.96 10.92L26.96 5.96C26.96 5.64 26.93 5.37 26.88 5.12C26.82 4.88 26.73 4.67 26.61 4.5C26.5 4.34 26.34 4.21 26.15 4.12C25.96 4.04 25.72 3.99 25.45 3.99C25.15 3.99 24.9 4.05 24.69 4.16C24.49 4.28 24.32 4.43 24.2 4.63C24.07 4.83 23.98 5.05 23.93 5.31C23.88 5.57 23.85 5.84 23.85 6.13L23.85 9.28C23.85 9.51 23.88 9.69 23.93 9.82C23.99 9.96 24.07 10.06 24.16 10.13C24.26 10.21 24.38 10.25 24.52 10.28C24.65 10.3 24.8 10.31 24.96 10.31L25 10.31L25 10.92L22.5 10.92L22.5 5.96C22.5 5.64 22.47 5.37 22.42 5.12C22.37 4.88 22.28 4.67 22.16 4.5C22.04 4.34 21.89 4.21 21.69 4.12C21.5 4.04 21.27 3.99 20.99 3.99C20.68 3.99 20.42 4.06 20.2 4.18C19.99 4.31 19.82 4.48 19.69 4.69C19.56 4.91 19.46 5.16 19.41 5.44C19.35 5.72 19.32 6.01 19.32 6.32L19.32 9.35C19.32 9.56 19.35 9.73 19.42 9.86C19.48 9.99 19.57 10.09 19.67 10.15C19.78 10.22 19.91 10.26 20.05 10.28C20.19 10.3 20.34 10.31 20.5 10.31L20.54 10.31ZM31.35 0.88C31.35 0.72 31.37 0.57 31.41 0.46C31.45 0.35 31.51 0.26 31.59 0.19C31.66 0.12 31.75 0.07 31.85 0.04C31.94 0.01 32.05 0 32.17 0C32.28 0 32.39 0.01 32.48 0.04C32.58 0.07 32.67 0.12 32.74 0.19C32.81 0.26 32.87 0.35 32.92 0.46C32.96 0.57 32.98 0.72 32.98 0.88C32.98 1.05 32.96 1.19 32.92 1.3C32.87 1.42 32.81 1.51 32.74 1.58C32.67 1.65 32.58 1.7 32.48 1.73C32.39 1.76 32.28 1.78 32.17 1.78C32.05 1.78 31.94 1.76 31.85 1.73C31.75 1.7 31.66 1.65 31.59 1.58C31.51 1.51 31.45 1.42 31.41 1.3C31.37 1.19 31.35 1.05 31.35 0.88ZM30.37 10.31C30.53 10.31 30.68 10.3 30.83 10.28C30.97 10.26 31.09 10.22 31.2 10.15C31.31 10.09 31.39 9.99 31.46 9.86C31.52 9.73 31.55 9.56 31.55 9.35L31.55 4.8C31.55 4.59 31.52 4.42 31.46 4.29C31.39 4.16 31.31 4.06 31.2 3.99C31.09 3.92 30.97 3.87 30.83 3.85C30.68 3.83 30.53 3.82 30.37 3.82L30.33 3.82L30.33 3.21L32.9 3.21L32.9 9.28C32.9 9.51 32.93 9.69 32.99 9.82C33.06 9.96 33.14 10.06 33.25 10.13C33.35 10.21 33.48 10.25 33.62 10.28C33.77 10.3 33.92 10.31 34.08 10.31L34.27 10.31L34.27 10.92L30.18 10.92L30.18 10.31L30.37 10.31ZM34.82 10.31C34.98 10.31 35.14 10.3 35.28 10.28C35.42 10.25 35.55 10.21 35.65 10.13C35.76 10.06 35.84 9.96 35.9 9.82C35.97 9.69 36 9.51 36 9.28L36 1.58C36 1.37 35.97 1.2 35.9 1.07C35.84 0.94 35.76 0.84 35.65 0.77C35.54 0.7 35.42 0.66 35.27 0.63C35.13 0.61 34.98 0.6 34.82 0.6L34.64 0.6L34.64 0L37.35 0L37.35 9.28C37.35 9.51 37.38 9.69 37.44 9.82C37.5 9.96 37.59 10.06 37.7 10.13C37.8 10.21 37.93 10.25 38.07 10.28C38.21 10.3 38.37 10.31 38.53 10.31L38.71 10.31L38.71 10.92L34.64 10.92L34.64 10.31L34.82 10.31ZM47.02 3.21L47.02 3.82L46.98 3.82C46.84 3.82 46.72 3.83 46.62 3.86C46.52 3.89 46.42 3.95 46.34 4.03C46.26 4.12 46.19 4.23 46.12 4.38C46.05 4.52 45.97 4.71 45.88 4.94L43.7 10.97C43.53 11.44 43.37 11.84 43.23 12.19C43.08 12.54 42.92 12.84 42.75 13.1C42.59 13.35 42.41 13.55 42.22 13.72C42.02 13.88 41.8 14.01 41.55 14.11C41.31 14.21 41.02 14.28 40.7 14.31C40.38 14.35 40 14.37 39.58 14.37L39.45 14.37L39.45 13.69C39.94 13.69 40.35 13.62 40.71 13.47C41.06 13.33 41.36 13.13 41.62 12.87C41.87 12.62 42.08 12.32 42.25 11.98C42.42 11.64 42.57 11.26 42.68 10.86L40.03 4.58C39.96 4.43 39.9 4.31 39.84 4.21C39.77 4.12 39.71 4.04 39.63 3.98C39.55 3.92 39.46 3.87 39.36 3.85C39.26 3.83 39.14 3.82 39 3.82L38.96 3.82L38.96 3.21L42.41 3.21L42.41 3.82L42.37 3.82C42.08 3.82 41.86 3.87 41.72 3.98C41.58 4.1 41.51 4.27 41.51 4.51C41.51 4.59 41.51 4.67 41.53 4.75C41.55 4.83 41.58 4.93 41.62 5.04L42.67 7.6C42.74 7.76 42.8 7.94 42.88 8.13C42.95 8.33 43.02 8.52 43.08 8.71C43.14 8.9 43.2 9.08 43.25 9.25C43.3 9.42 43.34 9.56 43.36 9.68L43.4 9.68C43.45 9.47 43.52 9.22 43.61 8.91C43.71 8.61 43.81 8.29 43.93 7.94L44.9 5.14C44.94 5.02 44.97 4.91 44.99 4.81C45.01 4.7 45.02 4.6 45.02 4.52C45.02 4.28 44.94 4.1 44.79 3.98C44.63 3.87 44.39 3.82 44.07 3.82L44.03 3.82L44.03 3.21L47.02 3.21ZM4.83 24.53C4.83 24.75 4.86 24.93 4.92 25.07C4.98 25.2 5.07 25.31 5.17 25.38C5.28 25.45 5.4 25.5 5.55 25.52C5.69 25.55 5.85 25.56 6.01 25.56L6.34 25.56L6.34 26.16L1.87 26.16L1.87 25.56L2.2 25.56C2.35 25.56 2.51 25.55 2.65 25.53C2.79 25.5 2.92 25.46 3.02 25.4C3.13 25.33 3.22 25.23 3.28 25.1C3.34 24.98 3.37 24.81 3.37 24.6L3.37 16.62L2 16.62C1.79 16.62 1.61 16.65 1.47 16.71C1.33 16.78 1.21 16.86 1.12 16.97C1.03 17.08 0.96 17.2 0.92 17.34C0.87 17.49 0.84 17.64 0.82 17.8L0.74 18.41L0 18.41L0.07 15.9L8.16 15.9L8.23 18.41L7.49 18.41L7.42 17.8C7.4 17.64 7.36 17.49 7.32 17.34C7.27 17.2 7.2 17.08 7.11 16.97C7.03 16.86 6.91 16.78 6.76 16.71C6.62 16.65 6.44 16.62 6.22 16.62L4.83 16.62L4.83 24.53ZM13.14 26.16L9 26.16L9 25.56L9.04 25.56C9.2 25.56 9.35 25.55 9.5 25.52C9.64 25.5 9.76 25.45 9.87 25.38C9.97 25.31 10.06 25.2 10.12 25.07C10.18 24.93 10.22 24.75 10.22 24.53L10.22 20.04C10.22 19.83 10.18 19.66 10.12 19.53C10.06 19.41 9.97 19.31 9.86 19.24C9.76 19.16 9.63 19.12 9.49 19.09C9.35 19.07 9.2 19.06 9.04 19.06L9 19.06L9 18.46L11.2 18.46L11.48 19.88L11.55 19.88C11.64 19.67 11.74 19.46 11.84 19.27C11.93 19.08 12.05 18.92 12.2 18.78C12.34 18.63 12.52 18.52 12.73 18.44C12.94 18.36 13.2 18.32 13.52 18.32C14.04 18.32 14.43 18.41 14.69 18.59C14.94 18.77 15.07 19.03 15.07 19.36C15.07 19.51 15.05 19.65 15 19.78C14.95 19.9 14.87 20.01 14.76 20.1C14.65 20.19 14.52 20.26 14.35 20.31C14.18 20.36 13.97 20.39 13.73 20.39C13.73 19.99 13.67 19.7 13.56 19.53C13.45 19.35 13.25 19.26 12.97 19.26C12.79 19.26 12.64 19.31 12.5 19.41C12.36 19.51 12.23 19.65 12.13 19.81C12.02 19.98 11.93 20.17 11.86 20.39C11.79 20.6 11.73 20.82 11.69 21.05C11.64 21.28 11.61 21.5 11.59 21.73C11.57 21.95 11.56 22.15 11.56 22.34L11.56 24.6C11.56 24.81 11.59 24.98 11.66 25.1C11.72 25.23 11.81 25.33 11.91 25.4C12.02 25.46 12.15 25.5 12.29 25.53C12.43 25.55 12.58 25.56 12.74 25.56L13.14 25.56L13.14 26.16ZM19.24 19.09C18.71 19.09 18.3 19.3 18.01 19.74C17.72 20.17 17.55 20.8 17.5 21.63L20.8 21.63C20.8 21.26 20.77 20.91 20.72 20.6C20.66 20.28 20.57 20.01 20.45 19.79C20.33 19.57 20.17 19.39 19.97 19.27C19.77 19.15 19.53 19.09 19.24 19.09ZM19.41 26.3C18.89 26.3 18.43 26.21 18.01 26.04C17.6 25.86 17.25 25.61 16.97 25.27C16.68 24.93 16.46 24.52 16.31 24.03C16.16 23.54 16.08 22.99 16.08 22.36C16.08 21.02 16.36 20.01 16.91 19.33C17.46 18.65 18.25 18.32 19.27 18.32C19.73 18.32 20.15 18.39 20.51 18.53C20.88 18.68 21.2 18.89 21.46 19.18C21.71 19.47 21.91 19.83 22.05 20.26C22.19 20.68 22.26 21.18 22.26 21.75L22.26 22.41L17.47 22.41C17.48 22.93 17.53 23.38 17.63 23.76C17.72 24.13 17.86 24.44 18.04 24.69C18.22 24.93 18.44 25.11 18.71 25.22C18.97 25.34 19.27 25.4 19.61 25.4C19.86 25.4 20.09 25.37 20.3 25.31C20.51 25.25 20.71 25.18 20.88 25.09C21.05 24.99 21.21 24.89 21.34 24.77C21.47 24.65 21.58 24.52 21.67 24.39C21.73 24.42 21.79 24.48 21.85 24.57C21.91 24.66 21.94 24.76 21.94 24.88C21.94 25.03 21.89 25.18 21.79 25.35C21.68 25.52 21.53 25.67 21.31 25.81C21.1 25.95 20.84 26.07 20.53 26.16C20.21 26.25 19.84 26.3 19.41 26.3ZM26.93 19.09C26.39 19.09 25.98 19.3 25.7 19.74C25.41 20.17 25.24 20.8 25.19 21.63L28.49 21.63C28.49 21.26 28.46 20.91 28.41 20.6C28.35 20.28 28.26 20.01 28.14 19.79C28.02 19.57 27.86 19.39 27.66 19.27C27.46 19.15 27.22 19.09 26.93 19.09ZM27.1 26.3C26.58 26.3 26.12 26.21 25.7 26.04C25.29 25.86 24.94 25.61 24.65 25.27C24.37 24.93 24.15 24.52 24 24.03C23.85 23.54 23.77 22.99 23.77 22.36C23.77 21.02 24.05 20.01 24.6 19.33C25.15 18.65 25.94 18.32 26.96 18.32C27.42 18.32 27.83 18.39 28.2 18.53C28.57 18.68 28.89 18.89 29.14 19.18C29.4 19.47 29.6 19.83 29.74 20.26C29.87 20.68 29.94 21.18 29.94 21.75L29.94 22.41L25.16 22.41C25.17 22.93 25.22 23.38 25.32 23.76C25.41 24.13 25.55 24.44 25.73 24.69C25.91 24.93 26.13 25.11 26.39 25.22C26.66 25.34 26.96 25.4 27.3 25.4C27.55 25.4 27.78 25.37 27.99 25.31C28.2 25.25 28.4 25.18 28.57 25.09C28.74 24.99 28.9 24.89 29.03 24.77C29.16 24.65 29.27 24.52 29.36 24.39C29.42 24.42 29.48 24.48 29.54 24.57C29.6 24.66 29.63 24.76 29.63 24.88C29.63 25.03 29.58 25.18 29.47 25.35C29.37 25.52 29.21 25.67 29 25.81C28.79 25.95 28.53 26.07 28.21 26.16C27.9 26.25 27.53 26.3 27.1 26.3ZM5.14 31C5.63 31 6.06 31.04 6.42 31.12C6.79 31.2 7.09 31.32 7.33 31.46C7.57 31.61 7.75 31.78 7.87 31.97C7.99 32.17 8.05 32.38 8.05 32.61C8.05 32.77 8.02 32.9 7.95 33.03C7.89 33.15 7.8 33.26 7.69 33.35C7.58 33.43 7.44 33.5 7.29 33.54C7.14 33.59 6.98 33.61 6.8 33.61C6.8 33.39 6.77 33.17 6.71 32.95C6.65 32.73 6.56 32.53 6.42 32.36C6.29 32.18 6.12 32.04 5.9 31.93C5.69 31.82 5.43 31.76 5.11 31.76C4.57 31.76 4.11 31.86 3.73 32.06C3.35 32.26 3.04 32.55 2.81 32.93C2.57 33.31 2.39 33.78 2.29 34.34C2.18 34.9 2.12 35.54 2.12 36.26C2.12 36.9 2.18 37.49 2.29 38.02C2.41 38.55 2.58 39.01 2.83 39.39C3.07 39.77 3.38 40.07 3.76 40.28C4.13 40.49 4.59 40.6 5.11 40.6C5.46 40.6 5.78 40.56 6.04 40.49C6.31 40.43 6.55 40.34 6.76 40.22C6.96 40.11 7.14 39.98 7.3 39.83C7.46 39.69 7.6 39.53 7.72 39.38C7.8 39.43 7.86 39.5 7.91 39.59C7.96 39.67 7.99 39.79 7.99 39.94C7.99 40.12 7.93 40.31 7.8 40.49C7.68 40.68 7.49 40.86 7.24 41.01C6.99 41.16 6.67 41.29 6.28 41.39C5.89 41.49 5.43 41.54 4.9 41.54C4.18 41.54 3.55 41.42 3.01 41.16C2.47 40.91 2.01 40.55 1.64 40.09C1.28 39.63 1 39.07 0.81 38.42C0.63 37.77 0.53 37.05 0.53 36.26C0.53 35.48 0.63 34.77 0.83 34.13C1.02 33.48 1.32 32.93 1.7 32.46C2.09 32 2.57 31.64 3.14 31.38C3.72 31.13 4.38 31 5.14 31ZM12.66 40.8L12.66 41.4L8.79 41.4L8.79 40.8L8.9 40.8C9.07 40.8 9.22 40.79 9.36 40.76C9.51 40.74 9.63 40.69 9.73 40.62C9.84 40.55 9.92 40.44 9.99 40.31C10.05 40.17 10.08 39.99 10.08 39.77L10.08 32.06C10.08 31.85 10.05 31.68 9.99 31.56C9.92 31.43 9.84 31.33 9.73 31.26C9.62 31.19 9.5 31.14 9.36 31.12C9.21 31.1 9.06 31.09 8.9 31.09L8.79 31.09L8.79 30.49L11.44 30.49L11.44 33.64C11.44 33.77 11.43 33.91 11.43 34.05C11.42 34.2 11.42 34.33 11.41 34.45C11.4 34.59 11.39 34.73 11.38 34.86L11.45 34.86C11.88 33.99 12.58 33.56 13.56 33.56C13.97 33.56 14.33 33.61 14.65 33.72C14.96 33.83 15.23 34 15.44 34.23C15.66 34.46 15.82 34.75 15.93 35.1C16.05 35.46 16.1 35.88 16.1 36.37L16.1 39.77C16.1 39.99 16.13 40.17 16.19 40.31C16.24 40.44 16.32 40.55 16.42 40.62C16.52 40.69 16.63 40.74 16.77 40.76C16.9 40.79 17.05 40.8 17.21 40.8L17.25 40.8L17.25 41.4L14.76 41.4L14.76 36.44C14.76 36.13 14.73 35.85 14.67 35.61C14.61 35.36 14.52 35.16 14.4 34.99C14.28 34.82 14.11 34.7 13.91 34.61C13.71 34.52 13.47 34.48 13.18 34.48C12.88 34.48 12.62 34.53 12.4 34.64C12.18 34.75 12 34.91 11.86 35.11C11.72 35.32 11.61 35.56 11.54 35.85C11.47 36.14 11.44 36.46 11.44 36.81L11.44 39.84C11.44 40.05 11.47 40.22 11.53 40.35C11.59 40.48 11.68 40.57 11.79 40.64C11.89 40.7 12.02 40.75 12.16 40.77C12.3 40.79 12.46 40.8 12.61 40.8L12.66 40.8ZM19.76 39.32C19.76 39.77 19.86 40.1 20.05 40.33C20.24 40.55 20.53 40.66 20.93 40.66C21.22 40.66 21.48 40.61 21.72 40.52C21.95 40.42 22.16 40.29 22.32 40.12C22.49 39.95 22.62 39.74 22.7 39.49C22.79 39.24 22.84 38.96 22.84 38.66L22.84 37.49L21.92 37.54C21.51 37.56 21.17 37.61 20.9 37.69C20.62 37.77 20.4 37.88 20.23 38.03C20.07 38.18 19.95 38.36 19.87 38.58C19.8 38.79 19.76 39.04 19.76 39.32ZM21.5 34.27C21.23 34.27 21 34.31 20.83 34.39C20.66 34.47 20.53 34.58 20.43 34.72C20.34 34.86 20.27 35.02 20.24 35.21C20.21 35.41 20.19 35.61 20.19 35.84C19.79 35.84 19.49 35.77 19.28 35.63C19.08 35.5 18.97 35.27 18.97 34.93C18.97 34.69 19.04 34.48 19.17 34.3C19.31 34.13 19.5 33.99 19.73 33.88C19.97 33.77 20.24 33.69 20.56 33.64C20.87 33.58 21.2 33.56 21.56 33.56C22 33.56 22.38 33.6 22.71 33.69C23.04 33.77 23.31 33.92 23.53 34.11C23.75 34.31 23.92 34.57 24.03 34.88C24.14 35.2 24.19 35.58 24.19 36.04L24.19 39.77C24.19 39.97 24.21 40.13 24.24 40.27C24.27 40.4 24.32 40.5 24.39 40.58C24.46 40.66 24.56 40.72 24.67 40.75C24.79 40.78 24.92 40.8 25.08 40.8L25.12 40.8L25.12 41.4L23.18 41.4L22.96 40.17L22.84 40.17C22.69 40.37 22.54 40.55 22.4 40.72C22.26 40.89 22.11 41.04 21.94 41.16C21.77 41.28 21.58 41.37 21.37 41.44C21.15 41.51 20.9 41.54 20.6 41.54C20.28 41.54 19.99 41.5 19.71 41.41C19.44 41.31 19.2 41.17 19 40.99C18.8 40.8 18.65 40.56 18.54 40.27C18.42 39.98 18.37 39.64 18.37 39.25C18.37 38.49 18.64 37.92 19.18 37.55C19.72 37.18 20.54 36.98 21.64 36.95L22.84 36.91L22.84 36.04C22.84 35.79 22.82 35.55 22.79 35.33C22.77 35.11 22.71 34.93 22.61 34.77C22.52 34.61 22.38 34.49 22.21 34.4C22.03 34.32 21.8 34.27 21.5 34.27ZM30.01 40.8L30.01 41.4L26.14 41.4L26.14 40.8L26.26 40.8C26.42 40.8 26.58 40.79 26.72 40.76C26.86 40.74 26.99 40.69 27.09 40.62C27.2 40.55 27.28 40.44 27.34 40.31C27.41 40.17 27.44 39.99 27.44 39.77L27.44 35.28C27.44 35.07 27.41 34.9 27.34 34.78C27.28 34.65 27.2 34.55 27.09 34.48C26.98 34.41 26.86 34.36 26.71 34.34C26.57 34.31 26.42 34.3 26.26 34.3L26.22 34.3L26.22 33.7L28.54 33.7L28.73 34.86L28.8 34.86C28.95 34.6 29.11 34.38 29.27 34.21C29.44 34.04 29.61 33.9 29.8 33.81C29.98 33.71 30.18 33.65 30.39 33.61C30.6 33.58 30.82 33.56 31.04 33.56C31.42 33.56 31.76 33.61 32.06 33.72C32.36 33.83 32.61 34 32.82 34.23C33.03 34.46 33.18 34.75 33.29 35.1C33.4 35.46 33.46 35.88 33.46 36.37L33.46 39.77C33.46 39.99 33.49 40.17 33.54 40.31C33.59 40.44 33.67 40.55 33.77 40.62C33.87 40.69 33.98 40.74 34.12 40.76C34.25 40.79 34.4 40.8 34.56 40.8L34.61 40.8L34.61 41.4L32.1 41.4L32.1 36.44C32.1 36.13 32.08 35.85 32.02 35.61C31.96 35.36 31.87 35.16 31.75 34.99C31.63 34.82 31.46 34.7 31.26 34.61C31.06 34.52 30.82 34.48 30.53 34.48C30.2 34.48 29.92 34.54 29.7 34.67C29.48 34.79 29.3 34.96 29.16 35.18C29.03 35.4 28.93 35.64 28.87 35.92C28.82 36.2 28.79 36.5 28.79 36.81L28.79 39.84C28.79 40.05 28.82 40.22 28.88 40.35C28.94 40.48 29.03 40.57 29.14 40.64C29.24 40.7 29.37 40.75 29.51 40.77C29.65 40.79 29.81 40.8 29.96 40.8L30.01 40.8ZM39.27 40.8L39.27 41.4L35.41 41.4L35.41 40.8L35.53 40.8C35.69 40.8 35.85 40.79 35.99 40.76C36.13 40.74 36.25 40.69 36.36 40.62C36.46 40.55 36.55 40.44 36.61 40.31C36.67 40.17 36.71 39.99 36.71 39.77L36.71 35.28C36.71 35.07 36.67 34.9 36.61 34.78C36.55 34.65 36.46 34.55 36.36 34.48C36.25 34.41 36.12 34.36 35.98 34.34C35.84 34.31 35.69 34.3 35.53 34.3L35.49 34.3L35.49 33.7L37.81 33.7L38 34.86L38.07 34.86C38.22 34.6 38.38 34.38 38.54 34.21C38.71 34.04 38.88 33.9 39.07 33.81C39.25 33.71 39.45 33.65 39.66 33.61C39.87 33.58 40.08 33.56 40.31 33.56C40.69 33.56 41.03 33.61 41.33 33.72C41.62 33.83 41.88 34 42.09 34.23C42.29 34.46 42.45 34.75 42.56 35.1C42.67 35.46 42.73 35.88 42.73 36.37L42.73 39.77C42.73 39.99 42.75 40.17 42.81 40.31C42.86 40.44 42.94 40.55 43.04 40.62C43.13 40.69 43.25 40.74 43.39 40.76C43.52 40.79 43.67 40.8 43.83 40.8L43.88 40.8L43.88 41.4L41.37 41.4L41.37 36.44C41.37 36.13 41.34 35.85 41.29 35.61C41.23 35.36 41.14 35.16 41.02 34.99C40.89 34.82 40.73 34.7 40.53 34.61C40.33 34.52 40.08 34.48 39.79 34.48C39.47 34.48 39.19 34.54 38.97 34.67C38.75 34.79 38.57 34.96 38.43 35.18C38.3 35.4 38.2 35.64 38.14 35.92C38.08 36.2 38.05 36.5 38.05 36.81L38.05 39.84C38.05 40.05 38.09 40.22 38.15 40.35C38.21 40.48 38.3 40.57 38.4 40.64C38.51 40.7 38.64 40.75 38.78 40.77C38.92 40.79 39.07 40.8 39.23 40.8L39.27 40.8ZM48.23 34.33C47.7 34.33 47.28 34.55 47 34.98C46.71 35.41 46.54 36.05 46.49 36.88L49.79 36.88C49.79 36.5 49.76 36.15 49.71 35.84C49.65 35.53 49.56 35.26 49.44 35.03C49.32 34.81 49.16 34.63 48.96 34.51C48.76 34.39 48.52 34.33 48.23 34.33ZM48.4 41.54C47.88 41.54 47.42 41.46 47 41.28C46.59 41.1 46.24 40.85 45.95 40.51C45.67 40.18 45.45 39.76 45.3 39.27C45.15 38.78 45.07 38.23 45.07 37.61C45.07 36.27 45.35 35.25 45.9 34.58C46.45 33.9 47.24 33.56 48.26 33.56C48.72 33.56 49.13 33.63 49.5 33.78C49.87 33.92 50.19 34.14 50.45 34.43C50.7 34.71 50.9 35.07 51.04 35.5C51.17 35.93 51.24 36.42 51.24 36.99L51.24 37.65L46.46 37.65C46.47 38.17 46.52 38.62 46.62 39C46.71 39.38 46.85 39.69 47.03 39.93C47.21 40.17 47.43 40.35 47.7 40.47C47.96 40.58 48.26 40.64 48.6 40.64C48.85 40.64 49.08 40.61 49.29 40.55C49.5 40.5 49.7 40.42 49.87 40.33C50.04 40.24 50.2 40.13 50.33 40.01C50.46 39.89 50.57 39.77 50.66 39.64C50.72 39.66 50.78 39.72 50.84 39.81C50.9 39.9 50.93 40 50.93 40.13C50.93 40.27 50.88 40.43 50.77 40.59C50.67 40.76 50.52 40.91 50.3 41.05C50.09 41.19 49.83 41.31 49.52 41.4C49.2 41.5 48.83 41.54 48.4 41.54ZM52.34 40.8C52.5 40.8 52.66 40.79 52.8 40.76C52.94 40.74 53.07 40.69 53.17 40.62C53.28 40.55 53.36 40.44 53.42 40.31C53.49 40.17 53.52 39.99 53.52 39.77L53.52 32.06C53.52 31.85 53.49 31.68 53.42 31.56C53.36 31.43 53.28 31.33 53.17 31.26C53.06 31.19 52.93 31.14 52.79 31.12C52.65 31.1 52.5 31.09 52.34 31.09L50.38 31.09L50.38 30.49L54.87 30.49L54.87 39.77C54.87 39.99 54.9 40.17 54.96 40.31C55.02 40.44 55.11 40.55 55.22 40.62C55.32 40.69 55.45 40.74 55.59 40.76C55.73 40.79 55.89 40.8 56.05 40.8L56.23 40.8L56.23 41.4L52.16 41.4L52.16 40.8L52.34 40.8Z" />
	</g>
</svg>
