<?xml version="1.0" encoding="UTF-8" standalone="no"?>
<svg
   xmlns:dc="http://purl.org/dc/elements/1.1/"
   xmlns:cc="http://creativecommons.org/ns#"
   xmlns:rdf="http://www.w3.org/1999/02/22-rdf-syntax-ns#"
   xmlns:svg="http://www.w3.org/2000/svg"
   xmlns="http://www.w3.org/2000/svg"
   viewBox="0 0 495.19793 178.36324"
   height="178.36324"
   width="495.19794"
   xml:space="preserve"
   id="svg29"
   version="1.1"><metadata
     id="metadata35"><rdf:RDF><cc:Work
         rdf:about=""><dc:format>image/svg+xml</dc:format><dc:type
           rdf:resource="http://purl.org/dc/dcmitype/StillImage" /><dc:title></dc:title></cc:Work></rdf:RDF></metadata><defs
     id="defs33"><clipPath
       id="clipPath45"
       clipPathUnits="userSpaceOnUse"><path
         id="path43"
         d="M 0,595.28 H 841.89 V 0 H 0 Z" /></clipPath></defs><g
     transform="matrix(1.3333333,0,0,-1.3333333,-302.86152,631.06922)"
     id="g37"><g
       id="g39"><g
         clip-path="url(#clipPath45)"
         id="g41"><g
           transform="translate(345.4707,350.3904)"
           id="g47"><path
             id="path49"
             style="fill:#ffffff;fill-opacity:1;fill-rule:nonzero;stroke:none"
             d="M 0,0 C 0,1.342 -0.286,2.402 -0.858,3.18 -1.431,3.958 -2.216,4.346 -3.213,4.346 -4.445,4.346 -5.37,3.8 -5.986,2.707 v -5.689 c 0.609,-1.085 1.541,-1.628 2.795,-1.628 0.975,0 1.751,0.386 2.327,1.16 C -0.288,-2.676 0,-1.526 0,0 m 2.036,-0.231 c 0,-1.812 -0.415,-3.272 -1.244,-4.379 -0.829,-1.108 -1.951,-1.662 -3.367,-1.662 -1.445,0 -2.582,0.459 -3.411,1.376 v -5.733 H -8.021 V 5.854 h 1.859 l 0.099,-1.321 c 0.829,1.028 1.98,1.541 3.455,1.541 1.43,0 2.562,-0.539 3.395,-1.617 0.832,-1.079 1.249,-2.579 1.249,-4.501 z" /></g><g
           transform="translate(352.9512,350.1594)"
           id="g51"><path
             id="path53"
             style="fill:#ffffff;fill-opacity:1;fill-rule:nonzero;stroke:none"
             d="m 0,0 c 0,-1.32 0.306,-2.38 0.919,-3.18 0.612,-0.799 1.432,-1.199 2.459,-1.199 1.035,0 1.856,0.405 2.465,1.215 0.609,0.811 0.913,1.946 0.913,3.406 0,1.306 -0.31,2.364 -0.93,3.175 C 5.207,4.227 4.383,4.632 3.356,4.632 2.351,4.632 1.541,4.232 0.924,3.433 0.308,2.633 0,1.489 0,0 m -2.046,0.242 c 0,1.166 0.229,2.215 0.687,3.147 0.459,0.931 1.097,1.651 1.915,2.156 0.818,0.507 1.751,0.76 2.8,0.76 1.621,0 2.933,-0.561 3.934,-1.684 C 8.291,3.499 8.792,2.006 8.792,0.143 V 0 C 8.792,-1.159 8.57,-2.199 8.126,-3.12 7.682,-4.04 7.048,-4.757 6.222,-5.271 5.397,-5.784 4.449,-6.041 3.378,-6.041 c -1.614,0 -2.921,0.562 -3.922,1.684 -1.002,1.122 -1.502,2.607 -1.502,4.456 z" /></g><g
           transform="translate(367.1665,346.0002)"
           id="g55"><path
             id="path57"
             style="fill:#ffffff;fill-opacity:1;fill-rule:nonzero;stroke:none"
             d="M 0,0 H 5.469 V 8.362 H 1.805 L 1.684,5.523 C 1.559,3.154 0.998,1.313 0,0 m -2.41,0 0.704,0.869 c 0.793,1.027 1.244,2.568 1.354,4.622 l 0.187,4.753 H 7.504 V 0 h 1.53 V -5.161 H 6.998 v 3.499 H -1.309 V -5.161 H -3.345 L -3.334,0 Z" /></g><g
           transform="translate(387.5103,356.2444)"
           id="g59"><path
             id="path61"
             style="fill:#ffffff;fill-opacity:1;fill-rule:nonzero;stroke:none"
             d="M 0,0 H 2.036 V -11.906 H 0 v 8.682 l -5.491,-8.682 H -7.526 V 0 h 2.035 v -8.693 z" /></g><g
           transform="translate(403.0127,354.5935)"
           id="g63"><path
             id="path65"
             style="fill:#ffffff;fill-opacity:1;fill-rule:nonzero;stroke:none"
             d="M 0,0 H -3.994 V -10.255 H -6.03 V 0 H -9.947 V 1.651 H 0 Z" /></g><g
           transform="translate(410.1523,354.7917)"
           id="g67"><path
             id="path69"
             style="fill:#ffffff;fill-opacity:1;fill-rule:nonzero;stroke:none"
             d="m 0,0 c -0.822,0 -1.511,-0.299 -2.069,-0.897 -0.557,-0.598 -0.902,-1.436 -1.034,-2.514 h 5.964 v 0.154 C 2.802,-2.223 2.523,-1.421 2.024,-0.853 1.525,-0.284 0.851,0 0,0 m 0.253,-10.673 c -1.614,0 -2.927,0.529 -3.939,1.59 -1.013,1.06 -1.519,2.477 -1.519,4.252 v 0.374 c 0,1.182 0.226,2.236 0.677,3.164 0.451,0.928 1.082,1.654 1.893,2.179 0.81,0.524 1.689,0.786 2.635,0.786 1.547,0 2.75,-0.509 3.609,-1.529 0.858,-1.019 1.287,-2.479 1.287,-4.379 v -0.847 h -8.065 c 0.029,-1.174 0.372,-2.123 1.029,-2.845 0.656,-0.722 1.491,-1.084 2.503,-1.084 0.719,0 1.327,0.147 1.826,0.44 0.499,0.294 0.936,0.683 1.31,1.167 L 4.742,-8.374 C 3.745,-9.907 2.248,-10.673 0.253,-10.673" /></g><g
           transform="translate(428.5151,356.2444)"
           id="g71"><path
             id="path73"
             style="fill:#ffffff;fill-opacity:1;fill-rule:nonzero;stroke:none"
             d="m 0,0 v -11.906 h -2.046 v 10.222 h -4.05 L -6.338,-6.14 c -0.132,-2.047 -0.475,-3.51 -1.029,-4.39 -0.553,-0.881 -1.432,-1.339 -2.635,-1.376 h -0.814 v 1.794 l 0.583,0.044 c 0.66,0.073 1.133,0.455 1.42,1.144 0.286,0.69 0.469,1.966 0.55,3.829 L -8.043,0 Z" /></g><g
           transform="translate(435.3579,350.4782)"
           id="g75"><path
             id="path77"
             style="fill:#ffffff;fill-opacity:1;fill-rule:nonzero;stroke:none"
             d="m 0,0 v -4.478 h 3.026 c 0.763,0 1.353,0.196 1.771,0.588 0.418,0.393 0.627,0.931 0.627,1.613 0,0.66 -0.203,1.2 -0.61,1.623 C 4.407,-0.233 3.836,-0.015 3.103,0 Z M 0,1.662 H 3.092 C 4.441,1.647 5.509,1.295 6.294,0.605 7.079,-0.084 7.471,-1.02 7.471,-2.201 7.471,-3.389 7.068,-4.342 6.261,-5.062 5.454,-5.78 4.368,-6.14 3.004,-6.14 h -5.04 V 5.766 H 0 Z" /></g><g
           transform="translate(451.4985,345.78)"
           id="g79"><path
             id="path81"
             style="fill:#ffffff;fill-opacity:1;fill-rule:nonzero;stroke:none"
             d="M 0,0 C 0.726,0 1.36,0.22 1.903,0.66 2.446,1.101 2.747,1.65 2.806,2.311 H 4.731 C 4.695,1.628 4.46,0.979 4.027,0.363 3.594,-0.253 3.017,-0.745 2.294,-1.111 1.572,-1.478 0.807,-1.662 0,-1.662 c -1.621,0 -2.911,0.541 -3.868,1.623 -0.957,1.082 -1.436,2.562 -1.436,4.44 v 0.342 c 0,1.158 0.213,2.189 0.638,3.091 0.426,0.903 1.037,1.603 1.833,2.102 0.795,0.499 1.736,0.748 2.822,0.748 1.335,0 2.445,-0.4 3.328,-1.199 0.884,-0.8 1.355,-1.838 1.414,-3.114 H 2.806 C 2.747,7.141 2.456,7.774 1.931,8.269 1.406,8.764 0.759,9.012 -0.011,9.012 -1.045,9.012 -1.847,8.639 -2.415,7.895 -2.984,7.15 -3.268,6.074 -3.268,4.666 V 4.28 c 0,-1.371 0.282,-2.428 0.847,-3.169 C -1.856,0.37 -1.049,0 0,0" /></g><g
           transform="translate(463.5786,349.4113)"
           id="g83"><path
             id="path85"
             style="fill:#ffffff;fill-opacity:1;fill-rule:nonzero;stroke:none"
             d="M 0,0 H -1.485 V -5.073 H -3.532 V 6.833 h 2.047 v -5.04 h 1.331 l 4.005,5.04 H 6.316 L 1.606,1.111 6.712,-5.073 H 4.126 Z" /></g><g
           transform="translate(481.0947,356.2444)"
           id="g87"><path
             id="path89"
             style="fill:#ffffff;fill-opacity:1;fill-rule:nonzero;stroke:none"
             d="M 0,0 H 2.036 V -11.906 H 0 v 8.682 l -5.491,-8.682 H -7.526 V 0 h 2.035 v -8.693 z" /></g><g
           transform="translate(496.0029,360.5905)"
           id="g91"><path
             id="path93"
             style="fill:#ffffff;fill-opacity:1;fill-rule:nonzero;stroke:none"
             d="M 0,0 C 0,-0.891 -0.303,-1.607 -0.908,-2.148 -1.513,-2.689 -2.307,-2.96 -3.29,-2.96 c -0.983,0 -1.779,0.272 -2.388,0.817 -0.609,0.545 -0.913,1.259 -0.913,2.143 h 1.661 c 0,-0.514 0.14,-0.915 0.419,-1.205 0.278,-0.29 0.685,-0.435 1.221,-0.435 0.513,0 0.915,0.143 1.205,0.43 0.29,0.286 0.435,0.689 0.435,1.21 z M -0.55,-4.346 H 1.485 V -16.252 H -0.55 v 8.682 l -5.491,-8.682 h -2.036 v 11.906 h 2.036 v -8.693 z" /></g><g
           transform="translate(512.7471,349.4113)"
           id="g95"><path
             id="path97"
             style="fill:#ffffff;fill-opacity:1;fill-rule:nonzero;stroke:none"
             d="M 0,0 H -1.485 V -5.073 H -3.532 V 6.833 h 2.047 v -5.04 h 1.331 l 4.005,5.04 H 6.316 L 1.606,1.111 6.712,-5.073 H 4.126 Z" /></g><g
           transform="translate(532.3208,356.2444)"
           id="g99"><path
             id="path101"
             style="fill:#ffffff;fill-opacity:1;fill-rule:nonzero;stroke:none"
             d="m 0,0 v -11.906 h -2.046 v 10.222 h -4.05 L -6.338,-6.14 c -0.132,-2.047 -0.475,-3.51 -1.029,-4.39 -0.553,-0.881 -1.432,-1.339 -2.635,-1.376 h -0.814 v 1.794 l 0.583,0.044 c 0.66,0.073 1.133,0.455 1.42,1.144 0.286,0.69 0.469,1.966 0.55,3.829 L -8.043,0 Z" /></g><g
           transform="translate(540.8359,347.3205)"
           id="g103"><path
             id="path105"
             style="fill:#ffffff;fill-opacity:1;fill-rule:nonzero;stroke:none"
             d="M 0,0 2.773,8.924 H 4.952 L 0.165,-4.819 C -0.576,-6.8 -1.753,-7.791 -3.367,-7.791 l -0.385,0.034 -0.759,0.143 v 1.65 l 0.55,-0.044 c 0.69,0 1.227,0.14 1.612,0.418 0.385,0.279 0.702,0.789 0.952,1.53 l 0.451,1.21 -4.247,11.774 h 2.222 z" /></g><g
           transform="translate(553.7856,353.8894)"
           id="g107"><path
             id="path109"
             style="fill:#ffffff;fill-opacity:1;fill-rule:nonzero;stroke:none"
             d="m 0,0 c -0.998,0 -1.79,-0.335 -2.377,-1.007 -0.587,-0.671 -0.88,-1.601 -0.88,-2.789 v -0.176 c 0,-1.277 0.295,-2.287 0.885,-3.031 0.591,-0.745 1.389,-1.117 2.394,-1.117 1.012,0 1.811,0.374 2.398,1.122 0.587,0.748 0.881,1.841 0.881,3.279 0,1.122 -0.296,2.023 -0.886,2.701 C 1.824,-0.339 1.02,0 0,0 m 0.396,1.672 c 1.497,0 2.694,-0.5 3.592,-1.502 0.899,-1.001 1.348,-2.319 1.348,-3.955 v -0.187 c 0,-1.122 -0.216,-2.126 -0.649,-3.009 -0.433,-0.885 -1.054,-1.57 -1.865,-2.058 -0.81,-0.488 -1.744,-0.732 -2.8,-0.732 -1.6,0 -2.887,0.534 -3.862,1.601 -0.976,1.067 -1.464,2.5 -1.464,4.297 v 0.99 c 0,2.502 0.464,4.489 1.392,5.964 0.928,1.475 2.298,2.373 4.11,2.696 1.027,0.183 1.72,0.407 2.079,0.671 0.36,0.264 0.539,0.627 0.539,1.089 H 4.489 C 4.489,6.62 4.282,5.905 3.868,5.392 3.453,4.878 2.791,4.515 1.881,4.302 L 0.363,3.961 C -0.848,3.675 -1.755,3.193 -2.36,2.514 c -0.606,-0.678 -1,-1.582 -1.183,-2.712 1.078,1.247 2.391,1.87 3.939,1.87" /></g><g
           transform="translate(302.9929,399.728)"
           id="g111"><path
             id="path113"
             style="fill:#ffffff;fill-opacity:1;fill-rule:nonzero;stroke:none"
             d="m 0,0 c -0.588,3.49 -1.294,4.117 -6.038,4.117 h -5.176 c -1.137,0 -1.333,-0.314 -1.333,-1.529 v -8.509 h 5.568 c 3.293,0 4.077,0.667 4.43,3.725 h 0.902 v -9.135 h -0.902 c -0.313,3.215 -1.058,3.803 -4.43,3.803 h -5.568 v -8.43 c 0,-2.98 0.549,-3.49 3.568,-3.647 v -0.745 h -11.018 v 0.745 c 2.98,0.196 3.451,0.667 3.451,4.078 V 1.255 c 0,2.862 -0.392,3.372 -3.412,3.607 V 5.607 H 0.784 L 0.98,0 Z" /></g><g
           transform="translate(320.6758,400.2378)"
           id="g115"><path
             id="path117"
             style="fill:#ffffff;fill-opacity:1;fill-rule:nonzero;stroke:none"
             d="m 0,0 -4.509,-10.783 h 9.057 z m 4.744,-20.859 v 0.745 c 1.412,0 1.686,0.078 2.157,0.352 0.313,0.157 0.549,0.589 0.549,0.941 0,0.589 -0.275,1.647 -0.745,2.745 L 5.097,-12.39 H -5.176 l -1.803,-4.47 c -0.196,-0.51 -0.353,-1.176 -0.353,-1.647 0,-1.215 0.862,-1.607 2.744,-1.607 v -0.745 h -7.802 v 0.745 c 2.274,0.235 2.627,1.058 4.94,6.548 L 0.627,5.568 h 0.785 l 9.645,-22.075 c 1.098,-2.549 1.647,-3.372 3.686,-3.607 v -0.745 z" /></g><g
           transform="translate(362.8246,379.3783)"
           id="g119"><path
             id="path121"
             style="fill:#ffffff;fill-opacity:1;fill-rule:nonzero;stroke:none"
             d="M 0,0 V 0.745 C 3.098,0.941 3.529,1.568 3.529,4.823 V 22.428 L -6.47,0 h -0.549 l -9.88,21.526 V 5.921 c 0,-4.313 0.627,-5.019 3.646,-5.176 V 0 h -9.175 v 0.745 c 3.255,0.235 3.804,0.784 3.804,5.176 v 15.605 c 0,2.98 -0.51,3.49 -3.725,3.686 v 0.745 h 7.763 L -5.529,6.273 3.137,25.957 h 7.802 V 25.212 C 8.116,25.173 7.528,24.506 7.528,21.565 V 4.392 c 0,-2.784 0.588,-3.451 3.451,-3.647 V 0 Z" /></g><g
           transform="translate(382.5457,379.3783)"
           id="g123"><path
             id="path125"
             style="fill:#ffffff;fill-opacity:1;fill-rule:nonzero;stroke:none"
             d="m 0,0 v 0.745 c 3.294,0.118 3.803,0.588 3.803,3.647 v 17.212 c 0,3.098 -0.47,3.412 -3.803,3.608 v 0.745 H 11.645 V 25.212 C 8.352,25.055 7.803,24.584 7.803,21.604 V 4.392 c 0,-2.941 0.627,-3.529 3.842,-3.647 V 0 Z" /></g><g
           transform="translate(423.5189,379.3783)"
           id="g127"><path
             id="path129"
             style="fill:#ffffff;fill-opacity:1;fill-rule:nonzero;stroke:none"
             d="m 0,0 h -21.095 v 0.745 c 2.902,0.157 3.411,0.784 3.411,3.764 v 16.899 c 0,3.02 -0.352,3.568 -3.411,3.804 v 0.745 h 11.097 v -0.745 c -3.216,-0.196 -3.686,-0.706 -3.686,-3.725 V 3.294 c 0,-1.49 0.666,-1.765 3.529,-1.765 h 2.744 c 3.176,0 5.294,0.706 6.627,2.392 0.509,0.666 1.019,1.529 1.647,2.901 h 1.019 z" /></g><g
           transform="translate(454.4543,404.5901)"
           id="g131"><path
             id="path133"
             style="fill:#ffffff;fill-opacity:1;fill-rule:nonzero;stroke:none"
             d="m 0,0 c -2.313,-0.196 -3.215,-1.019 -5.411,-4.392 l -5.803,-8.939 v -7.528 c 0,-3.059 0.745,-3.451 4.039,-3.608 v -0.745 h -11.998 v 0.745 c 3.489,0.235 3.96,0.588 3.96,4.078 v 6.705 l -5.137,7.528 c -3.607,5.293 -4.47,6.078 -6.352,6.156 v 0.745 h 10.94 V 0 l -0.941,-0.039 c -1.255,-0.039 -1.843,-0.392 -1.843,-1.02 0,-0.509 0.274,-1.215 0.706,-1.843 l 5.724,-8.665 5.686,8.705 c 0.392,0.588 0.549,1.215 0.549,1.646 -0.04,0.863 -0.628,1.177 -2.667,1.216 V 0.745 H 0 Z" /></g><g
           transform="translate(504.5621,398.6693)"
           id="g135"><path
             id="path137"
             style="fill:#ffffff;fill-opacity:1;fill-rule:nonzero;stroke:none"
             d="m 0,0 c -0.863,4.313 -1.882,5.019 -6.038,5.019 h -2.314 v -19.958 c 0,-2.98 0.549,-3.45 3.765,-3.607 v -0.745 h -11.45 v 0.745 c 3.255,0.196 3.686,0.627 3.686,4.078 V 5.019 h -2.353 c -4.156,0 -5.214,-0.706 -5.999,-5.019 h -0.941 l 0.275,6.666 H 0.667 L 0.941,0 Z" /></g><g
           transform="translate(596.7406,379.3783)"
           id="g139"><path
             id="path141"
             style="fill:#ffffff;fill-opacity:1;fill-rule:nonzero;stroke:none"
             d="m 0,0 h -21.134 v 0.745 c 3.019,0.196 3.411,0.706 3.411,3.725 v 17.095 c 0,2.902 -0.47,3.49 -3.411,3.647 v 0.745 h 20.781 l 0.157,-5.607 h -0.98 c -0.588,3.529 -1.49,4.117 -6.039,4.117 h -5.136 c -1.098,0 -1.372,-0.157 -1.372,-1.412 v -8.626 h 5.92 c 3.372,0 3.96,0.667 4.431,3.764 H -2.47 V 9.018 h -0.902 c -0.471,3.294 -1.059,3.803 -4.431,3.803 h -5.92 V 3.294 c 0,-1.647 1.058,-1.843 3.96,-1.843 h 1.411 c 5.607,0 7.293,1.019 9.058,5.175 h 1.098 z" /></g><g
           transform="translate(514.749,379.1189)"
           id="g143"><path
             id="path145"
             style="fill:#ffffff;fill-opacity:1;fill-rule:nonzero;stroke:none"
             d="m 0,0 v 0.747 c 3.303,0.118 3.814,0.59 3.814,3.657 v 17.263 c 0,3.106 -0.472,3.42 -3.814,3.617 v 0.747 H 11.678 V 25.284 C 8.375,25.126 7.825,24.655 7.825,21.667 V 4.404 c 0,-2.949 0.629,-3.539 3.853,-3.657 V 0 Z" /></g><g
           transform="translate(556.3896,379.1189)"
           id="g147"><path
             id="path149"
             style="fill:#ffffff;fill-opacity:1;fill-rule:nonzero;stroke:none"
             d="M 0,0 V 0.747 C 3.106,0.944 3.539,1.573 3.539,4.836 V 22.492 L -6.488,0 h -0.551 l -9.909,21.588 V 5.937 c 0,-4.325 0.63,-5.033 3.657,-5.19 V 0 h -9.201 v 0.747 c 3.263,0.236 3.814,0.787 3.814,5.19 v 15.651 c 0,2.988 -0.511,3.499 -3.736,3.696 v 0.747 h 7.787 l 9.083,-19.739 8.69,19.739 h 7.825 V 25.284 C 8.14,25.245 7.55,24.576 7.55,21.627 V 4.404 c 0,-2.792 0.59,-3.46 3.46,-3.657 V 0 Z" /></g><g
           transform="translate(480.2075,424.1875)"
           id="g151"><path
             id="path153"
             style="fill:#ffffff;fill-opacity:1;fill-rule:nonzero;stroke:none"
             d="m 0,0 c -0.759,-0.366 -1.077,-1.278 -0.711,-2.037 0.366,-0.759 1.278,-1.077 2.037,-0.711 0.759,0.367 1.077,1.279 0.711,2.037 C 1.671,0.048 0.759,0.366 0,0" /></g><g
           transform="translate(550.027,466.6127)"
           id="g155"><path
             id="path157"
             style="fill:#ffffff;fill-opacity:1;fill-rule:nonzero;stroke:none"
             d="m 0,0 c -3.397,-11.325 -10.72,-18.056 -16.604,-23.464 -0.991,-0.911 -1.939,-1.785 -2.822,-2.636 -0.141,0.726 -0.324,1.427 -0.571,2.09 0.675,0.636 1.379,1.283 2.103,1.949 5.713,5.25 12.823,11.785 16.069,22.608 0.171,0.57 0.155,1.077 -0.113,1.529 -0.289,0.487 -0.865,0.445 -1.113,-0.175 -1.333,-3.338 -5.034,-11.872 -6.81,-12.684 2.119,4.347 4.529,10.499 5.512,13.28 0.164,0.461 0.358,1.385 -0.248,1.928 -0.544,0.488 -1.111,-0.011 -1.303,-0.603 -4.821,-14.895 -9.641,-19.86 -15.221,-25.608 -0.014,-0.014 -0.035,-0.037 -0.05,-0.052 -0.376,0.494 -0.818,0.949 -1.344,1.354 0.009,0.009 0.018,0.016 0.027,0.025 5.62,5.824 10.091,10.395 14.776,24.868 0.361,1.117 0.92,1.684 1.406,1.973 0.764,0.453 1.602,0.356 2.225,0.026 0.494,-0.262 0.862,-0.632 1.16,-1.014 C -2.68,5.085 -2.362,4.849 -2.003,4.692 -1.626,4.527 -1.241,4.274 -0.916,3.91 0.106,2.762 0.423,1.41 0,0" /></g><g
           transform="translate(512.8628,414.071)"
           id="g159"><path
             id="path161"
             style="fill:#ffffff;fill-opacity:1;fill-rule:nonzero;stroke:none"
             d="m 0,0 c -1.68,-1.205 -4.127,-3.132 -6.631,-5.443 -0.406,-0.375 -0.877,-0.675 -1.394,-0.869 -2.31,-0.869 -3.816,-3.307 -2.56,-5.081 0.374,0.949 0.761,1.584 1.211,2.044 0.391,0.4 1.038,0.115 1.125,-0.438 0.12,-0.767 0.565,-1.371 1.162,-1.802 0.081,2.943 1.226,4.261 1.623,4.628 3.215,2.98 6.534,5.476 7.977,6.362 0.448,0.276 0.619,0.889 0.204,1.464 L 0.954,2.931 C -0.72,4.637 -2.051,3.228 -1.62,2.549 -1.532,2.234 0.285,0.204 0,0" /></g><g
           transform="translate(504.4897,412.807)"
           id="g163"><path
             id="path165"
             style="fill:#ffffff;fill-opacity:1;fill-rule:nonzero;stroke:none"
             d="m 0,0 c -1.387,-1.075 -3.032,-2.437 -4.71,-3.988 -0.378,-0.349 -0.812,-0.637 -1.295,-0.815 -2.212,-0.818 -3.662,-3.151 -2.462,-4.848 0.34,0.864 0.691,1.455 1.095,1.888 0.378,0.405 1.039,0.188 1.125,-0.359 0.114,-0.73 0.537,-1.305 1.104,-1.715 0.078,2.801 1.166,4.056 1.543,4.406 2.498,2.318 5.046,4.313 6.648,5.431 z" /></g><g
           transform="translate(523.7032,439.5868)"
           id="g167"><path
             id="path169"
             style="fill:#ffffff;fill-opacity:1;fill-rule:nonzero;stroke:none"
             d="m 0,0 c -2.124,-0.818 -4.407,-1.137 -6.673,-0.922 -2.751,0.26 -5.722,0.368 -8.727,-0.028 -5.694,-0.75 -10.936,-2.936 -12.756,-5.798 7.136,4.259 12.941,5.015 19.597,4.546 0.866,-0.061 1.098,-0.885 -0.097,-1.495 -1.194,-0.61 -2.168,-0.467 -2.818,-0.394 -2.883,0.325 -8.794,0.123 -15.327,-5.157 -0.9,-0.728 -1.342,-1.002 -2.899,-1.424 -3.762,-1.019 -8.277,-3.402 -9.03,-5.261 3.394,2.023 6.573,3.386 10.618,4.128 0.652,0.12 1.339,0.11 2.153,0.785 4.277,3.543 8.236,4.668 10.848,4.985 0.971,0.118 1.83,0.135 2.548,0.104 0.773,-0.032 1.171,-0.932 0.685,-1.533 -2.469,-3.054 -7.759,-6.118 -12.156,-7.451 1.948,-0.804 6.768,1.107 10.083,3.598 1.734,1.303 3.202,2.775 4.054,4.221 0.38,0.646 0.954,1.156 1.633,1.474 2.404,1.126 7.695,3.553 10.278,4.336 0.651,0.197 1.059,0.127 1.302,-0.213 0.21,-0.294 0.254,-0.828 -0.254,-1.446 -1.708,-2.077 -6.58,-7.361 -14.918,-11.56 -6.308,-3.176 -11.401,-3.899 -13.845,-3.552 -1.429,0.203 -4.16,1.178 -3.541,4.059 -2.248,-1.11 -1.236,-5.297 3.274,-5.945 2.846,-0.409 8.274,0.365 14.969,3.737 3.098,1.56 5.739,3.268 7.935,4.918 0.954,0.717 1.825,1.424 2.612,2.102 0.717,0.618 1.82,-0.019 1.626,-0.946 -0.91,-4.353 -3.557,-8.654 -7.267,-11.442 -6.972,-5.24 -16.6,-3.795 -25.095,-2.521 -0.691,0.104 -2.767,0.522 -3.872,0.643 -0.752,0.081 -1.239,0.93 -0.931,1.735 0.788,2.057 1.113,2.946 0.437,4.375 -0.471,-1.719 -1.206,-2.938 -2.179,-3.868 -0.639,-0.611 -2.006,-1.751 -4.155,-1.953 -2.006,-0.188 -3.808,-0.722 -6.968,-1.837 -0.651,-0.229 -1.191,0.552 -0.741,1.075 0.549,0.637 1.126,1.217 1.624,1.681 0.617,0.575 1.412,0.924 2.254,0.982 0.584,0.04 1.234,0.044 1.799,-0.005 -0.351,0.798 -1.171,1.163 -1.953,1.278 -0.635,0.093 -1.143,0.58 -1.282,1.206 -0.5,2.237 -0.493,4.409 1.367,6.46 1.585,1.747 3.692,2.157 5.731,2.551 2.902,0.561 4.271,1.317 6.958,3.179 3.023,2.095 7.184,4.935 12.226,6.241 5.005,1.296 8.412,1.354 11.418,1.404 3.461,0.059 6.45,0.109 10.775,1.852 C 2.135,3.232 4.487,4.427 5.203,5.24 4.684,5.721 4.427,6.135 3.809,6.542 3.049,5.868 1.099,4.869 0.608,4.671 -3.39,3.06 -6.216,3.012 -9.487,2.957 -12.599,2.905 -16.126,2.845 -21.351,1.492 c -5.366,-1.39 -9.661,-4.377 -12.827,-6.515 -2.745,-1.854 -3.741,-2.379 -6.242,-2.879 -2.232,-0.446 -4.768,-0.923 -6.779,-3.141 -2.484,-2.738 -2.392,-5.674 -1.766,-8.363 0.135,-0.583 -0.043,-1.195 -0.478,-1.607 -1.38,-1.309 -3.504,-3.628 -4.023,-5.895 -0.137,-0.597 0.28,-1.26 1.095,-1.148 1.118,0.154 2.476,0.648 4.046,1.22 2.076,0.758 4.429,1.616 6.575,1.773 2.807,0.205 6.436,-0.34 10.279,-0.916 4.21,-0.632 8.981,-1.347 13.543,-1.194 3.598,0.121 6.7,0.775 9.389,1.974 2.681,1.327 5.11,3.353 5.644,3.885 1.395,1.389 2.594,2.984 3.561,4.694 0.217,0.383 1.348,2.811 1.531,3.314 0.712,1.945 1.133,3.956 1.217,5.921 0.065,1.527 0.348,2.253 1.119,3.23 0.671,0.85 0.87,1.858 0.723,2.796 C 5.112,-0.444 6.227,0.438 6.897,0.925 6.723,1.566 6.641,2.48 6.327,3.016 5.317,2.227 2.141,0.825 0,0" /></g><g
           transform="translate(310.7842,443.928)"
           id="g171"><path
             id="path173"
             style="fill:#ffffff;fill-opacity:1;fill-rule:nonzero;stroke:none"
             d="M 0,0 C 0.111,-0.927 0.953,-1.588 1.88,-1.477 2.807,-1.365 3.469,-0.524 3.357,0.404 3.246,1.331 2.404,1.992 1.477,1.88 0.55,1.769 -0.111,0.927 0,0" /></g><g
           transform="translate(328.2944,450.1173)"
           id="g175"><path
             id="path177"
             style="fill:#ffffff;fill-opacity:1;fill-rule:nonzero;stroke:none"
             d="M 0,0 C 0.3,1.913 1.488,3.554 2.873,5.467 3.307,6.066 3.758,6.689 4.202,7.35 4.607,7.953 5.549,7.587 5.446,6.868 5.261,5.582 4.939,4.406 4.558,3.438 3.843,1.623 2.837,0.179 1.552,-0.88 0.877,-1.436 -0.136,-0.864 0,0 m -3.98,-7.32 c -4.281,-1.947 -5.756,-2.607 -7.55,-4.125 -1.495,-1.265 -2.629,-1.659 -4.191,-1.404 -0.987,0.162 -2.816,1.102 -4.376,2.042 0.275,-1.339 1.604,-2.475 3.088,-3.371 1.104,-0.666 1.163,-1.744 0.483,-2.592 -0.851,-1.061 -2.272,-2.88 -2.836,-3.61 -5.834,-7.55 -12.446,-16.108 -22.086,-17.266 -5.503,-0.662 -11.364,1.02 -15.527,4.234 -0.602,0.465 -0.594,1.469 0.364,1.513 0.958,0.043 1.774,-0.648 2.267,-0.955 1.096,-0.683 2.242,-1.257 3.415,-1.716 4.812,-1.883 10.157,-1.403 11.184,0.016 -3.768,-0.469 -7.377,-0.155 -10.978,1.402 -0.87,0.376 -0.699,1.658 0.239,1.792 2.686,0.386 5.651,1.006 8.804,1.973 7.92,2.429 12.797,5.99 14.794,8.454 3.111,3.84 1.034,7.573 -1.743,7.2 2.995,-2.228 1.252,-4.741 0.245,-6.023 -1.7,-2.164 -6.348,-5.507 -13.855,-7.81 -9.91,-3.039 -17.879,-2.545 -20.845,-2.192 -0.938,0.112 -1.34,0.616 -1.402,1.05 -0.074,0.507 0.272,0.991 0.902,1.261 0.004,0.002 0.007,0.004 0.01,0.006 0.008,0.003 0.016,0.006 0.024,0.01 3.209,1.526 7.796,3.15 10.165,3.956 0.9,0.307 1.869,0.356 2.79,0.123 6.916,-1.753 17.772,2.219 18.324,4.85 -4.063,-2.255 -11.217,-4.476 -16.685,-3.699 -0.82,0.116 -1.151,1.122 -0.566,1.709 0.716,0.719 1.637,1.556 2.756,2.402 2.765,2.091 7.349,4.681 13.484,5.101 0.452,0.031 0.772,0.204 1.181,0.483 1.23,0.836 5.437,3.494 12.367,4.37 -2.011,1.185 -8.819,0.073 -13.69,-2.953 -6.63,-0.465 -11.572,-3.262 -14.552,-5.527 -1.383,-1.052 -2.478,-2.082 -3.283,-2.925 -0.735,-0.768 -1.418,-1.686 -2.714,-2.121 -1.296,-0.435 -1.68,0.63 -0.899,1.442 2.342,2.437 4.633,4.428 6.921,6.019 4.036,2.807 8.721,4.668 13.457,5.941 -3.139,0.957 -10.042,-1.825 -14.273,-4.768 -2.848,-1.98 -5.69,-4.551 -8.616,-7.794 -1.823,-2.02 -4.067,-3.617 -6.572,-4.679 -1.993,-0.845 -4.084,-1.737 -4.862,-2.052 -8.22,-3.326 -15.318,-6.198 -26.859,-19.125 -0.409,-0.459 -1.4,-0.759 -1.791,0.069 -0.391,0.827 0.31,1.713 0.68,2.131 2.142,2.422 6.703,7.223 15.347,13.17 -4.326,-0.525 -12.749,-8.562 -16.096,-11.937 -0.615,-0.62 -1.268,-0.662 -1.56,-0.05 -0.291,0.612 0.082,1.292 0.599,1.897 8.155,9.543 18.304,12.992 26.459,15.763 2.08,0.707 4.045,1.374 5.836,2.092 4.78,1.914 7.204,4.16 10.012,6.761 2.448,2.268 5.223,4.839 10.233,7.646 5.053,2.83 10.576,3.722 14.605,4.393 4.048,0.673 5.191,0.981 7.966,2.777 1.946,1.259 3.964,2.554 6.606,2.369 3.241,-0.227 4.941,-2.125 6.297,-4.453 0.293,-0.503 0.236,-1.139 -0.143,-1.58 -0.569,-0.665 -0.959,-1.579 -0.708,-2.615 0.941,1.353 2.171,2.321 3.851,2.38 0.878,0.032 2.09,0.006 3.314,-0.158 0.677,-0.091 0.811,-1.014 0.189,-1.297 m 4.095,1.972 c -0.274,0.159 -0.42,0.443 -0.408,0.742 0.012,0.299 0.176,0.554 0.487,0.693 2.764,1.234 4.892,3.493 6.137,6.653 0.933,2.368 1.16,4.634 1.186,6.117 C 7.55,10.701 7.294,12.321 6.815,13.313 6.671,13.61 6.395,13.832 6.067,13.874 5.597,13.934 5.169,13.648 5.033,13.215 4.189,10.534 2.736,8.526 1.33,6.584 -0.661,3.834 -2.55,1.223 -1.827,-2.515 c 0.071,-0.37 0.102,-0.849 -0.285,-1.294 -0.388,-0.446 -0.874,-0.481 -1.346,-0.406 -1.343,0.214 -2.675,0.265 -3.696,0.261 -0.729,-0.003 -1.4,0.385 -1.773,1.012 -1.546,2.591 -3.702,4.964 -7.72,5.246 -3.274,0.229 -5.664,-1.31 -7.771,-2.669 -2.416,-1.559 -3.651,-1.956 -7.242,-2.498 -4.178,-0.63 -9.882,-1.617 -15.228,-4.611 -5.208,-2.917 -8.071,-5.57 -10.597,-7.91 -2.669,-2.472 -4.973,-4.607 -9.426,-6.391 -1.743,-0.698 -3.685,-1.358 -5.74,-2.056 -8.375,-2.846 -18.799,-6.388 -27.294,-16.329 -1.036,-1.212 -2.059,-3.185 -0.064,-5.527 0.292,-0.343 0.525,-0.736 0.637,-1.173 0.128,-0.505 0.509,-1.801 1.745,-2.284 1.112,-0.435 2.343,0.044 3.373,1.197 11.245,12.596 17.823,15.258 26.151,18.628 0.56,0.227 1.466,0.225 2.018,-0.668 0.401,-0.648 1.036,-1.133 1.731,-1.405 0.499,-0.195 1.358,-0.304 2.109,-0.369 0.588,-0.052 1.135,-0.323 1.527,-0.763 1.731,-1.943 3.958,-3.561 6.456,-4.765 0.511,-0.246 0.767,-0.826 0.593,-1.366 -0.306,-0.949 -0.639,-1.981 -0.72,-2.231 -0.16,-0.488 0.19,-1.026 0.702,-1.149 2.294,-0.554 7.092,-1.978 11.369,-3.892 1.32,-0.592 2.23,-1.97 2.981,-4.246 0.505,0.634 0.791,1.435 0.734,2.285 -0.039,0.579 0.586,0.973 1.084,0.674 0.787,-0.472 1.336,-1.086 1.86,-1.645 0.401,1.161 0.051,2.2 -0.856,2.988 -0.686,0.597 -1.78,1.249 -3.338,1.34 -0.682,0.039 -1.352,0.196 -1.976,0.474 -3.552,1.582 -7.155,2.707 -9.352,3.328 -0.585,0.165 -0.995,0.684 -0.705,1.373 0.222,0.528 0.814,0.797 1.364,0.636 2.078,-0.605 4.252,-0.942 6.42,-0.968 0.992,-0.012 1.965,-0.257 2.854,-0.695 1.435,-0.706 3.498,-1.906 5.356,-3.481 1.506,-1.278 2.583,-2.338 3.761,-3.63 0.293,0.748 0.174,1.516 -0.049,2.235 -0.157,0.507 0.124,1.021 0.771,0.967 0.848,-0.071 1.749,-0.608 2.564,-0.996 -0.05,1.95 -2.274,3.375 -4.746,2.723 -0.37,-0.098 -0.82,-0.061 -1.11,0.19 -0.9,0.78 -1.846,1.462 -2.754,2.044 -0.67,0.43 -0.539,1.436 0.217,1.687 3.229,1.072 6.357,2.98 9.474,5.772 3.761,3.369 7.027,7.597 9.91,11.327 2.636,3.413 5.127,6.637 7.539,8.632 1.849,1.53 4.398,2.65 6.646,3.639 1.712,0.752 3.198,1.39 4.193,2.143 0.584,0.442 0.56,1.219 -0.409,1.783" /></g></g></g></g></svg>