<svg xmlns="http://www.w3.org/2000/svg" viewBox="0 0 495.19793 178.36324" height="178.363" width="495.198"><defs><clipPath id="a"><path d="M0 595.28h841.89V0H0z"/></clipPath></defs><g clip-path="url(#a)" transform="matrix(1.33333 0 0 -1.33333 -302.862 631.07)"><path d="M345.47 350.39c0 1.342-.285 2.402-.857 3.18-.573.778-1.358 1.166-2.355 1.166-1.232 0-2.157-.546-2.773-1.639v-5.689c.609-1.085 1.54-1.628 2.795-1.628.975 0 1.75.386 2.327 1.16.576.774.864 1.924.864 3.45m2.036-.23c0-1.813-.415-3.273-1.244-4.38-.83-1.108-1.951-1.662-3.367-1.662-1.445 0-2.582.46-3.411 1.376v-5.733h-2.035v16.483h1.859l.099-1.32c.829 1.027 1.98 1.54 3.455 1.54 1.43 0 2.562-.539 3.395-1.617.832-1.079 1.249-2.579 1.249-4.5zM352.951 350.16c0-1.32.306-2.38.92-3.18.611-.8 1.431-1.2 2.458-1.2 1.035 0 1.856.405 2.465 1.215.61.811.913 1.946.913 3.406 0 1.306-.31 2.364-.93 3.175-.619.81-1.443 1.215-2.47 1.215-1.005 0-1.815-.4-2.432-1.199-.616-.8-.924-1.944-.924-3.433m-2.046.242c0 1.166.23 2.215.687 3.147.46.931 1.097 1.651 1.915 2.156.818.507 1.751.76 2.8.76 1.621 0 2.933-.56 3.934-1.684 1.001-1.122 1.502-2.615 1.502-4.478v-.143c0-1.159-.222-2.199-.666-3.12-.444-.92-1.078-1.637-1.904-2.15-.825-.514-1.773-.77-2.844-.77-1.614 0-2.92.561-3.922 1.683-1.002 1.122-1.502 2.607-1.502 4.456zM367.166 346h5.47v8.362h-3.665l-.12-2.839c-.125-2.369-.686-4.21-1.684-5.523m-2.41 0l.703.87c.793 1.026 1.244 2.567 1.354 4.621l.187 4.753h7.67V346h1.53v-5.16h-2.037v3.498h-8.307v-3.499h-2.036l.011 5.161zM387.51 356.244h2.036v-11.906h-2.036v8.682l-5.49-8.682h-2.036v11.906h2.035v-8.693zM403.013 354.594h-3.994v-10.255h-2.036v10.255h-3.917v1.65h9.947zM410.152 354.792a2.716 2.716 0 0 1-2.069-.897c-.557-.598-.902-1.436-1.034-2.514h5.964v.154c-.059 1.034-.338 1.836-.837 2.404-.499.569-1.173.853-2.024.853m.253-10.673c-1.614 0-2.927.529-3.939 1.59-1.013 1.06-1.519 2.477-1.519 4.252v.374c0 1.182.226 2.236.677 3.164.451.928 1.082 1.654 1.893 2.179a4.76 4.76 0 0 0 2.635.786c1.547 0 2.75-.51 3.61-1.53.857-1.018 1.286-2.478 1.286-4.378v-.847h-8.065c.03-1.174.372-2.123 1.03-2.845.655-.722 1.49-1.084 2.502-1.084.72 0 1.327.147 1.826.44a4.6 4.6 0 0 1 1.31 1.167l1.243-.97c-.997-1.532-2.494-2.298-4.489-2.298M428.515 356.244v-11.906h-2.046v10.222h-4.05l-.242-4.456c-.132-2.047-.475-3.51-1.029-4.39-.553-.88-1.432-1.339-2.635-1.376h-.814v1.794l.583.044c.66.073 1.133.455 1.42 1.144.286.69.47 1.966.55 3.83l.22 5.094zM435.358 350.478V346h3.026c.763 0 1.353.196 1.77.588.419.393.628.931.628 1.613 0 .66-.203 1.2-.61 1.623-.407.421-.978.64-1.711.654zm0 1.662h3.092c1.349-.015 2.417-.367 3.202-1.057.785-.689 1.177-1.625 1.177-2.806 0-1.188-.403-2.14-1.21-2.86-.807-.719-1.893-1.079-3.257-1.079h-5.04v11.906h2.036zM451.498 345.78c.726 0 1.36.22 1.903.66.543.441.844.99.903 1.651h1.926c-.036-.683-.271-1.332-.704-1.948a4.63 4.63 0 0 0-1.733-1.474 4.996 4.996 0 0 0-2.294-.551c-1.621 0-2.911.541-3.868 1.623-.957 1.082-1.436 2.562-1.436 4.44v.342c0 1.158.213 2.189.638 3.091.426.903 1.037 1.603 1.833 2.102.795.499 1.736.748 2.822.748 1.335 0 2.445-.4 3.328-1.199.884-.8 1.355-1.838 1.414-3.114h-1.925c-.06.77-.35 1.403-.875 1.898-.525.495-1.172.743-1.942.743-1.034 0-1.836-.373-2.404-1.117-.57-.745-.853-1.821-.853-3.229v-.386c0-1.371.282-2.428.847-3.169.565-.741 1.372-1.111 2.42-1.111M463.579 349.411h-1.485v-5.073h-2.047v11.906h2.047v-5.04h1.33l4.006 5.04h2.465l-4.71-5.722 5.106-6.184h-2.586zM481.095 356.244h2.036v-11.906h-2.036v8.682l-5.491-8.682h-2.035v11.906h2.035v-8.693zM496.003 360.59c0-.89-.303-1.606-.908-2.147-.605-.541-1.4-.812-2.382-.812-.983 0-1.78.272-2.388.817-.61.545-.913 1.259-.913 2.143h1.66c0-.515.14-.916.42-1.206.278-.29.685-.435 1.22-.435.514 0 .916.143 1.206.43.29.286.435.69.435 1.21zm-.55-4.345h2.035v-11.906h-2.035v8.682l-5.491-8.682h-2.036v11.906h2.036v-8.693zM512.747 349.411h-1.485v-5.073h-2.047v11.906h2.047v-5.04h1.331l4.005 5.04h2.465l-4.71-5.722 5.106-6.184h-2.586zM532.32 356.244v-11.906h-2.045v10.222h-4.05l-.242-4.456c-.132-2.047-.475-3.51-1.03-4.39-.552-.88-1.431-1.339-2.634-1.376h-.814v1.794l.583.044c.66.073 1.133.455 1.42 1.144.286.69.469 1.966.55 3.83l.22 5.094zM540.836 347.32l2.773 8.924h2.179L541 342.501c-.741-1.98-1.918-2.972-3.532-2.972l-.385.034-.76.143v1.65l.55-.044c.69 0 1.228.14 1.613.418.385.28.702.79.952 1.53l.45 1.21-4.246 11.774h2.222zM553.786 353.89c-.998 0-1.79-.336-2.377-1.008-.587-.67-.88-1.6-.88-2.789v-.176c0-1.277.295-2.287.885-3.03.59-.746 1.389-1.118 2.394-1.118 1.012 0 1.81.374 2.398 1.122.587.748.88 1.841.88 3.28 0 1.121-.295 2.022-.885 2.7-.591.68-1.395 1.018-2.415 1.018m.396 1.672c1.497 0 2.694-.5 3.592-1.502.899-1 1.348-2.319 1.348-3.955v-.187c0-1.122-.216-2.126-.65-3.009a4.805 4.805 0 0 0-1.864-2.058c-.81-.488-1.744-.732-2.8-.732-1.6 0-2.887.534-3.862 1.601-.976 1.067-1.464 2.5-1.464 4.297v.99c0 2.502.464 4.49 1.392 5.964.928 1.475 2.298 2.373 4.11 2.696 1.027.183 1.72.407 2.079.671.36.264.539.627.539 1.09h1.673c0-.918-.207-1.633-.621-2.146-.415-.514-1.077-.877-1.987-1.09l-1.518-.34c-1.211-.287-2.118-.769-2.723-1.448-.606-.678-1-1.582-1.183-2.712 1.078 1.247 2.39 1.87 3.939 1.87M302.993 399.728c-.588 3.49-1.294 4.117-6.038 4.117h-5.176c-1.137 0-1.333-.314-1.333-1.529v-8.509h5.568c3.293 0 4.077.667 4.43 3.725h.902v-9.135h-.902c-.313 3.215-1.058 3.803-4.43 3.803h-5.568v-8.43c0-2.98.549-3.49 3.568-3.647v-.745h-11.018v.745c2.98.196 3.45.667 3.45 4.078v16.782c0 2.862-.391 3.372-3.411 3.607v.745h20.742l.196-5.607zM320.676 400.238l-4.51-10.783h9.058zm4.744-20.86v.746c1.412 0 1.686.078 2.157.352.313.157.549.589.549.94 0 .59-.275 1.648-.745 2.746l-1.608 3.686H315.5l-1.803-4.47c-.196-.51-.353-1.176-.353-1.647 0-1.215.862-1.607 2.744-1.607v-.745h-7.802v.745c2.274.235 2.627 1.058 4.94 6.548l8.077 19.134h.785l9.645-22.075c1.098-2.55 1.647-3.372 3.686-3.607v-.745zM362.825 379.378v.745c3.098.196 3.529.823 3.529 4.078v17.605l-10-22.428h-.548l-9.88 21.526V385.3c0-4.313.627-5.019 3.646-5.176v-.745h-9.175v.745c3.255.235 3.804.784 3.804 5.176v15.605c0 2.98-.51 3.49-3.725 3.686v.745h7.763l9.057-19.684 8.666 19.684h7.802v-.745c-2.823-.039-3.411-.706-3.411-3.647V383.77c0-2.784.588-3.45 3.45-3.647v-.745zM382.546 379.378v.745c3.294.118 3.803.588 3.803 3.647v17.212c0 3.098-.47 3.412-3.803 3.608v.745h11.645v-.745c-3.293-.157-3.842-.628-3.842-3.608V383.77c0-2.94.627-3.529 3.842-3.647v-.745zM423.519 379.378h-21.095v.745c2.902.157 3.41.784 3.41 3.764v16.9c0 3.02-.351 3.567-3.41 3.803v.745h11.097v-.745c-3.216-.196-3.686-.706-3.686-3.725v-18.193c0-1.49.666-1.765 3.529-1.765h2.744c3.176 0 5.294.706 6.627 2.392.509.666 1.019 1.53 1.647 2.901h1.019zM454.454 404.59c-2.313-.196-3.215-1.019-5.41-4.392l-5.804-8.939v-7.528c0-3.059.745-3.45 4.04-3.608v-.745H435.28v.745c3.49.235 3.96.588 3.96 4.078v6.705l-5.137 7.528c-3.607 5.293-4.47 6.078-6.352 6.156v.745h10.94v-.745l-.94-.039c-1.256-.039-1.844-.392-1.844-1.02 0-.509.274-1.215.706-1.843l5.724-8.665 5.686 8.705c.392.588.55 1.215.55 1.646-.04.863-.629 1.177-2.668 1.216v.745h8.548zM504.562 398.67c-.863 4.312-1.882 5.018-6.038 5.018h-2.314V383.73c0-2.98.55-3.45 3.765-3.607v-.745h-11.45v.745c3.255.196 3.686.627 3.686 4.078v19.487h-2.353c-4.156 0-5.214-.706-5.999-5.019h-.94l.274 6.666h22.036l.274-6.666zM596.74 379.378h-21.133v.745c3.019.196 3.41.706 3.41 3.725v17.095c0 2.902-.47 3.49-3.41 3.647v.745h20.78l.158-5.607h-.98c-.588 3.53-1.49 4.117-6.04 4.117h-5.135c-1.098 0-1.372-.157-1.372-1.412v-8.626h5.92c3.372 0 3.96.667 4.43 3.764h.903v-9.175h-.902c-.471 3.294-1.06 3.803-4.431 3.803h-5.92v-9.527c0-1.647 1.058-1.843 3.96-1.843h1.41c5.608 0 7.294 1.02 9.059 5.175h1.098zM514.749 379.119v.747c3.303.118 3.814.59 3.814 3.657v17.263c0 3.106-.472 3.42-3.814 3.617v.747h11.678v-.747c-3.303-.158-3.853-.63-3.853-3.617v-17.263c0-2.95.629-3.54 3.853-3.657v-.747zM556.39 379.119v.747c3.106.197 3.539.826 3.539 4.089v17.656l-10.027-22.492h-.551l-9.91 21.588v-15.651c0-4.325.63-5.033 3.658-5.19v-.747h-9.201v.747c3.263.236 3.814.787 3.814 5.19v15.65c0 2.989-.511 3.5-3.736 3.697v.747h7.787l9.083-19.74 8.69 19.74h7.825v-.747c-2.831-.04-3.421-.708-3.421-3.657v-17.223c0-2.792.59-3.46 3.46-3.657v-.747zM480.207 424.188a1.526 1.526 0 1 1 1.326-2.748 1.526 1.526 0 0 1-1.326 2.748M550.027 466.613c-3.397-11.325-10.72-18.056-16.604-23.464a166.297 166.297 0 0 1-2.822-2.636 13.185 13.185 0 0 1-.571 2.09c.675.636 1.379 1.283 2.103 1.949 5.713 5.25 12.823 11.785 16.069 22.608.171.57.155 1.077-.113 1.529-.289.487-.865.445-1.113-.175-1.333-3.338-5.034-11.872-6.81-12.684 2.119 4.347 4.529 10.499 5.512 13.28.164.46.358 1.385-.248 1.928-.544.488-1.111-.011-1.303-.603-4.821-14.895-9.641-19.86-15.221-25.608l-.05-.052a7.202 7.202 0 0 1-1.344 1.354l.027.025c5.62 5.824 10.091 10.395 14.776 24.868.361 1.117.92 1.684 1.406 1.973.764.453 1.602.356 2.225.026.494-.262.862-.632 1.16-1.014a2.35 2.35 0 0 1 .918-.702 3.145 3.145 0 0 0 1.087-.782c1.022-1.148 1.339-2.5.916-3.91"/><path d="M512.863 414.071c-1.68-1.205-4.127-3.132-6.631-5.443a4.276 4.276 0 0 0-1.394-.869c-2.31-.869-3.816-3.307-2.56-5.081.374.949.76 1.584 1.21 2.044.392.4 1.039.115 1.126-.438.12-.767.565-1.371 1.162-1.802.08 2.943 1.226 4.261 1.623 4.628 3.215 2.98 6.534 5.476 7.977 6.362.448.276.619.889.204 1.464l-1.763 2.066c-1.674 1.706-3.005.297-2.574-.382.088-.315 1.905-2.345 1.62-2.549"/><path d="M504.49 412.807a72.186 72.186 0 0 1-4.71-3.988 3.927 3.927 0 0 0-1.295-.815c-2.212-.818-3.662-3.151-2.462-4.848.34.864.69 1.455 1.095 1.888.378.405 1.039.188 1.125-.359.114-.73.537-1.305 1.104-1.715.078 2.801 1.166 4.056 1.543 4.406 2.498 2.318 5.046 4.313 6.648 5.431z"/><path d="M523.703 439.587a14.702 14.702 0 0 0-6.673-.922c-2.75.26-5.722.368-8.727-.028-5.694-.75-10.936-2.936-12.756-5.798 7.136 4.259 12.941 5.015 19.597 4.546.866-.061 1.098-.885-.097-1.495-1.194-.61-2.168-.467-2.818-.394-2.883.325-8.794.123-15.327-5.157-.9-.728-1.342-1.002-2.899-1.424-3.762-1.02-8.277-3.402-9.03-5.261 3.394 2.023 6.573 3.386 10.618 4.128.652.12 1.34.11 2.153.785 4.277 3.543 8.236 4.668 10.848 4.985.971.118 1.83.135 2.548.104.773-.032 1.171-.932.685-1.533-2.469-3.054-7.759-6.118-12.156-7.451 1.948-.804 6.768 1.107 10.083 3.598 1.734 1.303 3.202 2.775 4.054 4.22.38.647.954 1.157 1.633 1.475 2.404 1.126 7.695 3.553 10.278 4.336.651.197 1.06.127 1.302-.213.21-.294.254-.828-.254-1.446-1.708-2.077-6.58-7.361-14.918-11.56-6.308-3.176-11.4-3.9-13.845-3.552-1.429.203-4.16 1.178-3.54 4.059-2.249-1.11-1.237-5.297 3.273-5.945 2.846-.41 8.274.365 14.97 3.737a52.586 52.586 0 0 1 7.934 4.918 50.373 50.373 0 0 1 2.612 2.102c.717.618 1.82-.02 1.626-.946-.91-4.353-3.557-8.654-7.267-11.442-6.972-5.24-16.6-3.795-25.095-2.521-.69.104-2.767.522-3.872.643-.752.08-1.239.93-.93 1.735.787 2.057 1.112 2.946.436 4.375-.47-1.72-1.206-2.938-2.179-3.868-.639-.611-2.006-1.751-4.155-1.953-2.006-.188-3.808-.722-6.968-1.837-.65-.23-1.19.552-.74 1.075a21.761 21.761 0 0 0 1.623 1.68 3.68 3.68 0 0 0 2.254.983c.584.04 1.234.044 1.8-.005-.352.798-1.172 1.163-1.954 1.278a1.555 1.555 0 0 0-1.282 1.206c-.5 2.237-.493 4.409 1.367 6.46 1.585 1.747 3.692 2.157 5.731 2.55 2.902.562 4.271 1.318 6.958 3.18 3.023 2.095 7.184 4.935 12.226 6.24 5.005 1.297 8.412 1.355 11.418 1.405 3.461.059 6.45.109 10.775 1.852.815.328 3.167 1.523 3.883 2.336-.519.48-.776.895-1.394 1.302-.76-.674-2.71-1.673-3.2-1.871-3.999-1.611-6.825-1.66-10.096-1.714-3.112-.052-6.639-.112-11.864-1.465-5.366-1.39-9.66-4.377-12.827-6.515-2.745-1.854-3.74-2.38-6.242-2.88-2.232-.445-4.768-.922-6.779-3.14-2.484-2.738-2.392-5.674-1.766-8.363a1.686 1.686 0 0 0-.478-1.607c-1.38-1.31-3.504-3.628-4.023-5.895-.137-.597.28-1.26 1.095-1.148 1.118.154 2.476.648 4.046 1.22 2.076.758 4.43 1.616 6.575 1.773 2.807.205 6.436-.34 10.28-.916 4.21-.632 8.98-1.347 13.542-1.194 3.598.12 6.7.775 9.39 1.974 2.68 1.327 5.11 3.353 5.643 3.885a21.73 21.73 0 0 1 3.561 4.694c.217.383 1.348 2.81 1.531 3.314.712 1.945 1.133 3.956 1.217 5.92.065 1.528.348 2.254 1.12 3.23.67.85.87 1.859.722 2.797-.144.915.971 1.797 1.641 2.284-.174.64-.256 1.555-.57 2.09-1.01-.788-4.186-2.19-6.327-3.015M310.784 443.928a1.69 1.69 0 1 1 3.357.403 1.69 1.69 0 0 1-3.357-.403"/><path d="M328.294 450.117c.3 1.913 1.488 3.554 2.873 5.467.434.6.885 1.222 1.33 1.883.404.603 1.346.237 1.243-.482a15.534 15.534 0 0 0-.888-3.43c-.715-1.815-1.72-3.259-3.006-4.318-.675-.556-1.688.016-1.552.88m-3.98-7.32c-4.28-1.947-5.756-2.607-7.55-4.125-1.495-1.265-2.629-1.659-4.19-1.404-.988.162-2.817 1.102-4.377 2.042.275-1.339 1.604-2.475 3.088-3.37 1.104-.667 1.163-1.745.483-2.593a329.577 329.577 0 0 1-2.836-3.61c-5.834-7.55-12.446-16.108-22.086-17.266-5.503-.662-11.364 1.02-15.527 4.234-.602.465-.594 1.47.364 1.513.958.043 1.774-.648 2.267-.955a20.787 20.787 0 0 1 3.415-1.716c4.812-1.883 10.157-1.403 11.184.016-3.768-.469-7.377-.155-10.978 1.402-.87.376-.699 1.658.24 1.792a58.327 58.327 0 0 1 8.803 1.973c7.92 2.43 12.797 5.99 14.794 8.454 3.111 3.84 1.034 7.573-1.743 7.2 2.995-2.228 1.252-4.74.245-6.023-1.7-2.164-6.348-5.507-13.855-7.81-9.91-3.039-17.879-2.545-20.845-2.192-.938.112-1.34.616-1.402 1.05-.074.507.272.991.902 1.261a.088.088 0 0 1 .01.006.244.244 0 0 1 .024.01c3.21 1.526 7.796 3.15 10.165 3.956.9.307 1.87.356 2.79.123 6.916-1.753 17.772 2.22 18.324 4.85-4.063-2.255-11.217-4.476-16.685-3.699-.82.116-1.15 1.122-.566 1.71a26.22 26.22 0 0 0 2.756 2.401c2.765 2.091 7.35 4.681 13.484 5.101.452.031.772.204 1.181.483 1.23.836 5.437 3.494 12.367 4.37-2.01 1.185-8.819.073-13.69-2.953-6.63-.465-11.572-3.262-14.552-5.527a27.986 27.986 0 0 1-3.283-2.925c-.735-.768-1.418-1.686-2.714-2.12-1.296-.436-1.68.63-.899 1.441 2.342 2.437 4.633 4.428 6.921 6.02 4.036 2.806 8.721 4.667 13.457 5.94-3.139.957-10.042-1.825-14.273-4.768-2.848-1.98-5.69-4.55-8.616-7.794a18.669 18.669 0 0 0-6.572-4.679c-1.993-.845-4.084-1.737-4.862-2.052-8.22-3.326-15.318-6.198-26.859-19.125-.409-.459-1.4-.759-1.79.07-.392.826.31 1.712.68 2.13 2.141 2.422 6.702 7.223 15.346 13.17-4.326-.525-12.749-8.562-16.096-11.937-.615-.62-1.268-.662-1.56-.05-.29.612.082 1.292.6 1.897 8.154 9.543 18.303 12.992 26.458 15.763 2.08.707 4.045 1.374 5.836 2.092 4.78 1.914 7.204 4.16 10.012 6.761 2.448 2.268 5.223 4.84 10.233 7.646 5.053 2.83 10.576 3.722 14.605 4.393 4.048.673 5.191.981 7.966 2.777 1.946 1.26 3.964 2.554 6.606 2.37 3.241-.228 4.941-2.126 6.297-4.454a1.37 1.37 0 0 0-.143-1.58c-.569-.665-.959-1.579-.708-2.615.941 1.353 2.171 2.321 3.851 2.38.878.032 2.09.006 3.314-.158.677-.09.811-1.014.19-1.297m4.094 1.972a.811.811 0 0 0-.408.742c.012.3.176.554.487.693 2.764 1.234 4.892 3.493 6.137 6.653.933 2.368 1.16 4.634 1.186 6.117.033 1.844-.223 3.464-.702 4.456a.986.986 0 0 1-.748.561.953.953 0 0 1-1.034-.659c-.844-2.68-2.297-4.689-3.703-6.63-1.99-2.75-3.88-5.362-3.157-9.1.071-.37.102-.849-.285-1.294-.388-.446-.874-.48-1.346-.406-1.343.214-2.675.265-3.696.261a2.056 2.056 0 0 0-1.773 1.012c-1.546 2.591-3.702 4.964-7.72 5.246-3.274.23-5.664-1.31-7.77-2.669-2.417-1.559-3.652-1.956-7.243-2.498-4.178-.63-9.882-1.617-15.228-4.61-5.208-2.918-8.07-5.57-10.597-7.91-2.669-2.473-4.973-4.608-9.426-6.392-1.743-.698-3.685-1.358-5.74-2.056-8.375-2.846-18.799-6.388-27.294-16.329-1.036-1.212-2.059-3.185-.064-5.527.292-.343.525-.736.637-1.173.128-.505.51-1.8 1.745-2.284 1.112-.435 2.343.044 3.373 1.197 11.245 12.596 17.823 15.258 26.151 18.628.56.227 1.466.225 2.018-.668.401-.648 1.036-1.133 1.731-1.405.5-.195 1.358-.304 2.11-.369a2.316 2.316 0 0 0 1.526-.763c1.731-1.943 3.958-3.56 6.456-4.765.511-.246.767-.826.593-1.366l-.72-2.23c-.16-.489.19-1.027.702-1.15 2.294-.554 7.092-1.978 11.37-3.892 1.32-.592 2.23-1.97 2.98-4.246.505.634.791 1.435.734 2.285-.039.58.586.973 1.084.674.787-.472 1.336-1.086 1.86-1.645.401 1.161.051 2.2-.856 2.988a5.492 5.492 0 0 1-3.338 1.34 5.643 5.643 0 0 0-1.976.474c-3.552 1.582-7.155 2.707-9.352 3.328-.585.165-.995.684-.705 1.373.222.528.814.797 1.364.636a24.09 24.09 0 0 1 6.42-.968 6.645 6.645 0 0 0 2.854-.695c1.435-.706 3.498-1.906 5.356-3.48a38.293 38.293 0 0 0 3.761-3.63c.293.747.174 1.515-.049 2.234-.157.507.124 1.021.771.967.848-.07 1.75-.608 2.564-.996-.05 1.95-2.274 3.375-4.746 2.723-.37-.098-.82-.06-1.11.19-.9.78-1.846 1.462-2.754 2.044a.94.94 0 0 0 .217 1.687c3.23 1.072 6.357 2.98 9.474 5.772 3.761 3.37 7.027 7.597 9.91 11.327 2.636 3.413 5.127 6.637 7.54 8.632 1.848 1.53 4.397 2.65 6.645 3.64 1.712.751 3.198 1.39 4.193 2.142.584.442.56 1.22-.409 1.783"/></g></svg>
