<?xml version="1.0" encoding="utf-8"?>
<svg width="450px" height="286px" version="1.1" viewBox="0 0 450 286" xmlns="http://www.w3.org/2000/svg">
  <g transform="matrix(1.3333 0 0 -1.3333 0 304.36)">
    <g transform="scale(.1)">
      <path d="m199.97 772.04c-5.883 34.902-12.942 41.172-60.383 41.172h-51.758c-11.371 0-13.332-3.133-13.332-15.289v-85.082h55.68c32.933 0 40.777 6.66 44.304 37.25h9.02v-91.36h-9.02c-3.136 32.149-10.585 38.032-44.304 38.032h-55.68v-84.301c0-29.801 5.4922-34.902 35.684-36.461v-7.449h-110.18v7.449c29.801 1.961 34.504 6.66 34.504 40.781v167.81c0 28.621-3.9219 33.719-34.113 36.07v7.449h207.42l1.961-56.07h-9.801"/>
      <path d="m376.8 777.14-45.09-107.82h90.574zm47.441-208.59v7.449c14.117 0 16.864 0.781 21.567 3.531 3.136 1.559 5.492 5.879 5.492 9.41 0 5.879-2.746 16.457-7.453 27.438l-16.074 36.859h-102.73l-18.035-44.699c-1.961-5.098-3.527-11.758-3.527-16.469 0-12.148 8.625-16.07 27.445-16.07v-7.449h-78.027v7.449c22.742 2.352 26.269 10.578 49.406 65.48l80.769 191.34h7.844l96.453-220.75c10.981-25.492 16.469-33.718 36.856-36.07v-7.449h-99.985"/>
      <path d="m798.28 568.55v7.449c30.977 1.961 35.289 8.23 35.289 40.781v176.04l-99.984-224.27h-5.488l-98.809 215.26v-156.06c0-43.129 6.273-50.191 36.465-51.75v-7.449h-91.75v7.449c32.543 2.352 38.031 7.84 38.031 51.75v156.06c0 29.8-5.098 34.89-37.246 36.851v7.449h77.633l90.574-196.83 86.652 196.83h78.028v-7.449c-28.231-0.39-34.114-7.051-34.114-36.461v-171.74c0-27.84 5.883-34.5 34.504-36.461v-7.449h-109.78"/>
      <path d="m995.5 568.55v7.449c32.934 1.172 38.034 5.879 38.034 36.461v172.13c0 30.98-4.71 34.109-38.034 36.07v7.449h116.45v-7.449c-32.94-1.57-38.43-6.269-38.43-36.07v-172.13c0-29.41 6.28-35.289 38.43-36.461v-7.449h-116.45"/>
      <path d="m1405.2 568.55h-210.95v7.449c29.02 1.559 34.11 7.84 34.11 37.641v168.99c0 30.191-3.53 35.68-34.11 38.031v7.449h110.96v-7.449c-32.15-1.961-36.85-7.051-36.85-37.25v-181.93c0-14.902 6.66-17.64 35.29-17.64h27.44c31.76 0 52.93 7.058 66.27 23.922 5.09 6.66 10.19 15.289 16.46 29.008h10.2l-18.82-68.219"/>
      <path d="m1714.6 820.66c-23.13-1.961-32.15-10.191-54.11-43.91l-58.03-89.398v-75.282c0-30.582 7.45-34.511 40.39-36.07v-7.449h-119.98v7.449c34.89 2.352 39.6 5.879 39.6 40.781v67.039l-51.36 75.282c-36.08 52.937-44.7 60.777-63.52 61.558v7.449h109.39v-7.449l-9.41-0.39c-12.55-0.391-18.43-3.918-18.43-10.192 0-5.098 2.75-12.156 7.06-18.43l57.24-86.648 56.86 87.039c3.92 5.883 5.49 12.152 5.49 16.473-0.39 8.629-6.28 11.758-26.66 12.148v7.449h85.47v-7.449"/>
      <path d="m2215.7 761.46c-8.63 43.129-18.82 50.18-60.38 50.18h-23.14v-199.57c0-29.8 5.49-34.511 37.65-36.07v-7.449h-114.5v7.449c32.55 1.961 36.86 6.27 36.86 40.781v194.86h-23.53c-41.56 0-52.14-7.051-59.99-50.18h-9.41l2.75 66.648h220.36l2.74-66.648h-9.41"/>
      <path d="m2374.8 703.03c37.64 0.789 51.36 3.528 69.4 13.34 14.12 7.84 22.35 25.09 22.35 44.688 0 35.293-23.13 52.55-71.75 52.55-13.33 0-20-2.75-20-16.468zm115.28-134.48-93.32 120.76-21.96-0.778v-76.07c0-29.801 4.71-34.5 34.9-36.461v-7.449h-108.22v7.449c29.41 2.352 33.33 6.66 33.33 41.172v167.42c0 29.019-3.14 33.719-33.33 36.07v7.449h106.65c37.25 0 65.09-9.41 81.95-23.129 12.94-10.589 19.21-29.8 19.21-47.05 0-34.11-21.96-56.86-70.97-64.309l78.42-99.191c11.37-14.508 19.6-16.871 36.86-18.43v-7.449h-63.52"/>
      <path d="m2835.2 568.55h-211.34v7.449c30.19 1.961 34.11 7.051 34.11 37.25v170.95c0 29.012-4.7 34.891-34.11 36.461v7.449h207.81l1.57-56.07h-9.8c-5.88 35.293-14.9 41.172-60.39 41.172h-51.36c-10.98 0-13.72-1.57-13.72-14.109v-86.262h59.2c33.72 0 39.6 6.66 44.31 37.64h9.02v-91.75h-9.02c-4.71 32.93-10.59 38.032-44.31 38.032h-59.2v-95.282c0-16.468 10.58-18.429 39.6-18.429h14.11c56.07 0 72.93 10.199 90.58 51.758h10.98l-18.04-66.258"/>
      <path d="m3137.4 568.55h-211.33v7.449c30.19 1.961 34.11 7.051 34.11 37.25v170.95c0 29.012-4.71 34.891-34.11 36.461v7.449h207.81l1.56-56.07h-9.8c-5.88 35.293-14.9 41.172-60.38 41.172h-51.37c-10.97 0-13.72-1.57-13.72-14.109v-86.262h59.21c33.72 0 39.6 6.66 44.3 37.64h9.02v-91.75h-9.02c-4.7 32.93-10.58 38.032-44.3 38.032h-59.21v-95.282c0-16.468 10.59-18.429 39.6-18.429h14.12c56.07 0 72.93 10.199 90.57 51.758h10.98l-18.04-66.258"/>
      <path d="m1606.1 2009.7c4.42-8.23 14.67-11.32 22.9-6.9 8.22 4.41 11.32 14.66 6.9 22.89s-14.66 11.32-22.89 6.9c-8.23-4.41-11.32-14.66-6.91-22.89"/>
      <path d="m1740.7 1261.9c-3.46 13.4 5.31 30.64 13.12 39.3 8.34 9.27 23.91 19.88 39.79 17.78-10.32-7.46-21.68-19.23-28.5-26.6-6.83-7.38-15.83-17.48-24.41-30.48"/>
      <path d="m2070.8 1535.1c-23.85 23.85-55.56 36.98-89.29 36.98-31.16 0-60.61-11.19-83.7-31.71-11.25-10-17-9-30.4 2.48-18.22 15.61-57.41 24.93-138.07-16.09-48.83-24.83-99.79-62.53-123.94-91.68-20.48-24.7-30.53-54.68-30.53-84.51 0-71.38 59.19-119.11 97.73-119.11-38.2 26.5-78.69 59.58-78.69 119.06 0 25.56 8.62 51.24 26.16 72.41 19.13 23.09 65.77 60.34 117.9 86.85 54.93 27.93 97.68 34.64 117.28 18.4 21.31-17.65 20.84-67.53-0.54-132.46-1.54-4.67-6.08-13.96-15.49-15.66-9.42-1.7-13.11 6.83-11.1 11.99 13.43 34.36 20.11 75.02 12.01 86.1-7.49-28.69-15.76-62.13-30.55-93.35-3.31-6.99-9.54-12.18-17.01-14.2-9.59-2.58-18.01-5.37-24.87-8.25-33.97-14.22-59.78-42.02-71.67-76.23-2.24-6.45-9.58-9.51-15.85-6.8-10.56 4.56-17.98 10.22-20.75 12.51-32.19 26.68-36.49 72.5-10.95 116.84-35.59-17.08-45.65-88.79 1.84-127.84 3.87-3.18 17.95-14.51 37.41-20.56 10.46-3.25 21.43 2.87 24.68 13.33 10.63 34.32 33.43 58.94 62.65 71.18 38.61 16.18 96.88 28.25 210.19 22.1-15.18 13.38-62.5 18.47-98.72 17.61-7.57-0.17-13.11 7.06-10.91 14.31 7.25 23.81 14.39 53.32 14.39 80.37 0 21.66 4.13 30.4 12.71 39.47 18.89 19.96 44.33 32.43 71.76 34.17 31.24 1.98 60.95-9.28 82.85-31.18 29.14-29.15 37.41-68.65 31.6-122.63 17.43 20.37 27.37 90.6-18.13 136.1"/>
      <path d="m2229.6 1869.9c-2.55 7.24-11.82 35.54-9.06 46.16 8.35-6.25 19.75-33.51 22.21-40.49 4.24-12.04 9.43-36.94 7.36-47.69-7.72 7.84-16.46 30.48-20.51 42.02"/>
      <path d="m2108.2 1627.2c-1.5 8.16-5.54 36.29-1.29 48.92 7.76-10.05 13.87-38.37 15.38-46.52 2.34-12.68 5.97-38.21 3.69-48.76-7.05 9.42-15.38 33.36-17.78 46.36"/>
      <path d="m2321 1703.5c2.59 8.65 13.72 19.84 19.56 24.91 6.05 5.26 17.21 12.42 27.12 15.8-1.62-8.44-11.46-21.12-17.77-26.6-6.05-5.25-19.77-13.89-28.91-14.11"/>
      <path d="m1688 1108.8c-1.13 10.89 2.47 25.58 5.2 33.73 2.55 7.61 8.07 20.69 15.34 27.26 2.39-9.48 0.87-23.88-1.75-31.72-2.82-8.42-10.02-22.35-18.79-29.27"/>
      <path d="m2073.4 1253.8c-4.71 3.51-10.95 4-17.57 3.14-4.14-0.54-7.21 3.72-5.44 7.5 9.93 21.1 18.9 45.47 18.87 58.3-10.2-9.34-19.94-28.5-28.98-46.74-1.96-3.96-7.54-3.88-9.51 0.07-2.91 5.81-6.75 10.55-11.14 11.83 0 0 2.74-15.85 3.98-31.86 0.56-7.25-1.06-14.52-4.62-20.86-4.34-7.73-8.98-15.63-13.94-23.62-2.92-4.71-10.07-3.35-11.13 2.08-3.29 16.82-9.77 31.18-18.08 33.82 0 0 7.7-30.11 6.08-56.67-0.6-9.93-4.26-19.43-10.29-27.34-10.09-13.22-22.55-29.86-25.3-40.31 8.98 4.67 25.62 19.88 37.03 32.8 6.88 7.8 15.46 13.94 25.08 17.89 16.55 6.81 32.83 9.82 32.83 9.82-4.86 4.64-13.68 5.61-22.43 5.07-4.93-0.31-8.04 5.19-5.39 9.35 6.28 9.87 12.09 19.61 17.44 29.11 3.81 6.73 9.58 12.14 16.56 15.46 13.89 6.61 25.95 11.16 25.95 11.16"/>
      <path d="m2196.2 1161.9c-9.8-1.14-40.05-20.73-63.27-35.54-4.2-2.68-9.8 0.28-9.82 5.27-0.02 8.85-2.27 16.17-4.87 21.06-0.07-0.01-0.07-0.01-0.13-0.02-2.71-10.3-6.17-21-11.17-35.27-2.02-5.78-6.08-10.65-11.4-13.7-16.21-9.29-38.83-22.34-44.92-30.14 10.11-0.25 35.73 9.75 52.69 18.38 5.1 2.59 10.92 3.37 16.54 2.27 12.18-2.38 21.99-4.96 31.83-7.14-2.24 4.84-7.51 9.9-14.6 13.97-4.14 2.39-4.44 8.24-0.48 10.91 24.4 16.49 55.79 41.92 59.6 49.95"/>
      <path d="m2367.7 1463.9c-9.71-5.98-23.79-24.25-46.04-51.88-3.45-4.29-10.26-2.81-11.73 2.5-2.34 8.46-6.25 15.08-10.06 17.54 0 0 0.71-19.51-1.52-38.84-0.82-7.11-3.78-13.81-8.5-19.19-11.69-13.3-27.39-31.49-29.88-41.69 10.08 3.64 27.79 19.29 40.05 32 5.01 5.19 11.6 8.6 18.75 9.53 15.94 2.05 33.78 2.98 33.78 2.98-4.3 3.66-11.64 7.69-20.62 9.63-4.9 1.06-7.02 6.83-3.91 10.76 25.22 31.92 39.03 56.32 39.68 66.66"/>
      <path d="m1845 944.9c7.33 4 12.6 8.891 13.9 13.692-13.01-3.352-27.48-8.281-44.17-9.102-8.63-0.429-16.41 0.883-21.14 2.731-11.58 4.511-27.63 9.871-36.95 9.269 4.75-7.078 18.83-15.828 30.06-21.449 6.19-3.098 11.61-7.559 15.7-13.141 6.96-9.476 11.74-19.839 16.27-30.707 2.9 5.297 3.58 11.508 2.45 18.188-0.91 5.43 4.4 9.832 9.62 8.07 26.67-8.988 62.13-18.121 70.74-17.14-5.49 6.421-32.61 17.492-55.5 26.312-5.8 2.238-6.44 10.309-0.98 13.277"/>
      <path d="m1519.3 1513c-18.55-0.75-45.96-19.24-64.06-37.34-35.23-35.22-46.77-75.87-30.59-101.01 1.84 9.06 3.98 16.61 6.18 23.14 2.97 8.8 15.46 8.93 18.56 0.17 10.71-30.14 15.86-65.98 8.43-114.51 29.95 21.11 23.57 94.81 0.49 143.33-4.5 9.44-3.07 20.6 3.56 28.68 18.37 22.36 41.7 43.28 57.43 57.54"/>
      <path d="m1509.1 1455.2c34.26 21.57 83.77 55.21 114.23 78.15 32.12 24.18 73.24 61.9 95.82 83.07 0.11-23.55-43.01-65.46-85.16-98.68-38.63-30.46-99.95-67.17-124.89-62.54"/>
      <path d="m1934.1 1678.9c-54.88 23.95-112.83 18.78-136.1-6.22 32.92 6.32 52.59 6.1 71.04 3.5 9.4-1.32 13.97-6.1 11.2-13.03-2.91-7.28-4.67-9.13-9.03-15.35 10.45 0 19.48 2.01 32.11 12.58 5.18 4.34 12.31 5.47 18.59 3 16.34-6.44 22.62-10.99 27.97-14.08 6.04-3.47 5.33-12.46-1.23-14.82-17.78-6.39-36.27-10.12-59.96-10.12-36.44 0-59.47 4.02-97.92 13.11-48.4 11.44-132.31 41.16-181.92 25.68 56.52-8.62 104.25-22.99 144.49-34.87 8.34-2.46 12.76-11.56 9.53-19.64-5.35-13.4-10.98-26.65-10.98-26.65 14.19 3.85 22.23 14.15 30.27 27.13 3.49 5.62 10.17 8.42 16.62 6.93 30.06-6.96 55.54-10.74 89.91-10.74 25.21 0 48.94 3.5 82.34 17.06 5.78 2.35 12.27 2.41 18.09 0.13 8.71-3.41 15.85-7.33 25.57-11.25-3.97 16.38-30.29 45.7-80.59 67.65"/>
      <path d="m1957.8 1702.6c-17.99 8.95-45.47 20.68-69.14 29.49 23.67 6.27 57.92-2.46 77.36-12.38 27.65-14.09 51.49-33.74 59.08-49.89-18.7 8.35-47.41 22.89-67.3 32.78"/>
      <path d="m2151.6 1017.1c-33.34-32.451-57.39-41.76-88.27-48.908-29.15-6.75-63.48-10.871-99.65-11.774 13.93-11.347 54.01-14.589 90.57-9.128 9.51 1.421 14.66-10.801 7.03-16.649-14.24-10.902-34.7-18.101-64.07-23.051 29.57-14.492 83.94-2.519 101.9 42.61 3.1 7.781 9.48 13.8 16.59 18.242 19.29 12.027 36.14 30.699 35.9 48.658"/>
      <path d="m1947.6 1786.5c-16.18 16.66-52.21 44.45-88.48 39.91 16.23-7.3 33.93-16.24 42.87-24.05 8.91-7.78 3.5-16-8.55-16.91-15.08-1.13-35.42 3.12-45.71 5.71-65 16.38-157.17 17.77-190.32-20.83 53.56 16.38 112.27 13.66 150.83 9.22 10.49-1.2 16.2-10.95 5.85-19.64-7.76-6.52-19.26-10.05-37.21-9.13-60.13 3.08-132.07-18.05-142.96-49.25 42.87 21.7 86.65 31.12 120.53 30.29 12.21-0.29 14.16-10.07 8.54-17.16-12.16-15.34-23.37-34.91-22.98-47.1 47.06 52.71 97.2 98.93 160.98 98.93 51.12 0 88.31-18.24 139.45-46.26-7.68 20.83-43.54 41.99-72.32 52.81-7.76 2.91-14.74 7.52-20.52 13.46"/>
      <path d="m1937.2 990.63c11.22 7.25 33.57 14.761 43.41 17.551 20.43 5.79 33.68 7.37 45.52 8.9-4.2-10.07-17.56-20.791-40.01-27.17-10.77-3.058-33.16-6.121-48.92 0.719"/>
      <path d="m1468.2 1056.1c-10.14 19.11-12.16 43.17-7.9 75.27 10.41 78.3 3.14 100.78-53.8 189.96-15.77 24.71-21.34 48.06-21.34 69.2 0 51.45 43.53 106.67 62.59 127.79-13.89 0-38.1-21.57-50.57-39.17-5.19-7.32-14.26-9.13-18.63 1.86-4.25 10.71-4.89 23.41-4.63 40.35-11.37-8.89-20.11-37.58-3.57-68.01 4.02-7.38 4.87-14.52 2.35-22-12.49-37.07-7.06-72.36 8.24-103.4 3.98-8.07 4.74-17.36 2.06-25.95-21.64-69.21 4.68-137.6 36.96-156.36-21.08 42.62-30.82 83.71-24.95 124.24 1.39 9.58 13.96 12.17 18.97 3.89 26.64-44.12 36.55-73.66 27.45-139.8-5.22-37.96-1.59-65.95 10.89-88.39 18.19-32.7 65.43-55.8 87.32-49.991-30.43 15.941-57.22 33.681-71.44 60.511"/>
      <path d="m2022.1 2108.5c-2.79 10.99-0.12 25.3 2.63 33.23 2.58 7.45 10.45 20.04 17.53 25.15 1.28-8.19-1.36-22.18-3.75-29.04-2.76-7.88-9.98-23.31-16.41-29.34"/>
      <path d="m2396.1 1443.3c6.94-3.42 10.58-7.42 10.37-12.8-0.33-8.47-9.88-20.51-27.74-26.65-6.2-2.14-9.5-10.2-3.92-15.98 5.92-6.12 8.05-12.92 5.46-19.68-3.53-9.24-16.46-20.04-42.24-20.58-6.51-0.14-10.61-5.96-9.05-12.19 2.25-8.9 2.03-15.72-1.56-20.5-4.68-6.23-14.88-9.66-28.71-9.66h-54.83c-6.21 0-11.06 5.42-10.3 11.59 2.84 23.09 0.88 49.62 1.59 58.03 0.77 9.18 3.8 16.16 8.75 20.18 4.35 3.54 10.26 4.67 17.62 3.99 7-0.64 11.76 3.59 10.55 10.98-4.2 25.47-0.5 44.78 9.68 51.62 5.28 3.54 12.36 3.38 18.81-0.67 5.67-3.56 12.95-1.18 14.45 6.7 3.78 19.85 11.15 28.8 17.84 30.38 5.1 1.2 9.96-1.66 14.32-7.13 4.04-5.07 11.19-6.26 15.33-0.39 8.89 12.59 20.1 20.06 28.47 21.09 3.86 0.48 7.2-0.49 10.48-3.05 3.86-3.01 6-7.02 6.56-12.25 1.15-10.79-4.93-25.29-15.42-38.2-3.8-4.68-2.88-11.7 3.49-14.83zm-326.54-226.03c-5.69-2.5-8.6-10.31-2.45-15.98 4.26-3.92 10.9-11.78 8.29-21.93-3.44-13.34-21.55-24.73-48.32-31.15-6.56-1.58-8.86-6.21-7.2-12 1.97-6.89 3.37-16.64-1.48-24.07-4.89-7.47-14.42-10.06-21.54-11.07-15.95-2.27-42.7 2.08-67.9-0.5-6.94-0.71-12.79 5.08-12.25 12.04 1.58 20.43 1 33.86-0.84 58.86-0.84 11.33 0.5 19.97 3.96 25.69 2.25 3.7 6.76 7.77 18.96 9.64 7.06 1.09 10.24 6.78 8.51 12.32-8.09 25.9-7.17 46.08 2.24 55.26 3.82 3.73 13.51 8.13 26.18 3.83 5.92-2 12.89 1.12 12.89 8.97 0 23.72 8.46 35.94 16.52 39.47 6.66 2.91 14.4 0.6 21.74-5.82 5.24-4.58 11.73-3.26 14.87 1.88 4.05 6.64 25.1 39.41 47.24 29.15 4.79-2.21 7.92-6.04 9.55-11.7 3.78-13.12-1.25-33.51-12.4-50.87-2.82-4.4-2.55-10.88 3.93-14.02 6.69-3.23 14.79-8.99 14.67-19.53-0.15-11.7-11.17-27.9-35.17-38.47zm37.74-32.46c6.41 2.08 13.96-0.65 20.57-6.9 4.53-4.29 11.94-4.16 15.35 2.5 9.04 17.67 19.44 23.85 26.67 23.49 5.87-0.27 10.55-4.65 13.53-12.2 2.7-6.83 10.23-7.11 14.06-4.66 5.49 3.52 33.5 20.32 46.03 4.75 2.77-3.45 3.72-6.94 2.99-10.98-1.67-9.27-11.91-20.7-26.98-29.47-5.36-3.12-6.15-9.74-2.53-14.48 5.66-7.42 7.86-14.69 4.79-20.33-3.71-6.81-15.82-13.4-38.48-9.89-7.9 1.23-13.06-7.51-9.53-14.2 4.64-8.82 4.77-17.22 0.02-23.23-7.94-10.03-27.07-12.13-51.15-5.43-6.78 1.88-11.41-1.56-12.22-8.16-1.09-8.82-4.44-15.47-10.23-19.17-5.96-3.82-14.34-4.72-22.63-1.47-16.15 6.34-33.01 17.23-50.55 24.49-5.86 2.43-8.24 9.42-5.09 14.92 7.92 13.79 13.46 26.59 20.69 44.39 3.6 8.84 7.77 14.82 12.41 17.76 2.91 1.85 7.84 3.87 17.16 0.11 5.45-2.19 12.06-0.07 13.1 7.26 3.2 22.71 11.69 37.54 22.02 40.9zm-117.13-121.6c-14.8-5.69-58.75-20.5-100.17-16.98-8.97 0.77-11.4 12.77-3.43 16.95 6.69 3.5 12.89 7.08 18.59 10.59 21.91 13.5 54.88 7.79 81.71 7.82 12.56 0.01 12.96-14.67 3.3-18.38zm-182.62 54.46c-3.78 4.16-5.35 9.64-5.98 14.07-0.4 2.79 0.45 5.62 2.28 7.77 2.1 2.44 4.66 6.03 4.66 9v7.91c0 8.68 8.51 15.75 18.97 15.75 10.45 0 18.96-7.05 18.96-15.75 0-7.25-2.85-11.75-8.38-13.45-4.86-1.5-9.02-2.3-12.38-5.18 3.87-2.43 10.38-4.13 17.34-5.52 6.83-1.36 9.7-8.63 4.45-14.52-4.24-4.76-10.99-7.15-19.99-7.15-8.96 0-15.67 2.38-19.93 7.07zm-23.38-126.3c13.37 4.043 25.01 3.641 30.12-10.707 1.8-5.062 8.32-8.8 13.9-5.711 18.83 10.45 34.27 13.649 42.72 8.149 5.21-3.391 7.7-10.438 6.93-18.879-0.56-6.16 5.69-11.52 11.61-10.262 18.16 3.84 28.74-0.109 32.68-5.468 4.21-5.75 1.02-12.641-0.89-16.551-3.47-7.117-0.59-11.68 5.14-14 5.66-2.278 34.5-12.418 30.58-30.489-0.81-3.761-2.97-6.48-6.78-8.57-9.21-5.051-26.34-5.129-41.31 0.871-5.99 2.399-11.84-0.281-12.87-6.871-0.85-5.5-4.11-12.281-11.63-13.871-8.81-1.848-23.28 3.652-35.24 20.52-3.9 5.5-12.43 5.5-16.04-0.93-2.06-3.688-6.69-9.84-14.59-9.57-10.82 0.382-22.61 12.281-31.89 31.66-3.1 6.472-9.7 5.91-13.32 4.511-11.74-4.519-24.44-2.011-29.72 11.168-4.09 10.231-6.9 32.672-11.72 50.352-1.71 6.289 2.41 12.629 8.84 13.699 14.21 2.391 26.66 5.879 43.48 10.949zm-120.54 142.09c1.29 3.21 4.21 5.8 8.74 7.57 6.36 2.49 8.04 7.65 5.52 13.01-6.48 13.74-4.53 23.54-0.67 28.07 2.26 2.65 7.26 5.07 14.74 3.21 7.19-1.79 11.67 1.66 12.1 8.89 0.52 8.83 4.32 17.35 10.11 21.16 3.55 2.35 7.31 2.68 11.49 1.04 4.62-1.83 7.63-5.23 8.94-10.11 1.94-7.27-0.26-16.18-5.84-23.27-4.69-5.97-1.81-11.63 2.31-14.32 6.8-4.46 10.67-10.15 10.21-16.24-0.53-7.09-6.61-13.39-16.47-17.75-5-2.21-7.58-7.17-5.12-12.7 1.8-4 3.49-9.85 1.48-14.89-1.5-3.75-5.01-6.78-10.41-9-4.9-2.02-15.77-5.67-23.85-8.37-4.84-1.62-10.02 1.03-11.68 5.87-2.18 6.39-5.32 13.25-9.44 22.07-2.09 4.45-4.15 10.79-2.16 15.76zm429.03 441.33c-7.38 4.39-11.7 10.17-11.86 15.88-0.15 5.4 3.8 10.37 10.11 15.4 5.67 4.52 6.07 12.36-0.24 16.17-15.06 9.1-24.28 22.22-23.49 33.48 0.63 8.86 7.58 13.59 13.28 16.03 5.7 2.45 6.89 7.9 4.89 12.85-4.19 10.38-6.34 26.52-1.28 36.66 2.52 5.05 6.58 8.17 12.39 9.55 1.8 0.42 3.47 0.63 5.05 0.63 3.55 0 6.59-1.09 9.33-3.31 7.98-6.46 12.07-21.26 11.73-32.63-0.19-6.52 4.11-10.49 10.56-9.92 7.64 0.66 12.99-1.16 15.93-5.93 4.82-7.85 4.19-24.43-8.39-43.63-4.3-6.57-0.83-13.92 6.91-14.96 4.75-0.64 10.98-2.06 13.43-7.18 2.56-5.34 0.76-13.56-4.8-22-1.38-2.08-10.5-15.66-16.71-26.5-3.27-5.7-10.32-7.98-16.29-5.23-10.6 4.88-25.22 11.47-30.55 14.64zm-17.86 430.75c-3.79 4.17-5.36 9.65-5.99 14.07-0.39 2.79 0.45 5.63 2.29 7.77 2.09 2.44 4.66 6.03 4.66 9v7.91c0 8.68 8.5 15.75 18.96 15.75s18.96-7.05 18.96-15.75c0-7.25-2.85-11.75-8.37-13.45-4.87-1.5-9.03-2.3-12.39-5.17 3.87-2.43 10.38-4.14 17.34-5.52 6.84-1.36 9.7-8.64 4.45-14.53-4.24-4.76-10.98-7.14-19.99-7.14-8.96 0-15.66 2.37-19.92 7.06zm-77.93 105.87c-2.94 5.06-3.87 9.59-2.78 13.48 1.44 5.17 6.22 8.78 10.07 10.84 5.69 3.06 6.29 8.62 3.87 13.19-5.07 9.57-6.23 18.22-2.33 24.19 2.95 4.51 8.73 7 18.52 6.67 6.27-0.21 9.9 4.15 10.01 9.64 0.18 9.15 3.49 17.71 9.52 22.35 4.01 3.08 8.46 3.95 13.25 2.58 4.31-1.23 7.09-3.78 8.49-7.81 2.26-6.51 0.22-15.57-4.76-22.82-3.94-5.74-2.75-11.59 4.1-14.54 5.96-2.57 9.49-6.5 9.75-11.51 0.3-5.91-4.07-14.77-17.35-21.74-5.9-3.1-6.79-8.46-3.97-13.52 2.45-4.4 3.46-8.21 2.51-11.62-1.44-5.16-6.94-8.94-11.3-11.2-1.84-0.96-11.12-5.28-19.98-10.6-4.5-2.7-10.3-1.47-13.37 2.78-5.59 7.74-11.59 15.06-14.25 19.64zm222.67-291.58c-8.84 4.48-14.37 10.6-14.79 16.37-0.39 5.4 4.04 9.54 7.7 12.42 6.08 4.78 5.29 13.25-0.9 16.44-20.23 10.41-29.01 24.19-28.72 33.27 0.18 5.39 3.78 9.41 10.4 12.62 6.25 3.05 7.31 8.87 4.63 13.77-5.38 9.84-9.7 24.29-6.02 33.75 1.81 4.64 5.28 7.57 10.91 9.24 1.98 0.58 3.88 0.87 5.7 0.87 3.36 0 6.49-0.98 9.47-2.97 9.26-6.18 15.77-20.97 16.76-31.93 0.59-6.45 5.28-9.23 10.62-8.71 6.04 0.59 14.24 0.05 19.07-7.17 6.12-9.15 4.47-24.57-3.58-39.7-3.63-6.83 0.87-13.85 7.45-14.45 7.97-0.73 13.76-3.5 16.27-8.19 2.63-4.92 1.83-11.98-2.39-19.26-4.35-7.48-13.47-19.89-19.73-28.56-3.31-4.59-9.57-5.92-14.43-3.02-10.66 6.38-26.14 14.05-28.42 15.21zm84.96-98.88c0.47 4.9 1.9 11.41 6.14 14.69 2.74 2.12 6.57 2.79 11.39 2.09 5.65-0.82 10.71 2.75 11.33 8.42 1.65 15.09 8.03 22.58 13.66 24.53 4.74 1.64 9.8-0.06 14.33-4.71 4.34-4.45 11.48-3.95 14.98 1.61 4.7 7.45 12.5 12.68 19.4 13.03 4.26 0.21 7.67-1.39 10.43-4.93 3.06-3.92 3.93-8.38 2.58-13.25-2.02-7.26-8.45-13.83-16.87-17.11-6.54-2.56-8.22-7.62-5.24-13.5 3.69-7.25 4.06-14.15 0.57-19.17-4.03-5.81-12.37-8.13-23-6.97-5.26 0.57-10.22-2.23-11.04-8.33-0.58-4.35-1.99-10.26-6.28-13.58-3.19-2.47-7.74-3.31-13.54-2.49-4.71 0.67-16.05 3.6-24.27 5.71-4.75 1.22-7.84 5.84-7.07 10.68 1.63 10.3 2.3 21.18 2.5 23.28zm-26.54-120.03c1.7 2.26 4.3 3.66 7.11 3.88 3.21 0.24 7.56 0.97 9.66 3.07l5.59 5.59c6.14 6.14 17.16 5.12 24.55-2.27 7.39-7.4 8.43-18.4 2.27-24.55-5.12-5.12-10.32-6.29-15.43-3.58-4.5 2.37-8.01 4.75-12.42 5.09 1.02-4.45 4.42-10.26 8.36-16.16 3.87-5.79 0.75-12.97-7.13-13.42-6.36-0.36-12.81 2.72-19.18 9.09-6.34 6.33-9.4 12.75-9.09 19.08 0.27 5.62 3.03 10.61 5.71 14.18zm149.01-102.57c-1.1 10.34-5.86 19.07-13.77 25.25-7.22 5.64-15.71 8.04-24.56 6.94-10.65-1.32-20.24-7.36-27.88-14.07-3.51-3.09-8.5-3.88-12.75-1.93-6.14 2.83-12.88 3.62-19.51 2.06-11.69-2.75-21.16-12.17-27-26.27-1.86-4.47-6.25-7.21-11.08-7.16-6.84 0.05-13.52-1.84-19.27-5.71-8.26-5.54-20.44-19.05-19.8-50.3 0.11-5.13-3.17-9.63-7.98-11.4-20.7-7.6-26.1-26.43-27.19-39.27-0.76-8.96 2.69-34.64-1.78-58.97-1.7-9.26-7.41-17.35-15.61-21.98-10.17-5.75-20.12-10.54-30.8-14.38-8.18-2.94-15.71 5.74-11.64 13.42 18.84 35.47 36.87 80.03 49.39 117.55 15.68 47.02 42.74 95.52 63.23 125.22 3.57 5.18 10.27 7.35 16.1 4.99 5.32-2.16 10.82-3.09 16.47-2.79 14.71 0.78 25.88 10.06 30.81 14.99 6.64 6.64 1.64 12.01 8.26 18.63 10.45 10.44 12.25 26.54 5.76 40.15-1.32 2.79-1.58 5.97-0.88 8.97l2.88 12.4-12.44-2.89c-2.95-0.69-6.06-0.47-8.8 0.81-13.75 6.46-30.54 4.06-40.28-5.68-6.62-6.62-11.99-1.62-18.54-8.17-4.89-4.89-14.29-16.1-15.08-30.9-0.51-9.57 2.53-18.72 9.04-27.29-5.39-7.07-11.53-15.94-18-26.12-5.1-8.04-17.5-4.34-17.36 5.18 0.38 25.41-1.17 47.37-2.42 60.06-0.98 9.95 1.72 19.97 7.91 27.82 15.16 19.23 37.26 33.17 48.62 39.65 5.35 3.05 11.61 4.09 17.67 2.98 13.18-2.42 30.74-8.21 38.68-8.21 18.84 0 27.1 10.78 30.82 18.88 1.47 3.21 4.49 5.41 8 5.85 11.41 1.42 20.77 6.63 26.67 15.13 4.8 6.93 6.65 15.32 5.53 23.97-0.48 3.67 0.92 7.28 3.79 9.62 7.25 5.88 12.6 13.6 14.92 21.97 2.96 10.69 0.86 21.36-5.92 30.05-6.58 8.43-15.96 12.77-26.42 12.24-8.25-0.42-16.5-3.85-23.52-9.49-2.82-2.27-6.68-2.93-10.09-1.69-6.6 2.41-13.65 2.55-20.37 0.22-10.69-3.71-18.86-12.93-23.22-25.71-1.14-3.35-3.82-6.04-7.26-6.87-4.16-1.02-7.96-2.83-11.31-5.38-12.99-9.91-11-30.15-15.47-48.81-1.59-6.63-3.95-14.52-12.65-19.36-7.75-4.32-13.9 1.28-11.69 8.11 9.02 27.89 12.48 53.78 10.64 78.56-0.64 8.71 1.48 17.38 6.11 24.78 8.08 12.93 19.07 26.29 22.76 32.81 7.44 13.12 8.39 26.84 2.62 37.63-2.66 4.98-6.53 9.04-11.39 12.07-3.9 2.42-5.89 7.1-4.77 11.55 3.84 15.13 2.24 29.6-4.94 40.33-5.14 7.69-12.73 12.76-21.8 14.82-3.75 0.85-6.85 3.46-8.06 7.11-4 11.99-11.3 24.09-21.85 31.13-9.32 6.22-20.08 7.79-31.13 4.53-11.28-3.32-19.33-10.44-23.28-20.6-4.42-11.33-3.03-24.3 0.61-35.43 1.21-3.69 0.42-7.75-2.26-10.57-5.36-5.64-8.4-12.65-8.65-20.43-0.44-13.53 7.29-27.48 20.96-38.95 3.56-2.99 4.77-7.96 3.03-12.27-1.65-4.11-2.35-8.45-2.03-12.9 0.92-12.7 10.09-24.36 25.18-32 2.12-1.07 16.09-7.06 27.07-14.47 7.58-5.12 12.42-13.47 12.97-22.6 1.77-29.52-4.87-61.15-20.42-96.74-3.72-8.5-16.09-7.38-18.25 1.64-14.44 60.19-36.18 116.51-95.42 189.36-6.99 8.6-9.76 19.79-7.82 30.7 5.19 29.11 2.57 55.7-1.45 80.14-0.85 5.17 2.07 10.11 6.93 12.06 5.59 2.25 10.39 5.57 14.34 9.96 9.85 10.96 11.19 25.41 11.19 32.39 0 9.39-7.34 9.66-7.34 19.02 0 14.77-10.1 27.42-24.31 32.47-2.91 1.03-5.34 3.09-6.97 5.71l-6.73 10.8-6.76-10.84c-1.65-2.65-4.14-4.66-7.07-5.75-14.14-5.23-24.19-18.71-24.19-32.39 0-9.36-7.33-9.63-7.33-18.89 0-6.92 1.28-21.49 11.19-32.52 5.1-5.68 11.61-9.57 19.43-11.66 4.1-1.09 7.26-4.34 7.99-8.52 3.07-17.68 5.51-35.83 4.83-54.99-0.3-8.65-8.83-17.67-19.15-8.54-11.25 9.95-15.68 25.01-17.71 36.51-4.46 25.31-15.21 42.68-25.93 60.66-12 20.15-10.38 31.57-7.8 49.18 0.92 6.24 4.32 11.84 9.43 15.52 8.78 6.32 19.82 10.71 21.6 11.64 12.66 6.58 24.24 18.41 21.61 35.48-0.54 3.47 0.91 6.95 3.57 9.25 10.25 8.85 15.76 19.91 15.18 31.24-0.37 7.08-3.13 13.53-7.81 18.74-2.48 2.76-3.31 6.59-2.25 10.14 2.57 8.59 2.64 17.49-0.06 25.26-3.44 9.89-10.99 16.95-21.27 19.88-10.6 3.02-21.28 0.96-30.08-5.8-6.88-5.29-12.02-13.15-14.75-22.08-1.09-3.53-3.91-6.19-7.5-7.12-8.43-2.21-15.52-7.07-20.13-14.13-5.62-8.59-6.96-19.12-4.08-30.14 0.92-3.5 0.09-7.27-2.4-9.89-13.5-14.24-9.28-30.66-2.89-41.66 2.82-4.85 11.37-14.49 17.58-23.66 3.02-4.45 6.69-11.08 5.22-19.59-1.38-7.93-8.92-10.44-14.33-5.54-15.03 13.63-26.93 30.06-42.14 51.37-3.65-20.65 20.17-54.29 45.93-82.81 14.7-16.27 27.39-30.88 35.78-48.99 4.28-9.23-6.76-17.95-14.71-11.62-17.2 13.68-40.03 32.08-56.64 47.23 0.02-27.43 61.31-72.23 102.73-113.65 23.23-23.23 47.07-49.92 68.64-81.49 5.29-7.74-2.16-17.82-11.1-15.01-16.87 5.3-33.49 12.08-49.39 20.06-7.38 3.71-12.71 10.59-14.27 18.7-3.81 19.84-16.2 52.62-40.75 58.75 8.32-13.42 13.59-25.12 16.97-35.03 2.84-8.36-6.68-15.19-13.94-10.18-23.09 15.92-44.19 34.65-60.06 48.42 7.4-46.2 95.92-102.96 183.98-126.37 9.61-2.56 17.97-8.51 22.3-17.47 27.42-56.65 46.02-126.14 46.02-213.14 0-26.49-3.72-55.72-10.48-85.82-2.04-9.08-14.55-10.13-18.04-1.5-10.75 26.54-19.24 50.73-26.47 75.28-2.46 8.35-1.7 17.31 2.13 25.13 4.01 8.18 10.13 17.57 16.76 26.47 10.21 13.73 11.64 29.12 6.08 40.72-1.96 4.09-4.77 7.56-8.3 10.34-3.7 2.91-5.17 7.88-3.54 12.29 7.82 21.07 5.67 40.89-7.43 52.46-3.27 2.88-7.31 4.65-11.44 6.02-3.73 1.23-6.61 4.32-7.4 8.18-2.37 11.64-7.66 23.77-17.25 31.53-8.55 6.93-19.19 9.15-30.75 6.42-11.33-2.68-20-9.45-25.05-19.58-5.74-11.49-6.09-25.78-3.58-38.33 0.74-3.72-0.41-7.61-3.24-10.15-7.12-6.39-11.36-14.76-12.03-24.23-0.93-13.05 4.96-26.6 15.97-37.99 3.24-3.35 3.84-8.47 1.61-12.56-2.79-5.11-4.16-10.65-4-16.38 0.34-12.36 8.06-23.93 21.17-31.72 6.77-4.02 25.4-11.35 38.84-18.69 6.64-3.63 11.53-9.76 13.68-17 9.38-31.59 20.8-62.63 36.31-98.63 3.28-7.61 9.92-24.78 4.44-40.32-5.48-15.55-17.77-8.82-21.23-2.86-8.3 14.29-13.89 25.06-22.58 41.95-7.67-14.98 1.8-40.14 18.56-72.77 4.01-7.81 4.06-17.04 0.17-24.91-6.97-14.08-14.43-27.73-22.31-40.69-2.93-4.81-8.21-6.57-13.62-3.75-5.41 2.83-6.54 9.56-4.83 13.41 8.03 18.07 10.6 37 6.47 51.29-3.16 10.96-10.02 19.17-19.85 23.71-22.09 10.23-43.3-1.45-59.11-19.45-3.95-4.5-10.14-6.11-15.86-4.35-8.22 2.51-16.7 2.17-24.51-1.25-12.4-5.42-21.24-17.56-25.35-34.02-1.5-5.99-6.52-10.59-12.65-11.29-8.95-1.03-17.03-4.68-23.27-10.77-8.59-8.39-16.69-24.06-12.27-52.76 0.96-6.24-1.98-12.44-7.52-15.46-19.41-10.59-20.72-34.15-19.57-49.73 1.97-26.8 2.43-39.72 0.17-63.74-1.01-10.66-7.28-20.12-16.74-25.15-10.66-5.69-23.18-11.18-37.23-16.19-8.55-3.04-16.41 4.23-12.98 13.9 3.43 9.66 8.89 13.07 16.08 15.72 6.08 2.24 11.25 5.71 15.47 10.4 9.84 10.96 11.18 25.41 11.18 32.38 0 9.4-7.33 9.66-7.33 19.03 0 14.77-10.1 27.42-24.32 32.46-2.9 1.03-5.33 3.1-6.96 5.72l-6.73 10.8-6.76-10.84c-1.65-2.65-4.14-4.66-7.07-5.75-14.15-5.23-24.19-18.71-24.19-32.39 0-9.37-7.33-9.63-7.33-18.89 0-6.92 1.28-21.49 11.18-32.52 3.21-3.56 6.96-6.42 11.25-8.57 5.89-2.96 8.13-10.29 5.05-16.12-4.18-7.93-9.02-14.65-13.34-19.87-5.84-7.05-14.02-11.74-23.04-13.26-23.34-3.94-56.2-7.68-95.34-5.92-8.37 0.38-12.21 8.82-7.08 16.54 5.14 7.72 11.06 10.5 18.15 12.59 9.75 2.87 20.74 6.95 29.06 10.11 14.89 5.65 24.92 17.39 23.04 34.86-0.39 3.58 1.25 7.05 4.09 9.25 9.01 7 14.36 16.18 15.13 26.42 0.63 8.42-2.03 16.59-7.39 23.47-2.27 2.92-2.9 6.74-1.61 10.21 3.27 8.75 3.96 18.11 1.72 26.5-2.87 10.72-10.09 18.85-20.34 22.91-9.95 3.93-20.24 2.91-28.98-2.85-6.89-4.54-12.27-11.69-15.45-20.11-1.28-3.39-4.28-5.91-7.85-6.57-6.91-1.27-13.05-4.72-17.67-10.14-7.37-8.66-9.72-20.85-6.93-34.16 0.71-3.38-0.23-6.95-2.66-9.41-11.56-11.64-10.61-28.41-4.59-41.27 3.89-8.3 6.59-14.28 8.39-19.39 3.16-8.96 0.9-18.92-5.79-25.67-3.39-3.42-6.81-6.43-10.01-9.01-7.89-6.36-18.18-8.89-28.15-7.05-46.26 8.54-92.77 24.98-133.66 40.12 3.61-12.7 23.18-23.67 39.42-31.06 7.43-3.39 13.84-8.67 18.51-15.37 55.38-79.49 122.65-111.42 160.35-102.19-53.31 17.641-85.5 40.391-114.43 73.269-7.69 8.75-6.07 22.36 19.95 17.69 21.96-3.93 33.71-15.92 39.87-20.89 18.99-15.299 38.06-23.729 51.11-28.178 9.74-3.32 17.18-11.281 20.01-21.172 2.1-7.301 7.01-37.379 11.57-50.879 6.9-20.41 23.44-29.012 40.99-27.062 4.2 0.461 8.34-1.071 10.64-4.629 15.11-23.43 31.36-27.84 40.52-28.16 6.28-0.219 12.31 1.359 17.66 4.468 3.79 2.203 8.48 1.852 11.81-0.988 10.51-8.969 22.2-13.879 33.41-13.879 13.27 0 21.96 6.141 27.28 13.66 2.32 3.27 6.23 5.039 10.17 4.348 15.53-2.731 30.65-1.188 41.19 4.582 8.64 4.73 14.26 12.07 16.24 21.238 3.87 17.84-6.26 34.461-26.95 45.672-3.67 1.981-5.76 5.938-5.43 10.098 0.59 7.441-1.32 14.582-5.71 20.57-6.87 9.371-18.64 14.512-33.08 14.859-4.4 0.102-8.23 2.883-9.69 7.043-2.55 7.258-7.13 13.321-13.41 17.411-8.6 5.588-23.13 9.448-45.98 0.476-3.97-1.558-8.57-0.707-11.43 2.462-13.53 15.04-32.66 11.41-45.25 7.6-19.2-5.81-31.95-9.3-48.44-11.492-12.79-1.699-23.21-0.968-37.78 4.802-18.27 7.24-14.1 18.83 3.14 18.83 44.33 0 98.72 7.39 129.04 16.66 7.79 2.38 16.14 1.8 23.6-1.47 15.72-6.9 33.96-10.36 54.59-10.36 12.53 0 25.94 1.27 40.2 3.82 20.12 3.6 37.36 9.01 48.13 12.84 8.41 2.99 17.76 3.33 25.99-0.11 28.95-12.13 46.81-29.03 70.92-29.03 22.53 0 32.87 15.21 36.13 21.5 2.21 4.28 6.8 6.72 11.57 6.12 23.71-2.99 42.52 2.43 52.99 15.68 4.55 5.75 7.08 12.49 7.58 19.65 0.38 5.31 4.2 9.79 9.47 10.56 15.26 2.23 26.87 9.07 32.73 19.8 4.33 7.95 4.98 16.95 2.15 25.83-1.42 4.44-0.07 9.25 3.49 12.27 11.67 9.89 19.14 21.03 21.1 31.91 1.71 9.48-0.67 18.58-6.9 26.32-11.97 14.87-32.2 17.49-55 7.93-4.13-1.74-8.85-0.8-12.09 2.31-5.65 5.41-12.71 8.59-20.47 8.95-12.22 0.59-24.19-5.72-34-17.42-2.89-3.45-7.51-5.01-11.79-3.62-8.12 2.63-18.21 2.63-28.97-1.76-4.64-1.9-8.17 4.83-4.43 7.61 19.68 14.58 30.57 30.94 36.21 39.97 2.11 3.38 5.6 5.64 9.53 6.25 10.37 1.6 19.81 3.8 28.69 6.53 3.72 1.14 7.73 0.66 11.09-1.29 40.44-23.47 80.5-22.88 91.14-8.47-26.52 2.21-47.35 5.85-60.75 12.88-4.85 2.55-8.56 9.39 2.3 16.18 8.9 5.57 14.28 6.42 26.98 6.42h61.92c27.77 0 47.18 14.28 50.76 35.25 0.82 4.81 4.32 8.65 9.05 9.8 19.67 4.77 33.91 15.39 39.55 30.12 2.7 7.07 3.07 14.42 1.25 21.42-1.25 4.85 0.69 9.92 4.78 12.8 12.96 9.13 20.92 21.4 21.41 34.17 0.28 7.31-1.96 14-6.39 19.59-2.87 3.63-3.06 8.66-0.86 12.73 6.72 12.42 9.89 25.2 8.71 36.26"/>
      <path d="m1525.3 1210.3c-7.8 6.28-14.1 15.48-10.72 31.15 2.83 13.18 12.42 15.12 17.48 10.93 24.67-20.44 52.51-44.79 71.56-63.84 3.06 17.97-38.76 61.38-69.98 87.19-7.63 6.3-11.37 16.15-10.01 25.96 10.58 76.36-17.05 124.29-26.78 128.13 17.66-66.18 10.99-114.4 2.37-159.14-10.24-53.2-16.2-130.44 14.86-160.24-2.29 26.02-5.67 45.68-4.07 69.43 0.59 8.72 7.75 12.63 14 6.51 10.08-9.87 21.11-17.21 30.55-27.98 5.2-5.92 6.49-13.08 5.07-20.83-3.01-16.42-2.01-36.07 9.93-53.57 1.55 11.04 2.47 23.31 4.36 33.32 1.56 8.32 13.28 10.08 18.4 3.34 11.99-15.77 22.64-31.13 32.37-44.64 5.47 31.96-37.87 84.66-99.39 134.28"/>
      <path d="m2315.2 1266s-1.17-8.37-2.63-16.99c-0.9-5.36-4.44-9.97-9.47-12.01-14.13-5.72-24.83-14.65-26.65-27.03 0 0 9.25 3.9 21.17 6.95 6.65 1.7 12.75-4.09 11.46-10.84-4.84-25.38-14.55-41.76-40.61-72.85 0-34.03-13.89-54.78-52.13-78.59 39.95-4.5 69.76 32.27 73.8 61.9 1.24 9.16 4.54 17.96 10.18 25.28 9.08 11.82 17.23 27.43 21.57 38.93 12.8 34 6.4 74.75-6.69 85.25"/>
      <path d="m2569.5 1177.9c-8.43 0-15.26-6.83-15.26-15.26 0-8.42 6.83-15.25 15.26-15.25 8.42 0 15.25 6.83 15.25 15.25 0 8.43-6.83 15.26-15.25 15.26"/>
      <path d="m3345.8 916.88c-28.5 21.91-103.86 76.441-123.28 74.351 40.4-26.582 92.51-67.199 115.15-86.101 3.76-3.129 10.15-10.078 7.7-17.848-2.19-6.972-9.61-5.57-14.28-1.461-117.45 103.52-184.23 121.64-261.55 142.61-8.19 2.22-33.64 9.6-56.22 16.02-21.9 6.21-42.07 17.38-58.89 32.71-20.43 18.61-43.53 37.32-69.93 52.21-50.03 28.21-105.07 42.23-136.81 30.29 82.64-8.83 133.58-37.66 183.97-81.39 6.56-5.69 3.47-13.68-9.75-11.38-13.21 2.31-20.14 9.29-24.9 13.79-21.09 19.91-69.56 53.81-153.51 50.84-11.56-0.41-16.75 0.06-31.73 6.04-36.2 14.46-86.6 22.53-103.79 12.19 39.28-4.21 72.89-12.42 109.69-30.79 5.92-2.96 11.36-7.16 21.92-6.66 55.47 2.63 93.89-12.16 116.67-25.32 8.47-4.89 15.44-9.92 21-14.47 5.98-4.9 3.76-14.49-3.74-16.38-38.09-9.58-98.79-2.29-141.94 13.48 10.74-18.14 60.75-31.82 102.22-31.82 21.69 0 42.27 2.94 57.76 9.39 6.93 2.88 14.57 3.51 21.92 1.97 25.98-5.44 82.85-17.83 108.21-27.09 6.39-2.33 9.23-5.34 9.13-9.52-0.09-3.61-2.95-8.14-10.72-10.03-26.13-6.35-96.83-19.319-188.7-2.791-69.52 12.501-114.57 37.321-132.02 54.781-10.21 10.2-26.19 34.41-3.93 53.72-24.64 4.64-41.71-34.92-9.54-67.19 20.3-20.37 68.34-46.792 142.11-60.061 34.15-6.149 65.52-8.348 92.98-8.348 11.95 0 23.15 0.41 33.52 1.109 9.44 0.629 14.43-11.089 7.31-17.332-33.43-29.339-80.43-47.816-126.83-47.816-87.21 0-155.51 69.387-215.77 130.61-4.9 4.98-18.97 20.8-27.09 28.4-5.51 5.17-4.31 14.88 2.99 19.47 18.65 11.71 26.59 16.87 29.77 32.35-14.09-10.92-27.29-16.24-40.65-17.83-8.78-1.05-26.56-1.95-44.96 9.35-17.16 10.54-34.77 17.1-66.73 27.18-6.58 2.07-6.21 11.56 0.53 13.03 8.21 1.8 16.32 2.97 23.08 3.69 8.39 0.88 16.84-1.1 23.92-5.69 4.91-3.19 10.13-7.07 14.35-10.85 1.99 8.48-2.37 16.33-7.93 21.95-4.51 4.56-5.65 11.5-3.01 17.34 9.45 20.88 22.55 38.22 49.75 43.43 23.16 4.45 42.47-4.93 61.13-14.03 26.58-12.95 42.06-15.14 74.72-16.39 36.76-1.42 87.08-3.71 135.24-23.56 47.8-19.71 75.38-39.71 99.71-57.37 28.02-20.32 52.22-37.88 97.27-49.93 16.84-4.51 35.17-8.37 54.57-12.47 75.92-16.02 170.41-35.95 253.55-112.48 4.37-4.031 6.82-8.472 6.82-13.73 0-5.66-5.17-8.242-10.46-4.172zm16.54 31.91c-86.99 80.081-184.31 100.61-262.51 117.11-19.15 4.04-37.24 7.86-53.59 12.23-41.64 11.14-64.51 27.74-91 46.95-25.19 18.28-53.75 38.99-103.64 59.56-51.26 21.13-103.54 23.06-141.69 24.98-33.08 1.67-44.19 3.46-67.19 14.49-20.53 9.85-43.67 21.26-73.06 15.62-36.32-6.97-53.22-31-64.37-56.25-2.42-5.48-7.52-9.3-13.47-9.98-18.9-2.17-49.81-7.95-67.58-22.96-4.68-3.95-5.34-11.75 1.86-15.76 9.86-5.48 23.69-9.69 39.67-14.54 21.15-6.42 45.12-13.7 63.22-25.34 23.66-15.22 49.41-41.37 76.67-69.07 29.86-30.342 63.7-64.728 101.09-90.908 30.34-21.242 59.87-34.891 89.4-41.231 7.46-1.601 9.81-11.082 3.93-15.941-7.01-5.801-14.13-12.289-20.76-19.379-3.08-3.293-7.23-5.332-11.7-5.769-18.74-1.84-39.12-10.442-36.04-31.981 5.83 4.668 11.04 7.969 16.98 9.789 4.64 1.43 9.12-2.469 8.7-7.308-0.48-5.551 0.87-11.711 5.03-16.661 10.4 18.649 31.2 39.34 35.62 43.707 14.57 14.411 31.09 25.981 42.31 33.114 6.65 4.226 14.1 7.097 21.91 8.187 19.49 2.723 38.66 8.27 56.67 16.129 4.02 1.762 8.82-0.129 10.54-3.996 1.72-3.871 0.08-8.82-3.97-10.66-18.82-8.57-46.56-22.742-75.61-40.582-4.61-2.828-9.68-4.91-15.02-5.762-24.49-3.918-44.21-25.019-35.27-44.949 5.26 8.211 10.09 13.59 15.14 17.23 4.72 3.403 11.1-0.179 10.88-6-0.31-7.75 2.89-14.539 7.91-19.918 6.5 28.707 20.28 39.43 24.88 42.27 37.31 23.008 74.71 41.059 90.58 46.969 4.93 1.832 7.8 7.519 4.84 13.968l-6.76 14.75c-2.29 5.012-0.62 10.973 4 13.973 17.37 11.277 32.82 24.828 45.3 40.027 9.7 11.813 16.32 15.922 28.35 19.102 10.48 2.762 18.12 9.621 22.58 18.01 4.42 8.31 10.11 10.03 17.38 8.03 78.06-21.419 139.82-37.931 253.95-138.51 8.8-7.761 16.5-9.793 22.15-9.793 8.89 0 15.6 5.102 19.27 11.121 2.92 4.782 4.2 9.832 4.81 14.641 0.5 3.891 2.03 7.539 4.32 10.719 2.4 3.34 4.42 7.48 5.35 12.269 2.94 15.09-1.23 28.332-12.06 38.301"/>
      <path d="m1746.6 2131.1c-4.17 18.91 0.91 38.51 6.84 61.38 1.86 7.16 3.79 14.6 5.52 22.38 1.58 7.09 11.68 7.11 13.34 0.04 2.96-12.65 4.25-24.77 4.23-35.18-0.05-19.5-4.16-36.62-12.27-51.16-4.26-7.64-15.77-6-17.66 2.54zm-10.39-82.67c-32.77-33.73-44.1-45.25-55.28-65.92-9.32-17.23-18.45-25.03-33.93-28.34-9.77-2.09-30.23 0-48.19 3.07 7.45-11.47 23.96-17.2 41.05-20.14 12.7-2.18 17.19-12.01 13.94-22.38-4.06-12.98-10.67-35.09-13.26-43.95-26.82-91.57-57.22-195.35-142.77-241.26-48.84-26.21-109.55-31.9-160.03-17.14-7.3 2.14-10.88 11.52-2.12 15.42 8.76 3.89 18.88 0.43 24.58-0.63 12.7-2.37 25.46-3.55 38.06-3.55 51.68 0 99.7 23.94 104.1 40.9-33.39-18.09-68.14-28.33-107.35-26.94-9.47 0.34-12.54 12.89-4.3 17.56 23.61 13.38 48.96 29.96 74.8 50.45 64.91 51.48 97.36 102.41 106.97 132.62 14.99 47.11-17.96 74.29-42.46 60.71 36.01-9.83 28.93-39.59 24.22-55.2-7.94-26.34-39.04-74.41-100.57-123.2-81.21-64.41-157.23-88.85-186.14-96.36-9.14-2.38-14.71 0.85-16.88 4.66-2.53 4.46-1.07 10.22 3.81 15.04 0.03 0.03 0.04 0.06 0.07 0.08 0.06 0.07 0.13 0.12 0.19 0.18 24.32 25.91 61.12 57.74 80.25 73.89 7.26 6.13 16.11 10.12 25.54 11.3 70.79 8.87 157.42 85.42 152.97 111.92-29.62-35.8-88.15-82.55-141.9-95.23-8.06-1.9-14.81 6.26-11.51 13.86 4.06 9.3 9.58 20.45 16.92 32.41 18.13 29.55 51.38 70.36 106.99 96.63 4.09 1.93 6.44 4.71 9.24 8.8 8.4 12.26 37.9 52.34 99.24 85.75-23.04 3.71-82.39-31.45-116.72-77.38-60.06-28.48-95.89-72.54-115.38-104.49-9.05-14.83-15.5-28.42-19.93-39.2-4.04-9.83-7.06-20.86-17.54-29.63-10.49-8.78-17.94-0.26-13.63 10.15 12.93 31.22 27.01 58.11 42.53 81.27 27.36 40.84 64.21 75.24 103.68 104.35-32.72-2.52-86.87-53.59-115.56-96.4-19.3-28.82-36.41-63.11-51.84-103.98-9.61-25.46-24.7-48.5-44.15-67.51-15.48-15.13-31.71-31.06-37.81-36.83-64.43-60.92-120.07-113.53-180.45-275.96-2.14-5.76-10.28-12.17-16.93-5.88-6.66 6.28-3.36 17.08-1.44 22.32 11.13 30.36 36.11 91.69 94.95 178.56-38.38-20.65-87.53-126.18-106.41-169.8-3.469-8.01-9.403-10.79-14.34-6.15-4.942 4.64-3.949 12.33-1.336 19.85 41.177 118.58 123.13 187.67 188.98 243.19 16.79 14.16 32.66 27.53 46.72 40.74 37.54 35.25 51.94 64.99 68.61 99.44 14.53 30.05 31.01 64.1 67.45 108.49 36.74 44.76 84.92 73.2 120 94.12 35.25 21.02 44.77 28.05 64.07 54.88 13.54 18.82 27.61 38.23 52.88 46.13 31.02 9.7 53.76-1.79 74.88-18.53 4.55-3.61 6.34-9.74 4.42-15.24-2.88-8.26-3.18-18.19 2.93-26.93 3.83 16.04 11.77 29.53 27.19 36.2 8.06 3.49 19.45 7.68 31.44 10.61 6.64 1.62 11.25-6.49 6.49-11.4zm30.95 33.28c-3.13 0.49-5.53 2.6-6.51 5.43-0.97 2.83-0.38 5.8 2.02 8.23 21.24 21.56 32.83 50.35 32.91 84.31 0.06 25.46-6.08 47.38-11.24 61.29-6.41 17.29-14.69 31.45-22.78 38.94-2.42 2.25-5.8 3.31-9 2.5-4.6-1.15-7.54-5.37-7.23-9.9 1.91-28.05-4.31-52.04-10.33-75.25-8.52-32.86-16.6-64.06 3.75-96.23 2.01-3.18 4.04-7.54 2.06-13.1-1.99-5.56-6.39-7.66-11.05-8.68-13.29-2.9-25.88-7.27-35.37-11.03-6.78-2.69-14.44-1.52-20.2 2.96-23.84 18.5-52.57 32.74-91.01 20.73-31.33-9.8-47.98-32.83-62.64-53.17-16.82-23.31-26.88-31.52-58.34-49.64-36.62-21.1-86.15-51.07-125.02-98.43-37.87-46.14-54.87-81.27-69.87-112.27-15.85-32.74-29.53-61.02-64.5-93.85-13.69-12.86-29.37-26.08-45.96-40.06-67.63-57.02-151.8-127.98-194.7-251.51-5.231-15.06-7.567-37.16 19.543-51.71 3.972-2.12 7.574-4.93 10.203-8.6 3.035-4.23 11.311-14.91 24.571-14.91 11.94 0 21.67 8.94 27.05 23.44 58.83 158.27 110.4 207.02 175.68 268.75 4.38 4.15 12.83 7.44 21.23 1.13 6.08-4.58 13.77-6.78 21.23-6.78 5.36 0 13.75 2.12 20.99 4.24 5.66 1.67 11.74 1.14 17-1.53 23.2-11.79 49.83-18.74 77.48-20.86 5.65-0.43 10.16-4.89 10.5-10.55 0.61-9.97 1.26-20.79 1.41-23.41 0.3-5.12 5.52-8.87 10.73-8.14 23.39 3.2 73.26 7.41 120.06 5.17 14.45-0.7 27.95-10.22 43.23-28.68 2.4 7.74 2.14 16.25-1.49 23.95-2.47 5.25 1.92 11.2 7.64 10.23 9.05-1.53 16.4-5.25 23.32-8.54-0.5 12.27-7.54 20.67-18.86 24.71-8.56 3.05-21.13 5.14-35.97 0.31-6.49-2.12-13.3-3.1-20.12-2.78-38.85 1.79-76.5-0.85-99.22-3.08-6.06-0.59-11.77 2.74-11.57 10.22 0.14 5.72 4.68 10.38 10.38 10.89 21.56 1.94 43.03 6.72 63.32 14.38 9.28 3.5 19.23 4.76 29.11 3.93 15.93-1.36 39.52-5.01 62.55-12.91 18.69-6.42 32.58-12.37 48.26-20.11 0 8.04-3.9 14.75-8.6 20.64-3.31 4.15-2.56 9.95 3.66 11.81 8.15 2.43 18.5 0.71 27.5 0.07-7.56 17.98-33.47 23.15-54.11 8.07-3.1-2.27-7.42-3.56-11.03-2.27-11.23 3.98-22.52 6.88-33.1 9-7.81 1.56-10.25 11.41-4.12 16.5 26.16 21.74 48.34 50.91 67.19 88.27 22.75 45.07 37.77 96.35 51.02 141.59 12.12 41.39 23.58 80.48 38.77 107.85 11.64 20.98 31.29 40.7 48.63 58.1 13.2 13.24 24.72 24.6 31.24 35.23 3.83 6.25 0.77 13.39-10.3 15.11"/>
      <path d="m115.07 321.13v-106.14c0-4.148-0.742-7.207-2.218-9.187-1.481-2-4.211-2.992-8.192-2.992-5.8397 0-10.07 1.632-12.695 4.882-2.621 3.258-3.9335 8.739-3.9335 16.45v96.988h-56.113v-99.91c0-7.367-1.25-12.278-3.7461-14.731-2.4961-2.449-6.793-3.679-12.887-3.679-3.9805 0-6.7071 0.992-8.1875 2.992-1.4805 1.98-2.2227 5.039-2.2227 9.187v106.14c0 4.152 0.74219 7.211 2.2227 9.199 1.4805 1.992 4.207 2.981 8.1875 2.981h89.375c3.981 0 6.711-0.989 8.192-2.981 1.476-1.988 2.218-5.047 2.218-9.199"/>
      <path d="m223.98 213.22c4.657 0 8.911 0.781 12.762 2.34 3.852 1.57 7.172 4.39 9.965 8.453 2.793 4.058 4.949 9.648 6.477 16.758 1.519 7.109 2.285 16.21 2.285 27.289 0 10.75-0.781 19.66-2.352 26.722-1.566 7.071-3.746 12.699-6.539 16.891-2.793 4.18-6.109 7.109-9.965 8.75-3.851 1.656-8.058 2.476-12.633 2.476-4.398 0-8.503-0.82-12.312-2.476-3.809-1.641-7.129-4.57-9.965-8.75-2.84-4.192-5.058-9.82-6.668-16.891-1.605-7.062-2.41-15.972-2.41-26.722 0-10.661 0.719-19.528 2.156-26.598 1.442-7.063 3.535-12.699 6.285-16.883 2.75-4.187 6.051-7.129 9.903-8.816 3.851-1.692 8.187-2.543 13.011-2.543zm0-10.41c-9.39 0-17.792 1.351-25.199 4.062-7.406 2.699-13.644 6.801-18.722 12.25-5.082 5.457-8.954 12.25-11.618 20.379-2.668 8.121-4 17.641-4 28.559 0 11.011 1.399 20.613 4.192 28.82 2.793 8.211 6.769 15 11.93 20.383 5.164 5.367 11.41 9.386 18.726 12.047 7.32 2.679 15.555 4 24.691 4 9.227 0 17.524-1.321 24.883-4 7.364-2.661 13.629-6.7 18.789-12.118 5.164-5.421 9.098-12.211 11.809-20.382 2.711-8.161 4.062-17.739 4.062-28.75 0-10.918-1.312-20.438-3.933-28.559-2.625-8.129-6.477-14.922-11.555-20.379-5.078-5.449-11.316-9.551-18.726-12.25-7.407-2.711-15.848-4.062-25.329-4.062"/>
      <path d="m347.24 214.99h57.004v106.14h-41.64v-25.77c0-19.211-1.207-35-3.622-47.359-2.41-12.352-6.328-23.359-11.742-33.012zm-26.66 0h7.492c5.84 7.793 10.2 17.762 13.075 29.91 2.875 12.141 4.316 28.961 4.316 50.461v25.77c0 4.23 0.781 7.32 2.352 9.262 1.566 1.949 4.332 2.918 8.312 2.918h64.746c3.981 0 6.711-0.989 8.192-2.981 1.476-1.988 2.218-5.047 2.218-9.199v-106.14h11.426c5.586 0 8.379-2.656 8.379-7.988v-24.25c0-3.719-0.719-6.48-2.156-8.25-1.442-1.781-3.938-2.668-7.492-2.668-5.5 0-9.266 1.066-11.297 3.238-2.032 2.149-3.047 6.621-3.047 13.391v14.348h-91.028v-14.348c0-6.77-0.996-11.242-2.98-13.391-1.988-2.172-5.734-3.238-11.238-3.238-3.637 0-6.157 0.887-7.551 2.668-1.399 1.77-2.098 4.531-2.098 8.25v24.25c0 5.332 2.793 7.988 8.379 7.988"/>
      <path d="m521.14 214.99h57v106.14h-41.641v-25.77c0-19.211-1.203-35-3.617-47.359-2.41-12.352-6.328-23.359-11.742-33.012zm-26.66 0h7.488c5.84 7.793 10.203 17.762 13.078 29.91 2.875 12.141 4.316 28.961 4.316 50.461v25.77c0 4.23 0.782 7.32 2.348 9.262 1.566 1.949 4.336 2.918 8.316 2.918h64.747c3.98 0 6.707-0.989 8.187-2.981 1.481-1.988 2.223-5.047 2.223-9.199v-106.14h11.425c5.586 0 8.379-2.656 8.379-7.988v-24.25c0-3.719-0.718-6.48-2.16-8.25-1.437-1.781-3.933-2.668-7.488-2.668-5.504 0-9.27 1.066-11.301 3.238-2.031 2.149-3.047 6.621-3.047 13.391v14.348h-91.023v-14.348c0-6.77-0.996-11.242-2.985-13.391-1.988-2.172-5.734-3.238-11.234-3.238-3.641 0-6.156 0.887-7.555 2.668-1.394 1.77-2.093 4.531-2.093 8.25v24.25c0 5.332 2.793 7.988 8.379 7.988"/>
      <path d="m727.02 322.9c-8.378 0-15.214-3.527-20.503-10.597-5.286-7.063-8.485-18.09-9.582-33.071h48.621c3.046 0 5.269 0.551 6.668 1.649 1.394 1.109 2.093 3.09 2.093 5.973 0 5.839-0.742 11.007-2.222 15.488-1.481 4.48-3.473 8.25-5.965 11.301-2.496 3.039-5.399 5.347-8.699 6.918-3.301 1.562-6.774 2.339-10.411 2.339zm40.879-87.339c0.762 0.929 1.715 1.652 2.86 2.16 1.14 0.511 2.347 0.761 3.617 0.761 1.523 0 2.898-0.511 4.125-1.519 1.226-1.02 1.84-2.332 1.84-3.941 0-3.211-1.098-6.18-3.301-8.879-11.598-14.219-27.547-21.332-47.859-21.332-10.157 0-19.086 1.41-26.789 4.25-7.7 2.839-14.11 6.941-19.235 12.312-5.121 5.379-8.969 11.891-11.551 19.551-2.582 7.668-3.871 16.316-3.871 25.969 0 22.429 5.184 39.437 15.551 51.031 10.367 11.59 25.496 17.387 45.387 17.387 7.871 0 15-1.137 21.39-3.418 6.391-2.289 11.872-5.661 16.442-10.09 4.57-4.449 8.105-9.93 10.597-16.449 2.497-6.512 3.747-13.961 3.747-22.34 0-8.473-4.907-12.703-14.727-12.703h-69.949c-0.082-0.668-0.149-1.5-0.192-2.481-0.043-0.957-0.062-2.047-0.062-3.226 0-7.454 0.719-14.153 2.156-20.122 1.442-5.96 3.641-11.039 6.602-15.242 2.965-4.179 6.711-7.398 11.238-9.648 4.523-2.231 9.883-3.36 16.059-3.36 5.078 0 9.437 0.661 13.074 1.981 3.637 1.301 6.75 2.91 9.332 4.82 2.582 1.891 4.762 3.91 6.539 6.028 1.777 2.113 3.301 3.929 4.57 5.453l2.41 3.047"/>
      <path d="m922.51 272.58c0 8.652-0.656 15.75-1.969 21.352-1.312 5.601-3.152 10.019-5.519 13.281-2.372 3.258-5.207 5.559-8.508 6.867-3.301 1.313-6.899 1.973-10.789 1.973-3.555 0-7.157-0.891-10.793-2.672-3.637-1.777-6.938-4.09-9.903-6.93-2.964-2.84-5.394-6.078-7.3-9.719-1.903-3.652-2.856-7.371-2.856-11.191v-56.43c0-1.961 0.551-3.879 1.649-5.789 1.101-1.898 2.687-3.601 4.761-5.082 2.074-1.488 4.59-2.687 7.555-3.629 2.965-0.918 6.266-1.39 9.902-1.39 5.078 0 9.711 0.972 13.903 2.922 4.187 1.949 7.742 5.23 10.664 9.847 2.918 4.621 5.183 10.723 6.793 18.301 1.605 7.59 2.41 17.012 2.41 28.289zm-84.422-114.71v164.27c0 7.449 3.383 11.168 10.152 11.168 5.586 0 9.696-1.75 12.317-5.27 2.621-3.5 3.98-9.199 4.062-17.07v-2.028h0.254c2.285 3.809 4.805 7.239 7.555 10.278 2.75 3.051 5.773 5.613 9.078 7.691 3.301 2.07 6.98 3.649 11.043 4.75 4.062 1.11 8.59 1.649 13.586 1.649 29.707 0 44.558-19.579 44.558-58.77 0-11.937-1.418-22.367-4.253-31.301-2.836-8.929-6.918-16.398-12.25-22.41-5.333-5.996-11.829-10.508-19.489-13.508-7.66-3.011-16.312-4.511-25.961-4.511-8.804 0-16.675 1.652-23.613 4.953v-43.672c0-3.719-0.297-6.789-0.891-9.211-0.589-2.399-1.543-4.32-2.855-5.707-1.313-1.402-3.027-2.352-5.141-2.863-2.113-0.5-4.695-0.758-7.746-0.758-4.058 0-6.808 0.98-8.25 2.918-1.441 1.941-2.156 5.082-2.156 9.402"/>
      <path d="m1068.4 276.95v44.18c0 3.723 0.91 6.691 2.73 8.883 1.82 2.199 5.18 3.297 10.09 3.297 4.74 0 8.17-1.008 10.28-3.039 2.12-2.032 3.18-6.309 3.18-12.821v-40.5h7.61l41.01 45.699c6.43 7.114 12.78 10.661 19.04 10.661 4.83 0 7.24-2.149 7.24-6.469 0-2.699-1.46-5.418-4.38-8.121-2.92-2.707-7.26-6.239-13.01-10.598-5.76-4.371-10.62-8.609-14.6-12.762-2.37-2.461-5.42-5.718-9.14-9.781-3.73-4.058-6.82-7.316-9.27-9.769l49.13-59.797c2.96-3.211 4.44-5.973 4.44-8.25 0-1.614-0.78-2.832-2.35-3.684-1.56-0.848-4.88-1.269-9.96-1.269-5.5 0-9.57 0.632-12.19 1.902-2.62 1.269-4.95 3.301-6.98 6.098l-41.13 54.461h-5.46v-46.59c0-6.098-1.1-10.27-3.3-12.508-2.21-2.242-5.59-3.363-10.16-3.363-5 0-8.38 0.972-10.16 2.921-1.77 1.942-2.66 5.04-2.66 9.258v50.282h-5.46l-41.01-54.461c-2.11-2.797-4.48-4.829-7.11-6.098-2.62-1.27-6.68-1.902-12.18-1.902-5.08 0-8.381 0.421-9.909 1.269-1.519 0.852-2.285 2.07-2.285 3.684 0 2.367 1.481 5.117 4.446 8.25l49.128 59.797c-2.28 2.281-5.29 5.453-9.01 9.519-3.73 4.063-6.9 7.402-9.52 10.031-3.89 4.153-8.72 8.391-14.48 12.762-5.75 4.359-10.09 7.891-13.009 10.598-2.918 2.703-4.379 5.422-4.379 8.121 0 4.32 2.41 6.469 7.238 6.469 6.26 0 12.57-3.547 18.91-10.661l41.14-45.699h7.49"/>
      <path d="m1251.8 311.99v-34.527h8.51l45.57 45.187c3.89 3.903 7.3 6.641 10.22 8.25 2.92 1.614 5.91 2.411 8.95 2.411 4.91 0 7.37-2.149 7.37-6.469 0-3.211-1.32-6.11-3.94-8.699-2.62-2.582-7.11-5.993-13.46-10.219-6.34-4.223-11.55-8.082-15.61-11.551-3.89-3.301-11.17-9.941-21.84-19.93l51.16-60.429c3.13-3.551 4.7-6.313 4.7-8.25 0-1.114-0.21-1.953-0.63-2.543-0.43-0.598-1.61-1.141-3.56-1.649-1.95-0.511-4.7-0.761-8.25-0.761-5.76 0-9.92 0.613-12.51 1.832-2.58 1.23-5.01 3.281-7.29 6.168l-43.17 54.461h-6.22v-44.051c0-7.367-1.25-12.278-3.74-14.731-2.5-2.449-6.8-3.679-12.89-3.679-3.98 0-6.71 0.992-8.19 2.992-1.48 1.98-2.22 5.039-2.22 9.187v106.14c0 4.152 0.74 7.211 2.22 9.199 1.48 1.992 4.21 2.981 8.19 2.981 5.84 0 10.07-1.629 12.69-4.879 2.63-3.258 3.94-8.739 3.94-16.442"/>
      <path d="m1460.6 272.5h-15.12c-28.43 0-42.65-10.352-42.65-31.051 0-14.25 7.53-21.379 22.59-21.379 3.3 0 7 0.641 11.06 1.91 4.06 1.282 7.89 3.18 11.48 5.731 3.6 2.539 6.6 5.719 9.03 9.539 2.4 3.82 3.61 8.27 3.61 13.371zm1.01-45.191-0.76 0.25c-5.68-8.629-12.18-14.911-19.55-18.848-7.36-3.93-16.13-5.902-26.28-5.902-6.43 0-12.11 0.82-17.01 2.48-4.91 1.641-9.02 3.992-12.32 7.043-3.3 3.047-5.77 6.727-7.43 11.039-1.65 4.32-2.47 9.141-2.47 14.481 0 5.578 0.95 11.109 2.86 16.558 1.9 5.469 5.31 10.352 10.22 14.668 4.9 4.313 11.59 7.781 20.05 10.41 8.47 2.621 19.26 3.934 32.38 3.934h19.04v7.238c0 5.93-0.5 10.942-1.52 15.039-1.01 4.11-2.56 7.43-4.63 9.973-2.09 2.539-4.76 4.379-8.06 5.519-3.3 1.149-7.25 1.707-11.82 1.707-8.63 0-16.25-3.636-22.85-10.91-5.58-6.097-10.87-9.136-15.87-9.136-2.96 0-5.22 0.847-6.79 2.539-1.57 1.679-2.35 3.8-2.35 6.339 0 3.301 1.57 6.29 4.7 8.95 3.13 2.672 7.22 4.929 12.25 6.8 5.04 1.86 10.71 3.301 17.01 4.309 6.3 1.02 12.67 1.52 19.11 1.52 9.4 0 17.17-0.969 23.36-2.918 6.18-1.942 11.12-4.86 14.79-8.75 3.69-3.903 6.27-8.782 7.75-14.672 1.47-5.879 2.21-12.797 2.21-20.75v-71.231c0-4.148-0.72-7.207-2.15-9.187-1.44-2-4.1-2.992-8.01-2.992-5.66 0-9.72 1.921-12.18 5.781-2.45 3.851-3.68 10.09-3.68 18.719"/>
      <path d="m1804.1 272.58c0 8.652-0.65 15.75-1.96 21.352-1.32 5.601-3.15 10.019-5.53 13.281-2.37 3.258-5.2 5.559-8.5 6.867-3.3 1.313-6.9 1.973-10.79 1.973-3.56 0-7.15-0.891-10.79-2.672-3.65-1.777-6.95-4.09-9.91-6.93s-5.4-6.078-7.29-9.719c-1.92-3.652-2.86-7.371-2.86-11.191v-56.43c0-1.961 0.54-3.879 1.65-5.789 1.1-1.898 2.68-3.601 4.76-5.082 2.07-1.488 4.59-2.687 7.55-3.629 2.96-0.918 6.26-1.39 9.9-1.39 5.08 0 9.72 0.972 13.9 2.922 4.2 1.949 7.75 5.23 10.66 9.847 2.93 4.621 5.19 10.723 6.8 18.301 1.61 7.59 2.41 17.012 2.41 28.289zm-84.42-114.71v164.27c0 7.449 3.39 11.168 10.16 11.168 5.58 0 9.68-1.75 12.31-5.27 2.63-3.5 3.98-9.199 4.06-17.07v-2.028h0.26c2.28 3.809 4.8 7.239 7.55 10.278 2.75 3.051 5.78 5.613 9.08 7.691 3.3 2.07 6.98 3.649 11.04 4.75 4.07 1.11 8.6 1.649 13.59 1.649 29.7 0 44.56-19.579 44.56-58.77 0-11.937-1.42-22.367-4.25-31.301-2.84-8.929-6.92-16.398-12.26-22.41-5.33-5.996-11.82-10.508-19.48-13.508-7.67-3.011-16.32-4.511-25.97-4.511-8.79 0-16.67 1.652-23.61 4.953v-43.672c0-3.719-0.29-6.789-0.89-9.211-0.59-2.399-1.54-4.32-2.85-5.707-1.32-1.402-3.03-2.352-5.15-2.863-2.12-0.5-4.69-0.758-7.74-0.758-4.06 0-6.82 0.98-8.25 2.918-1.44 1.941-2.16 5.082-2.16 9.402"/>
      <path d="m1939.3 213.22c4.66 0 8.91 0.781 12.76 2.34 3.85 1.57 7.17 4.39 9.96 8.453 2.8 4.058 4.95 9.648 6.48 16.758 1.52 7.109 2.28 16.21 2.28 27.289 0 10.75-0.78 19.66-2.35 26.722-1.56 7.071-3.74 12.699-6.53 16.891-2.8 4.18-6.12 7.109-9.97 8.75-3.85 1.656-8.06 2.476-12.63 2.476-4.41 0-8.51-0.82-12.32-2.476-3.8-1.641-7.12-4.57-9.96-8.75-2.84-4.192-5.05-9.82-6.67-16.891-1.61-7.062-2.41-15.972-2.41-26.722 0-10.661 0.72-19.528 2.16-26.598 1.44-7.063 3.54-12.699 6.28-16.883 2.75-4.187 6.05-7.129 9.9-8.816 3.86-1.692 8.19-2.543 13.02-2.543zm0-10.41c-9.4 0-17.79 1.351-25.21 4.062-7.4 2.699-13.64 6.801-18.72 12.25-5.07 5.457-8.95 12.25-11.61 20.379-2.67 8.121-4 17.641-4 28.559 0 11.011 1.39 20.613 4.19 28.82 2.79 8.211 6.77 15 11.93 20.383 5.17 5.367 11.41 9.386 18.72 12.047 7.33 2.679 15.56 4 24.7 4 9.23 0 17.52-1.321 24.88-4 7.37-2.661 13.62-6.7 18.79-12.118 5.17-5.421 9.1-12.211 11.81-20.382 2.7-8.161 4.06-17.739 4.06-28.75 0-10.918-1.31-20.438-3.94-28.559-2.62-8.129-6.47-14.922-11.55-20.379-5.08-5.449-11.32-9.551-18.73-12.25-7.4-2.711-15.84-4.062-25.32-4.062"/>
      <path d="m2067.8 214.99h57v106.14h-41.64v-25.77c0-19.211-1.2-35-3.63-47.359-2.4-12.352-6.31-23.359-11.73-33.012zm-26.66 0h7.49c5.84 7.793 10.19 17.762 13.07 29.91 2.88 12.141 4.32 28.961 4.32 50.461v25.77c0 4.23 0.78 7.32 2.34 9.262 1.57 1.949 4.35 2.918 8.32 2.918h64.75c3.97 0 6.71-0.989 8.18-2.981 1.49-1.988 2.23-5.047 2.23-9.199v-106.14h11.42c5.59 0 8.38-2.656 8.38-7.988v-24.25c0-3.719-0.72-6.48-2.15-8.25-1.44-1.781-3.94-2.668-7.49-2.668-5.5 0-9.27 1.066-11.3 3.238-2.03 2.149-3.05 6.621-3.05 13.391v14.348h-91.03v-14.348c0-6.77-0.99-11.242-2.98-13.391-1.99-2.172-5.74-3.238-11.23-3.238-3.65 0-6.16 0.887-7.56 2.668-1.39 1.77-2.09 4.531-2.09 8.25v24.25c0 5.332 2.79 7.988 8.38 7.988"/>
      <path d="m2328 321.13v-106.14c0-4.148-0.74-7.207-2.23-9.187-1.47-2-4.21-2.992-8.18-2.992-5.84 0-10.07 1.632-12.69 4.882-2.63 3.258-3.94 8.739-3.94 16.45v74.39l-58.78-88.992c-1.52-2.461-3.41-4.187-5.64-5.207-2.25-1.023-5.28-1.523-9.09-1.523-3.97 0-6.71 0.992-8.18 2.992-1.48 1.98-2.23 5.039-2.23 9.187v106.14c0 4.152 0.75 7.211 2.23 9.199 1.47 1.992 4.21 2.981 8.18 2.981 5.84 0 10.07-1.629 12.7-4.879 2.63-3.258 3.93-8.739 3.93-16.442v-75.41l58.53 88.992c1.78 2.879 3.75 4.891 5.9 6.032 2.17 1.148 5.18 1.707 9.08 1.707 3.97 0 6.71-0.989 8.18-2.981 1.49-1.988 2.23-5.047 2.23-9.199"/>
      <path d="m2471.3 321.13h-23.99v-101.44c0-6.941-1.15-11.492-3.43-13.64-2.29-2.172-6.06-3.242-11.3-3.242-4.82 0-8.09 0.972-9.78 2.921-1.68 1.942-2.53 5.04-2.53 9.258v106.14h-23.36s-0.65-23.649-13.37-23.231c-7.49 0.25-10.29 14.622-10.29 27.262-0.1 3.891 1.31 8.149 8.04 8.149h104.32c2.57 0 5.94-1.989 6.2-6.719 0.53-9.789-4.1-26.379-9.98-26.692-9.48-0.5-10.53 21.231-10.53 21.231"/>
      <path d="m2591.6 322.9c-8.38 0-15.21-3.527-20.49-10.597-5.3-7.063-8.49-18.09-9.59-33.071h48.62c3.05 0 5.26 0.551 6.67 1.649 1.39 1.109 2.09 3.09 2.09 5.973 0 5.839-0.74 11.007-2.23 15.488-1.47 4.48-3.46 8.25-5.96 11.301-2.5 3.039-5.4 5.347-8.7 6.918-3.3 1.562-6.76 2.339-10.41 2.339zm40.88-87.339c0.76 0.929 1.71 1.652 2.86 2.16 1.14 0.511 2.35 0.761 3.62 0.761 1.52 0 2.9-0.511 4.12-1.519 1.23-1.02 1.84-2.332 1.84-3.941 0-3.211-1.1-6.18-3.3-8.879-11.59-14.219-27.55-21.332-47.86-21.332-10.15 0-19.08 1.41-26.79 4.25-7.7 2.839-14.11 6.941-19.22 12.312-5.13 5.379-8.98 11.891-11.57 19.551-2.57 7.668-3.86 16.316-3.86 25.969 0 22.429 5.18 39.437 15.54 51.031 10.37 11.59 25.5 17.387 45.39 17.387 7.87 0 15-1.137 21.39-3.418 6.4-2.289 11.88-5.661 16.45-10.09 4.57-4.449 8.1-9.93 10.6-16.449 2.49-6.512 3.74-13.961 3.74-22.34 0-8.473-4.91-12.703-14.72-12.703h-69.96c-0.08-0.668-0.14-1.5-0.19-2.481-0.04-0.957-0.06-2.047-0.06-3.226 0-7.454 0.72-14.153 2.16-20.122 1.43-5.96 3.64-11.039 6.6-15.242 2.96-4.179 6.71-7.398 11.24-9.648 4.52-2.231 9.87-3.36 16.05-3.36 5.08 0 9.44 0.661 13.08 1.981 3.64 1.301 6.75 2.91 9.33 4.82 2.58 1.891 4.76 3.91 6.54 6.028 1.78 2.113 3.3 3.929 4.57 5.453l2.41 3.047"/>
      <path d="m2806.7 321.13v-106.14c0-4.148-0.74-7.207-2.21-9.187-1.49-2-4.22-2.992-8.2-2.992-5.84 0-10.07 1.632-12.69 4.882-2.63 3.258-3.94 8.739-3.94 16.45v96.988h-41.64v-27.301c0-16.34-1.03-30.527-3.1-42.59-2.08-12.066-5.79-22.238-11.12-30.527-3.89-5.84-8.02-10.289-12.38-13.332-4.36-3.047-9.58-4.57-15.67-4.57-3.39 0-6.12 0.82-8.2 2.48-2.07 1.641-3.1 4.211-3.1 7.672 0 2.289 1.1 4.57 3.3 6.859 2.19 2.282 4.86 3.719 8 4.321 3.38 0.757 6.38 2.031 9.01 3.8 2.63 1.778 4.8 3.789 6.54 6.039 1.73 2.239 3.22 5.192 4.44 8.891 1.23 3.668 2.18 7.16 2.86 10.457 0.67 3.313 1.18 7.563 1.52 12.762 0.34 5.211 0.55 9.801 0.64 13.781 0.08 3.969 0.12 9.141 0.12 15.488v25.77c0 4.062 0.74 7.109 2.22 9.141 1.48 2.031 4.38 3.039 8.7 3.039h64.49c3.98 0 6.71-0.989 8.2-2.981 1.47-1.988 2.21-5.047 2.21-9.199"/>
      <path d="m2925.8 322.9c-8.38 0-15.22-3.527-20.5-10.597-5.3-7.063-8.49-18.09-9.59-33.071h48.62c3.05 0 5.26 0.551 6.67 1.649 1.39 1.109 2.09 3.09 2.09 5.973 0 5.839-0.74 11.007-2.23 15.488-1.47 4.48-3.46 8.25-5.95 11.301-2.5 3.039-5.4 5.347-8.7 6.918-3.31 1.562-6.77 2.339-10.41 2.339zm40.87-87.339c0.77 0.929 1.71 1.652 2.87 2.16 1.13 0.511 2.34 0.761 3.61 0.761 1.52 0 2.9-0.511 4.12-1.519 1.23-1.02 1.85-2.332 1.85-3.941 0-3.211-1.11-6.18-3.31-8.879-11.59-14.219-27.54-21.332-47.86-21.332-10.15 0-19.08 1.41-26.78 4.25-7.71 2.839-14.11 6.941-19.23 12.312-5.13 5.379-8.98 11.891-11.56 19.551-2.58 7.668-3.87 16.316-3.87 25.969 0 22.429 5.18 39.437 15.55 51.031 10.37 11.59 25.49 17.387 45.39 17.387 7.87 0 15-1.137 21.38-3.418 6.4-2.289 11.88-5.661 16.45-10.09 4.57-4.449 8.1-9.93 10.6-16.449 2.49-6.512 3.74-13.961 3.74-22.34 0-8.473-4.91-12.703-14.72-12.703h-69.95c-0.09-0.668-0.15-1.5-0.2-2.481-0.04-0.957-0.06-2.047-0.06-3.226 0-7.454 0.72-14.153 2.16-20.122 1.44-5.96 3.64-11.039 6.6-15.242 2.96-4.179 6.71-7.398 11.24-9.648 4.52-2.231 9.87-3.36 16.06-3.36 5.07 0 9.43 0.661 13.07 1.981 3.65 1.301 6.75 2.91 9.33 4.82 2.59 1.891 4.76 3.91 6.54 6.028 1.78 2.113 3.3 3.929 4.57 5.453l2.41 3.047"/>
      <path d="m3107.3 372.04c0.67 4.063 2.43 7.02 5.26 8.883 2.84 1.867 6.2 2.797 10.1 2.797 2.88 0 5.46-1.02 7.74-3.047 2.29-2.031 3.43-4.832 3.43-8.383 0-7.359-3.7-13.348-11.11-17.961-7.4-4.617-17.67-6.918-30.78-6.918-12.95 0-23.09 2.32-30.41 6.981-7.32 4.66-10.98 10.699-10.98 18.148 0 3.473 1.16 6.199 3.5 8.199 2.32 1.981 4.97 2.981 7.93 2.981 3.81 0 7.11-0.93 9.9-2.797 2.79-1.863 4.53-4.82 5.2-8.883 0.77-4.738 2.22-8.379 4.39-10.918 2.15-2.539 5.64-3.812 10.47-3.812 4.91 0 8.52 1.293 10.86 3.882 2.32 2.571 3.82 6.188 4.5 10.848zm40.5-50.91v-106.14c0-4.148-0.75-7.207-2.23-9.187-1.47-2-4.21-2.992-8.18-2.992-5.84 0-10.07 1.632-12.7 4.882-2.63 3.258-3.93 8.739-3.93 16.45v74.39l-58.78-88.992c-1.61-2.461-3.54-4.187-5.78-5.207-2.24-1.023-5.23-1.523-8.95-1.523-3.97 0-6.71 0.992-8.18 2.992-1.49 1.98-2.23 5.039-2.23 9.187v106.14c0 4.152 0.74 7.211 2.23 9.199 1.47 1.992 4.21 2.981 8.18 2.981 5.84 0 10.07-1.629 12.7-4.879 2.62-3.258 3.93-8.739 3.93-16.442v-75.41l58.53 88.992c1.77 2.879 3.75 4.891 5.89 6.032 2.17 1.148 5.19 1.707 9.09 1.707 3.97 0 6.71-0.989 8.18-2.981 1.48-1.988 2.23-5.047 2.23-9.199"/>
    </g>
  </g>
</svg>
