<?xml version="1.0" encoding="utf-8"?>
<svg viewBox="0 0 82 82" width="82" height="82" xmlns="http://www.w3.org/2000/svg">
  <path d="M 68.986 0 L 13.004 0 C 5.851 0 0 5.822 0 12.925 L 0 68.559 C 0 75.672 5.851 81.483 13.004 81.483 L 68.986 81.483 C 76.139 81.483 82 75.672 82 68.559 L 82 12.925 C 82 5.822 76.139 0 68.986 0 Z M 41.487 7.799 C 50.766 7.819 58.217 15.369 58.167 24.687 C 58.117 33.797 50.547 41.179 41.288 41.149 C 32.118 41.109 24.598 33.559 24.648 24.439 C 24.697 15.21 32.228 7.769 41.487 7.799 Z M 60.283 47.696 C 58.227 49.792 55.763 51.302 53.021 52.365 C 50.418 53.359 47.587 53.865 44.775 54.203 C 45.192 54.66 45.391 54.889 45.659 55.147 C 49.474 58.962 53.309 62.757 57.114 66.582 C 58.415 67.883 58.684 69.502 57.968 71.012 C 57.193 72.671 55.445 73.764 53.726 73.645 C 52.643 73.566 51.799 73.029 51.044 72.284 C 48.163 69.403 45.232 66.572 42.401 63.641 C 41.586 62.787 41.189 62.945 40.464 63.691 C 37.563 66.651 34.622 69.572 31.661 72.473 C 30.32 73.784 28.741 74.013 27.191 73.268 C 25.562 72.483 24.519 70.814 24.598 69.145 C 24.648 68.012 25.214 67.148 25.989 66.373 C 29.774 62.618 33.539 58.862 37.304 55.107 C 37.563 54.859 37.791 54.591 38.149 54.213 C 33.013 53.677 28.373 52.415 24.409 49.335 C 23.922 48.948 23.406 48.58 22.959 48.153 C 21.22 46.494 21.051 44.596 22.422 42.639 C 23.595 40.97 25.572 40.513 27.618 41.477 C 28.025 41.666 28.403 41.894 28.761 42.142 C 36.152 47.199 46.315 47.338 53.736 42.371 C 54.471 41.815 55.266 41.358 56.17 41.129 C 57.948 40.672 59.598 41.318 60.551 42.858 C 61.634 44.616 61.624 46.335 60.283 47.696 Z M 41.467 32.635 C 46.017 32.615 49.633 28.989 49.623 24.459 C 49.603 19.929 45.977 16.313 41.417 16.313 C 36.827 16.313 33.162 19.988 33.201 24.558 C 33.241 29.069 36.897 32.655 41.467 32.635 Z"/>
</svg>
