<?xml version="1.0" encoding="utf-8"?>
<svg viewBox="0 0 26 26" width="26" height="26px" xmlns="http://www.w3.org/2000/svg">
  <path d="M 24 14 L 16.86 14 L 16.86 14 C 16.41 15.72 14.86 17 13 17 C 11.14 17 9.59 15.72 9.14 14 L 9.14 14 L 2 14 C 1.45 14 1 13.55 1 13 C 1 12.45 1.45 12 2 12 L 9.14 12 C 9.59 10.28 11.14 9 13 9 C 14.86 9 16.41 10.28 16.86 12 L 24 12 C 24.55 12 25 12.45 25 13 C 25 13.55 24.55 14 24 14 Z M 13 11 C 11.9 11 11 11.9 11 13 C 11 14.1 11.9 15 13 15 C 14.1 15 15 14.1 15 13 C 15 11.9 14.1 11 13 11 Z M 24 6 L 22.86 6 C 22.41 7.72 20.86 9 19 9 C 17.14 9 15.59 7.72 15.14 6 L 2 6 C 1.45 6 1 5.55 1 5 C 1 4.45 1.45 4 2 4 L 15.14 4 L 15.14 4 C 15.59 2.28 17.14 1 19 1 C 20.86 1 22.41 2.28 22.86 4 L 22.86 4 L 24 4 C 24.55 4 25 4.45 25 5 C 25 5.55 24.55 6 24 6 Z M 19 3 C 17.9 3 17 3.9 17 5 C 17 6.1 17.9 7 19 7 C 20.1 7 21 6.1 21 5 C 21 3.9 20.1 3 19 3 Z M 2 20 L 3.14 20 C 3.59 18.28 5.14 17 7 17 C 8.86 17 10.41 18.28 10.86 20 L 10.86 20 L 24 20 C 24.55 20 25 20.45 25 21 C 25 21.55 24.55 22 24 22 L 10.86 22 L 10.86 22 C 10.41 23.72 8.86 25 7 25 C 5.14 25 3.59 23.72 3.14 22 L 3.14 22 L 2 22 C 1.45 22 1 21.55 1 21 C 1 20.45 1.45 20 2 20 Z M 7 23 C 8.1 23 9 22.1 9 21 C 9 19.9 8.1 19 7 19 C 5.9 19 5 19.9 5 21 C 5 22.1 5.9 23 7 23 Z"/>
</svg>