<?xml version="1.0" encoding="utf-8"?>
<svg viewBox="0 0 448 512" xmlns="http://www.w3.org/2000/svg">
  <path d="M 448 80 L 448 432 C 448 458.5 426.5 480 400 480 L 48 480 C 21.5 480 0 458.5 0 432 L 0 80 C 0 53.5 21.5 32 48 32 L 400 32 C 426.5 32 448 53.5 448 80 Z M 397.14 162.851 C 399.632 154.432 397.14 148.235 385.151 148.235 L 345.48 148.235 C 335.377 148.235 330.73 153.556 328.238 159.483 C 328.238 159.483 308.031 208.719 279.474 240.644 C 270.246 249.872 266.003 252.835 260.951 252.835 C 258.459 252.835 254.62 249.872 254.62 241.452 L 254.62 162.851 C 254.62 152.748 251.791 148.235 243.439 148.235 L 181.07 148.235 C 174.739 148.235 170.967 152.95 170.967 157.328 C 170.967 166.892 185.246 169.115 186.728 196.056 L 186.728 254.519 C 186.728 267.316 184.438 269.674 179.386 269.674 C 165.915 269.674 133.182 220.236 113.784 163.659 C 109.877 152.68 106.038 148.235 95.868 148.235 L 56.196 148.235 C 44.881 148.235 42.591 153.556 42.591 159.483 C 42.591 169.99 56.062 222.189 105.297 291.159 C 138.098 338.239 184.303 363.766 226.332 363.766 C 251.589 363.766 254.687 358.109 254.687 348.342 C 254.687 303.35 252.397 299.107 265.06 299.107 C 270.92 299.107 281.023 302.071 304.596 324.769 C 331.538 351.71 335.983 363.766 351.07 363.766 L 390.742 363.766 C 402.057 363.766 407.782 358.109 404.482 346.928 C 396.938 323.422 345.952 275.062 343.662 271.829 C 337.802 264.285 339.486 260.918 343.662 254.182 C 343.729 254.115 392.156 185.953 397.14 162.851 Z"/>
</svg>