<?xml version="1.0" encoding="utf-8"?>
<svg viewBox="0 0 82 82" width="82" height="82" xmlns="http://www.w3.org/2000/svg">
  <path id="Фигура 2" class="shp0" d="M 68.988 0 L 13.012 0 C 5.855 0 0 5.825 0 12.933 L 0 68.56 C 0 75.668 5.855 81.493 13.012 81.493 L 68.988 81.493 C 76.145 81.493 82 75.668 82 68.56 L 82 12.933 C 82 5.825 76.145 0 68.988 0 Z M 63.471 45.26 C 65.687 47.417 68.043 49.445 70.041 51.83 C 70.916 52.884 71.751 53.968 72.387 55.19 C 73.292 56.94 72.477 58.848 70.906 58.958 L 61.135 58.958 C 58.62 59.157 56.612 58.153 54.912 56.433 C 53.57 55.071 52.307 53.61 51.005 52.198 C 50.478 51.622 49.922 51.075 49.256 50.637 C 47.924 49.783 46.761 50.041 45.995 51.423 C 45.22 52.834 45.041 54.395 44.971 55.956 C 44.862 58.242 44.166 58.838 41.86 58.958 C 36.919 59.176 32.237 58.431 27.883 55.966 C 24.046 53.779 21.064 50.697 18.48 47.218 C 13.43 40.418 9.573 32.963 6.104 25.289 C 5.318 23.559 5.885 22.625 7.803 22.595 C 10.994 22.535 14.185 22.545 17.366 22.595 C 18.668 22.615 19.523 23.35 20.02 24.563 C 21.75 28.778 23.857 32.784 26.502 36.502 C 27.207 37.486 27.933 38.48 28.947 39.176 C 30.08 39.951 30.945 39.693 31.482 38.44 C 31.82 37.635 31.969 36.79 32.039 35.935 C 32.297 33.003 32.327 30.08 31.889 27.158 C 31.621 25.339 30.577 24.156 28.748 23.808 C 27.814 23.639 27.953 23.291 28.4 22.764 C 29.196 21.849 29.931 21.283 31.402 21.283 L 42.446 21.283 C 44.186 21.621 44.574 22.396 44.812 24.136 L 44.822 36.323 C 44.792 36.999 45.16 38.997 46.373 39.434 C 47.347 39.752 47.993 38.977 48.58 38.361 C 51.224 35.577 53.113 32.277 54.793 28.868 C 55.538 27.366 56.184 25.816 56.811 24.255 C 57.278 23.102 57.993 22.535 59.306 22.555 L 69.932 22.565 C 70.24 22.565 70.568 22.565 70.876 22.615 C 72.656 22.923 73.153 23.688 72.596 25.428 C 71.731 28.152 70.032 30.428 68.371 32.705 C 66.602 35.14 64.713 37.496 62.944 39.941 C 61.333 42.188 61.463 43.321 63.471 45.26 Z"/>
</svg>
