<?xml version="1.0" encoding="utf-8"?>
<svg viewBox="0 0 82 82" width="82" height="82" xmlns="http://www.w3.org/2000/svg" xmlns:bx="https://boxy-svg.com">
  <path d="M 68.988 0 L 13.012 0 C 5.855 0 0 5.825 0 12.933 L 0 68.56 C 0 75.668 5.855 81.493 13.012 81.493 L 68.988 81.493 C 76.145 81.493 82 75.668 82 68.56 L 82 12.933 C 82 5.825 76.145 0 68.988 0 Z M 69.167 50.339 C 68.859 54.146 65.946 58.988 61.91 59.683 C 48.938 60.677 33.54 60.538 20.08 59.683 C 15.915 59.147 13.151 54.117 12.843 50.339 C 12.197 42.387 12.197 37.854 12.843 29.901 C 13.151 26.094 15.965 21.114 20.08 20.637 C 33.381 19.523 48.848 19.772 61.91 20.637 C 66.562 20.826 68.859 25.587 69.167 29.404 C 69.813 37.347 69.813 42.387 69.167 50.339 Z M 35.279 51.532 L 52.457 40.13 L 35.279 28.758 L 35.279 51.532 Z"/>
</svg>
